<?xml version="1.0" standalone="no"?>
<!DOCTYPE svg PUBLIC "-//W3C//DTD SVG 1.1//EN" "http://www.w3.org/Graphics/SVG/1.1/DTD/svg11.dtd" >
<svg xmlns="http://www.w3.org/2000/svg" xmlns:xlink="http://www.w3.org/1999/xlink" version="1.1">
<metadata>
Created by FontForge 20141024 at Sat May  9 17:07:05 2015
 By System Administrator
Copyright (c) 2010 by Muthu Nedumaran. All rights reserved.
</metadata>
<defs>
<font id="OriyaSangamMN" horiz-adv-x="0" >
  <font-face 
    font-family="Oriya Sangam MN"
    font-weight="400"
    font-stretch="normal"
    units-per-em="2048"
    panose-1="2 0 0 0 0 0 0 0 0 0"
    ascent="1638"
    descent="-410"
    x-height="1018"
    cap-height="1417"
    bbox="-1351 -1101 2351 1930"
    underline-thickness="102"
    underline-position="-103"
    unicode-range="U+0020-25CC"
  />
<missing-glyph horiz-adv-x="1126" 
d="M151 0v1679h836v-1679h-836zM271 120h594v1439h-594v-1439z" />
    <glyph glyph-name=".notdef" horiz-adv-x="1126" 
d="M151 0v1679h836v-1679h-836zM271 120h594v1439h-594v-1439z" />
    <glyph glyph-name=".null" 
 />
    <glyph glyph-name=".null" 
 />
    <glyph glyph-name="space" unicode=" " horiz-adv-x="614" 
 />
    <glyph glyph-name="percent" unicode="%" horiz-adv-x="1729" 
d="M377 0l840 1366h149l-840 -1366h-149zM129 1049q0 70 25.5 131t70 106.5t104 71.5t128.5 26q68 0 128 -26t104.5 -71.5t70.5 -106.5t26 -131t-26 -131.5t-70.5 -107.5t-104.5 -72.5t-128 -26.5q-69 0 -128.5 26.5t-104 72.5t-70 107.5t-25.5 131.5zM254 1049
q0 -45 16 -84.5t43.5 -69t64.5 -47t79 -17.5t79.5 17.5t65 47t44 69t16.5 84.5q0 44 -16.5 83.5t-44 69t-65 47t-79.5 17.5t-79 -17.5t-64.5 -47t-43.5 -69t-16 -83.5zM973 319q0 70 25 131.5t69.5 107.5t104 72.5t128.5 26.5t128.5 -26.5t104 -72.5t70 -107.5t25.5 -131.5
t-25.5 -131.5t-70 -107t-104 -72t-128.5 -26.5t-128.5 26.5t-104 72t-69.5 107t-25 131.5zM1098 319q0 -44 16 -83.5t43 -69t64 -47t79 -17.5t79.5 17.5t65.5 47t44 69t16 83.5q0 45 -16 84.5t-44 69t-65.5 47t-79.5 17.5t-79 -17.5t-64 -47t-43 -69t-16 -84.5z" />
    <glyph glyph-name="ampersand" unicode="&#x26;" horiz-adv-x="1405" 
d="M1200 645q-9 -103 -38.5 -202.5t-80.5 -184.5q53 -59 117 -126t127 -132h-190q-38 38 -71 72.5t-65 74.5q-38 -41 -84 -75t-99.5 -59.5t-113 -39.5t-124.5 -14q-125 0 -211 35t-139 90.5t-77 124.5t-24 137q0 70 29 131t77 115.5t109.5 104.5t126.5 98
q-78 117 -120 214.5t-42 176.5q0 54 22 106t65 93t105 66.5t142 25.5q84 0 147 -27t105 -69.5t63 -95t21 -103.5q0 -63 -26.5 -119t-70 -107t-100 -98t-116.5 -92q63 -85 139.5 -180.5t179.5 -214.5q31 59 49.5 128t26.5 146h141zM575 104q100 0 182.5 40t145.5 112
q-102 115 -190.5 220.5t-163.5 205.5q-55 -40 -105 -80.5t-88.5 -82t-61 -85t-22.5 -90.5q0 -62 26 -107.5t69 -75t97 -43.5t111 -14zM451 1188q0 -53 32 -128t101 -183q51 37 96 74t78.5 74.5t53 76.5t19.5 80q0 40 -15 70t-41 49t-61 28.5t-75 9.5q-36 0 -70 -10t-60 -29
t-42 -47t-16 -65z" />
    <glyph glyph-name="parenleft" unicode="(" horiz-adv-x="588" 
d="M549 1624q-125 -233 -182.5 -469.5t-57.5 -484.5q0 -246 57.5 -483t182.5 -468h-109q-79 102 -138.5 216t-99 234.5t-59.5 246.5t-20 254q0 127 19.5 253t59 247t99 235.5t139.5 218.5h109z" />
    <glyph glyph-name="parenright" unicode=")" horiz-adv-x="549" 
d="M147 1624q162 -210 240 -453.5t78 -500.5q0 -128 -19.5 -254.5t-59.5 -247t-99.5 -234t-139.5 -215.5h-110q129 228 187.5 465.5t58.5 485.5q0 247 -58.5 484.5t-187.5 469.5h110z" />
    <glyph glyph-name="asterisk" unicode="*" horiz-adv-x="979" 
d="M584 1466l-23 -303l279 119l55 -147l-309 -72q23 -26 50 -55.5t55 -59t55.5 -58t50.5 -52.5l-121 -93l-168 254l-174 -254l-121 93l213 225l-303 76l47 143l285 -121l-27 305h156z" />
    <glyph glyph-name="plus" unicode="+" horiz-adv-x="1247" 
d="M127 821h455v443h114v-443h459v-114h-459v-443h-114v443h-455v114z" />
    <glyph glyph-name="comma" unicode="," horiz-adv-x="416" 
d="M336 197v-248q0 -91 -46.5 -153t-121.5 -91l-51 70q33 13 52.5 30t30 38t14 47.5t3.5 58.5v51h-74v197h193z" />
    <glyph glyph-name="period" unicode="." horiz-adv-x="395" 
d="M315 197v-197h-192v197h192z" />
    <glyph glyph-name="slash" unicode="/" horiz-adv-x="610" 
d="M139 -41h-139l477 1507h133z" />
    <glyph glyph-name="zero" unicode="0" horiz-adv-x="1147" 
d="M244 696q0 -153 25 -262t69 -179t102.5 -103t126.5 -33t127 33t103 103t69 179t25 262t-25 262.5t-69 180t-103 104t-127 33.5t-126.5 -33.5t-102.5 -104t-69 -180t-25 -262.5zM1042 696q0 -161 -30.5 -289.5t-90 -219t-148.5 -139t-206 -48.5t-205.5 48.5t-148 139
t-89.5 219t-30 289.5q0 160 30 289t89.5 220t148 139.5t205.5 48.5t206 -48.5t148.5 -139.5t90 -220t30.5 -289z" />
    <glyph glyph-name="one" unicode="1" horiz-adv-x="1147" 
d="M698 0v1120q-48 -68 -100 -115.5t-112 -77t-128 -42.5t-147 -13v146q82 0 150 18.5t122 49t94.5 70t67 81t40 82.5t13.5 74h144v-1393h-144z" />
    <glyph glyph-name="two" unicode="2" horiz-adv-x="1147" 
d="M115 975q10 95 48.5 172.5t100 132t144.5 84t184 29.5q105 0 184.5 -32.5t133.5 -86t81 -123t27 -143.5q0 -86 -31.5 -153t-83 -123t-118.5 -105t-138 -97q-64 -44 -121.5 -86t-105.5 -88t-84 -97.5t-57 -113.5h739v-145h-901v137q23 84 70.5 154t108 130t129.5 111.5
t134 96.5q58 40 113.5 81.5t98.5 85t69 90t26 97.5q0 72 -21.5 126.5t-58.5 91t-87 55t-107 18.5q-68 0 -125 -20.5t-98.5 -59t-66 -94t-28.5 -125.5h-159z" />
    <glyph glyph-name="three" unicode="3" horiz-adv-x="1147" 
d="M135 997q14 78 46 149t85.5 125.5t129.5 87t177 32.5q94 0 168.5 -26.5t126.5 -74t79.5 -112t27.5 -140.5q0 -102 -52 -181t-149 -124q59 -21 108 -53t84 -75.5t54.5 -100t19.5 -127.5q0 -98 -36.5 -172t-98.5 -124t-144 -75.5t-173 -25.5q-98 0 -179 29t-144 83.5
t-106 134t-65 181.5h158q16 -89 51.5 -148t82 -94.5t99 -50.5t103.5 -15q54 0 108 19.5t97 56t69.5 87.5t26.5 114q0 61 -22 113.5t-63.5 91.5t-100 61.5t-130.5 22.5h-90v133h90q70 0 118 19.5t78 51.5t43 73t13 83q0 57 -17.5 102.5t-50.5 77.5t-79.5 49t-104.5 17
q-65 0 -115 -24t-85.5 -62.5t-56.5 -88t-27 -100.5h-154z" />
    <glyph glyph-name="four" unicode="4" horiz-adv-x="1147" 
d="M711 0v344h-635v170l624 860h154v-911h203v-119h-203v-344h-143zM201 463h510v717z" />
    <glyph glyph-name="five" unicode="5" horiz-adv-x="1147" 
d="M135 655l92 719h736v-121h-621q-12 -112 -27 -218t-28 -220q42 33 87 51.5t86.5 27.5t75 11t52.5 2q97 0 180 -36.5t143.5 -99t94.5 -147t34 -180.5q0 -89 -29.5 -172.5t-90 -148.5t-152.5 -104t-217 -39q-83 0 -156.5 22.5t-133 67.5t-102.5 113t-65 159h156
q18 -58 49 -103t71 -76t87 -47t96 -16q69 0 130 26.5t107 73t72.5 109t26.5 135.5q0 75 -29 137t-76 106.5t-107.5 69.5t-123.5 25q-36 0 -74.5 -8.5t-75 -25t-68.5 -40t-56 -53.5h-144z" />
    <glyph glyph-name="six" unicode="6" horiz-adv-x="1147" 
d="M874 1063q-8 38 -30 76t-57 68t-81.5 48.5t-101.5 18.5q-70 0 -124 -27t-94 -73t-67.5 -106t-44.5 -126t-25 -134.5t-9 -129.5q31 61 76 102.5t94 66.5t96.5 35.5t85.5 10.5q101 0 182 -35.5t138 -98t87.5 -147.5t30.5 -184q0 -91 -30 -172t-86 -142.5t-137 -97.5
t-183 -36q-111 0 -201.5 41t-154.5 121t-99 199.5t-35 276.5q0 201 35 347t100 241t156.5 141t204.5 46q92 0 164.5 -27.5t124 -73.5t83 -105.5t42.5 -123.5h-140zM594 100q61 0 113.5 25.5t90.5 70t59.5 104.5t21.5 128q0 66 -20.5 126t-58.5 106t-91 73t-117 27
q-76 0 -132.5 -30.5t-93.5 -78t-55 -106t-18 -113.5q0 -71 25 -132t66.5 -105.5t96 -69.5t113.5 -25z" />
    <glyph glyph-name="seven" unicode="7" horiz-adv-x="1147" 
d="M307 0q24 169 68 332t112.5 320t162.5 307t218 294h-776v121h950v-114q-110 -138 -203 -274.5t-167 -286t-127 -320.5t-82 -379h-156z" />
    <glyph glyph-name="eight" unicode="8" horiz-adv-x="1147" 
d="M109 385q0 54 16.5 105.5t45.5 96.5t70 82t89 64q-43 25 -78 57t-59.5 70.5t-38 81.5t-13.5 90q0 75 33.5 140t91 114t135 77t164.5 28q88 0 166 -28t135.5 -77t91 -114t33.5 -140q0 -46 -13.5 -89.5t-38.5 -81.5t-59.5 -70.5t-76.5 -57.5q50 -27 91 -64t70.5 -82
t45.5 -96.5t16 -105.5q0 -84 -36 -158t-98.5 -129t-146.5 -86.5t-180 -31.5q-95 0 -178.5 31.5t-145 86.5t-97 129t-35.5 158zM258 385q0 -59 24 -111t65.5 -90.5t97.5 -61t120 -22.5t120.5 22.5t98.5 61t66 90.5t24 111q0 60 -24 112.5t-66 91t-98.5 61t-120.5 22.5
t-120 -22.5t-97.5 -61t-65.5 -91t-24 -112.5zM293 1032q0 -49 21.5 -92.5t58.5 -76t86.5 -51.5t105.5 -19q57 0 107.5 19t88 51.5t59.5 76t22 92.5t-22 92.5t-59.5 76.5t-88 52t-107.5 19q-56 0 -105.5 -19t-86.5 -52t-58.5 -76.5t-21.5 -92.5z" />
    <glyph glyph-name="nine" unicode="9" horiz-adv-x="1147" 
d="M258 311q8 -38 30.5 -76t57.5 -68t81.5 -48.5t102.5 -18.5q70 0 124 27t93.5 73t66.5 106t44 126t24.5 133.5t8.5 128.5q-32 -59 -77 -100t-93.5 -66.5t-95.5 -37t-84 -11.5q-102 0 -183 35.5t-137.5 98t-86.5 148t-30 185.5q0 90 29.5 171t86 142.5t137.5 97.5t184 36
q111 0 201.5 -40.5t154.5 -120.5t98.5 -199.5t34.5 -276.5q0 -201 -35 -347t-99.5 -241.5t-156 -141.5t-204.5 -46q-92 0 -164.5 28t-125 74t-83.5 105.5t-41 123.5h137zM541 1274q-62 0 -115 -25.5t-91 -70t-59.5 -104.5t-21.5 -128q0 -67 20.5 -127t58.5 -105.5
t90.5 -72.5t117.5 -27q76 0 133 30.5t94 78t55.5 105.5t18.5 114q0 72 -25 132.5t-66.5 105t-96 69.5t-113.5 25z" />
    <glyph glyph-name="colon" unicode=":" horiz-adv-x="395" 
d="M315 1018v-199h-192v199h192zM315 197v-197h-192v197h192z" />
    <glyph glyph-name="semicolon" unicode=";" horiz-adv-x="416" 
d="M336 1018v-199h-193v199h193zM336 197v-248q0 -91 -46.5 -153t-121.5 -91l-51 70q33 13 52.5 30t30 38t14 47.5t3.5 58.5v51h-74v197h193z" />
    <glyph glyph-name="less" unicode="&#x3c;" horiz-adv-x="1165" 
d="M127 623l946 409v-133l-811 -332q204 -81 406.5 -164.5t404.5 -164.5v-136l-946 410v111z" />
    <glyph glyph-name="equal" unicode="=" horiz-adv-x="1247" 
d="M1155 961v-113h-1028v113h1028zM1155 575v-114h-1028v114h1028z" />
    <glyph glyph-name="greater" unicode="&#x3e;" horiz-adv-x="1165" 
d="M127 102v134l813 327l-813 336v133l946 -409v-111z" />
    <glyph glyph-name="question" unicode="?" horiz-adv-x="1034" 
d="M446 412v98q0 63 26 113.5t65.5 94.5t85 85t85 85t65.5 94.5t26 113.5q0 54 -15.5 101t-47 82t-80 55t-113.5 20q-60 0 -109.5 -24t-86 -67.5t-58 -104.5t-25.5 -134h-139q4 100 36 183.5t87.5 142.5t130.5 92t164 33q109 0 185.5 -32.5t124.5 -86t69.5 -121.5t21.5 -139
q0 -66 -24 -119.5t-59.5 -99.5t-77 -88t-77 -86t-59.5 -92.5t-24 -108.5v-90h-177zM623 180v-180h-177v180h177z" />
    <glyph glyph-name="bullet" unicode="&#x2022;" horiz-adv-x="666" 
d="M356 379q-46 0 -86.5 18t-71 48.5t-48 71t-17.5 85.5q0 46 17.5 87t48 71.5t71 48.5t86.5 18t87 -18t71.5 -48.5t48 -71.5t17.5 -87q0 -45 -17.5 -85.5t-48 -71t-71.5 -48.5t-87 -18z" />
    <glyph glyph-name="quotedblright" unicode="&#x201d;" horiz-adv-x="725" 
d="M332 1409v-258q0 -51 -15 -94.5t-42 -77t-65 -56t-85 -32.5v110q28 10 46 24t28.5 32.5t14 41.5t3.5 52v27h-92v231h207zM641 1409v-258q0 -51 -15 -94.5t-42 -77t-65 -56t-85 -32.5v110q28 10 46 24t27.5 32.5t13 41.5t3.5 52v27h-90v231h207z" />
    <glyph glyph-name="quotedblleft" unicode="&#x201c;" horiz-adv-x="725" 
d="M434 934v256q0 105 55.5 172.5t151.5 89.5v-113q-29 -9 -47 -22.5t-28 -32t-13.5 -42t-3.5 -52.5v-27h92v-229h-207zM125 934v256q0 105 55.5 172.5t151.5 89.5v-113q-29 -9 -47 -22.5t-28 -32t-13.5 -42t-3.5 -52.5v-27h92v-229h-207z" />
    <glyph glyph-name="bracketleft" unicode="[" horiz-adv-x="459" 
d="M463 1577v-98h-203v-1665h203v-101h-340v1864h340z" />
    <glyph glyph-name="bracketright" unicode="]" horiz-adv-x="416" 
d="M336 -287h-342v101h203v1665h-203v98h342v-1864z" />
    <glyph glyph-name="asciicircum" unicode="^" horiz-adv-x="899" 
d="M545 1434l350 -510h-123l-328 422l-327 -422h-121l346 510h203z" />
    <glyph glyph-name="underscore" unicode="_" horiz-adv-x="1198" 
d="M1106 -303v-117h-979v117h979z" />
    <glyph glyph-name="quoteright" unicode="&#x2019;" horiz-adv-x="410" 
d="M330 1409v-258q0 -103 -55.5 -171.5t-151.5 -88.5v110q28 10 46 24t28.5 32.5t14 41.5t3.5 52v27h-92v231h207z" />
    <glyph glyph-name="emdash" unicode="&#x2014;" horiz-adv-x="1634" 
d="M1536 645v-145h-1407v145h1407z" />
    <glyph glyph-name="endash" unicode="&#x2013;" horiz-adv-x="1384" 
d="M1290 645v-145h-1163v145h1163z" />
    <glyph glyph-name="hyphen" unicode="-" horiz-adv-x="666" 
d="M582 645v-145h-457v145h457z" />
    <glyph glyph-name="numbersign" unicode="#" horiz-adv-x="1503" 
d="M852 473h-311l-88 -473h-111l84 473h-299l18 100h295l62 310h-303l22 100h297l82 451h113l-80 -451h315l78 451h117l-86 -451h352l-12 -63l-11 -37h-344l-55 -310h346l-12 -63l-10 -37h-342l-90 -473h-115zM930 883h-314l-61 -310h313z" />
    <glyph glyph-name="exclam" unicode="!" horiz-adv-x="377" 
d="M297 1425v-585l-39 -480h-96l-39 478v587h174zM297 197v-197h-174v197h174z" />
    <glyph glyph-name="quotedbl" unicode="&#x22;" horiz-adv-x="623" 
d="M262 1425v-524h-139v524h139zM539 1425v-524h-136v524h136z" />
    <glyph glyph-name="uni25CC" unicode="&#x25cc;" horiz-adv-x="1346" 
d="M1042 889q0 -49 -47 -49q-53 0 -53 49q0 52 53 52q47 0 47 -52zM895 988q0 -49 -50 -49q-51 0 -51 49q0 51 51 51q50 0 50 -51zM1140 742q0 -51 -51 -51q-49 0 -49 51q0 49 51 49q49 0 49 -49zM1177 568q0 -49 -49 -49q-51 0 -51 49t51 49q49 0 49 -49zM721 1025
q0 -52 -52 -52q-49 0 -49 52q0 49 49 49q52 0 52 -49zM546 988q0 -49 -51 -49q-49 0 -49 49q0 51 49 51q51 0 51 -51zM1140 394q0 -49 -51 -49q-49 0 -49 49q0 51 49 51q51 0 51 -51zM399 889q0 -49 -49 -49q-51 0 -51 47q0 54 51 54q49 0 49 -52zM1042 244q0 -49 -47 -49
q-53 0 -53 49q0 52 53 52q47 0 47 -52zM895 146q0 -47 -50 -47q-51 0 -51 47q0 51 51 51q50 0 50 -51zM301 742q0 -51 -49 -51q-52 0 -52 51q0 49 50 49q24 0 37.5 -12t13.5 -37zM264 568q0 -49 -47 -49q-54 0 -54 49t54 49q47 0 47 -49zM721 113q0 -51 -52 -51
q-49 0 -49 51q0 49 49 49q52 0 52 -49zM301 394q0 -25 -13.5 -37t-37.5 -12q-50 0 -50 49q0 51 50 51q24 0 37.5 -12.5t13.5 -38.5zM546 150q0 -51 -51 -51q-49 0 -49 47q0 51 49 51q51 0 51 -47zM399 244q0 -49 -49 -49q-51 0 -51 49q0 52 51 52q49 0 49 -52z" />
    <glyph glyph-name="dollar" unicode="$" horiz-adv-x="1155" 
d="M655 1386q69 -7 132 -30.5t114 -65.5t87 -102.5t50 -140.5h-141q-59 177 -242 204v-491q50 -21 100 -43t95.5 -47.5t85 -55.5t68 -67t45 -83t16.5 -102q0 -95 -36.5 -164t-95 -115t-131.5 -71t-147 -32v-232h-137v236q-75 13 -141 51t-117.5 95t-86.5 131t-48 159h147
q10 -55 31 -103t52 -86.5t72 -66t91 -39.5v532q-69 30 -134.5 64t-116.5 79t-82 103.5t-31 136.5q0 71 28.5 131t78 105t116 73.5t141.5 36.5v150h137v-150zM920 358q0 41 -23 76t-60.5 65.5t-85 56t-96.5 46.5v-485q61 6 110 27t83.5 53.5t53 73.5t18.5 87zM299 1047
q0 -42 16.5 -76.5t46 -62.5t69.5 -51t87 -44v436q-51 -8 -91.5 -27t-69 -45.5t-43.5 -59.5t-15 -70z" />
    <glyph glyph-name="ZWNJ" unicode="&#x200c;" 
 />
    <glyph glyph-name="ZWJ" unicode="&#x200d;" 
 />
    <glyph glyph-name="quotesingle" unicode="'" horiz-adv-x="338" 
d="M258 1425v-524h-135v524h135z" />
    <glyph glyph-name="at" unicode="@" horiz-adv-x="1612" 
d="M1116 918h125l-160 -556q-5 -17 -7.5 -32t-2.5 -27q0 -51 41 -51q16 0 44 6.5t60.5 23.5t66 46.5t60.5 76t44.5 112t17.5 153.5q0 108 -43.5 198t-115.5 154.5t-166 100.5t-195 36q-132 0 -246.5 -48.5t-199 -134t-133 -203t-48.5 -255.5q0 -131 50 -238t133 -183
t191 -117t224 -41q78 0 148 16.5t129 47t107.5 73.5t84.5 96h125q-35 -89 -99 -155.5t-147 -110t-180.5 -65t-198.5 -21.5q-89 0 -175 23t-163 66t-141.5 104.5t-112 138.5t-74 168t-26.5 192q0 118 28 220.5t78 187t119.5 151t153.5 112t179 69.5t196 24q124 0 239 -44
t204 -123t142.5 -188.5t53.5 -240.5q0 -134 -40.5 -236t-106.5 -171t-151 -104.5t-175 -35.5q-27 0 -48.5 9t-37 25t-24.5 37t-11 44q-44 -62 -96.5 -88.5t-124.5 -26.5q-65 0 -117 25.5t-88.5 67.5t-56 95.5t-19.5 108.5q0 90 31.5 182t88.5 167t136.5 122t175.5 47
q47 0 83.5 -16.5t63 -39.5t43 -48t23.5 -43zM979 457q17 54 26.5 88t14 55.5t5.5 33t1 19.5q0 39 -12.5 71t-34.5 55t-51.5 35.5t-63.5 12.5q-37 0 -74 -17t-70.5 -46t-62 -67t-49.5 -80t-33 -85.5t-12 -82.5q0 -36 9 -72t28.5 -64.5t50 -46.5t74.5 -18q39 0 77.5 14
t72.5 40.5t61 65.5t43 89z" />
    <glyph glyph-name="A" unicode="A" horiz-adv-x="1251" 
d="M727 1417l516 -1417h-160l-157 434h-609l-157 -434h-162l522 1417h207zM621 1278l-254 -711h507z" />
    <glyph glyph-name="B" unicode="B" horiz-adv-x="1241" 
d="M125 1417h551q92 0 165 -26.5t123.5 -71.5t77.5 -105.5t27 -128.5q0 -102 -51.5 -188t-159.5 -143q81 -23 137.5 -60t91.5 -83t50.5 -100t15.5 -112q0 -82 -34 -154.5t-91 -127t-131.5 -86t-155.5 -31.5h-616v1417zM276 821h365q64 0 117 19.5t91 52.5t59.5 77.5
t21.5 94.5q0 46 -15.5 85.5t-47.5 68t-81.5 45t-117.5 16.5h-392v-459zM276 137h402q57 0 114 16t103 49t75 84t29 120q0 57 -25.5 108.5t-74 90t-118.5 61t-158 22.5h-347v-551z" />
    <glyph glyph-name="C" unicode="C" horiz-adv-x="1446" 
d="M279 727q0 -162 42 -281.5t110 -198t155 -117t176 -38.5q93 0 168 33.5t130.5 88.5t91 126t50.5 145h154q-21 -110 -69.5 -205.5t-123.5 -167t-175.5 -112.5t-225.5 -41q-145 0 -262.5 52.5t-200 151.5t-127.5 242t-45 324q0 93 19 183.5t56 171.5t91.5 149.5
t124.5 118.5t156 78t186 28q127 0 226 -33.5t173 -93t123.5 -142t77.5 -179.5h-160q-56 159 -163 237t-277 78q-106 0 -194.5 -48.5t-152 -130.5t-99 -190.5t-35.5 -228.5z" />
    <glyph glyph-name="D" unicode="D" horiz-adv-x="1352" 
d="M127 1417h526q141 0 254 -56t192.5 -152t122 -224.5t42.5 -273.5q0 -151 -45 -281t-126 -225.5t-193 -150t-247 -54.5h-526v1417zM276 137h316q112 0 207 38.5t164 112t108 180t39 241.5q0 147 -39 255t-108.5 178t-164.5 104t-206 34h-316v-1143z" />
    <glyph glyph-name="E" unicode="E" horiz-adv-x="1194" 
d="M1071 1417v-137h-795v-479h748v-137h-748v-527h830v-137h-981v1417h946z" />
    <glyph glyph-name="F" unicode="F" horiz-adv-x="1135" 
d="M1049 1417v-137h-773v-479h672v-137h-672v-664h-151v1417h924z" />
    <glyph glyph-name="G" unicode="G" horiz-adv-x="1466" 
d="M279 711q0 -146 39 -260.5t105.5 -193t155 -120t187.5 -41.5q58 0 114.5 20t107.5 55t95 83.5t76.5 105.5t52 120t21.5 128h-440v133h583v-741h-92l-45 252q-35 -55 -88 -107t-115 -92.5t-130.5 -65t-135.5 -24.5q-148 0 -267 57.5t-202.5 158t-128.5 237.5t-45 295
q0 92 19 183.5t56 174.5t91.5 154t124.5 123.5t156 82t186 29.5q127 0 226 -33.5t173 -93t123.5 -142t77.5 -179.5h-160q-56 159 -163 237t-277 78q-106 0 -194.5 -49.5t-152 -133.5t-99 -195.5t-35.5 -235.5z" />
    <glyph glyph-name="H" unicode="H" horiz-adv-x="1286" 
d="M276 1417v-616h771v616h151v-1417h-151v668h-771v-668h-151v1417h151z" />
    <glyph glyph-name="I" unicode="I" horiz-adv-x="518" 
d="M352 1417v-1417h-151v1417h151z" />
    <glyph glyph-name="J" unicode="J" horiz-adv-x="983" 
d="M899 1417v-1046q0 -110 -31.5 -188t-84.5 -128t-124 -73t-149 -23q-75 0 -144.5 23.5t-123 70.5t-85.5 116t-32 161v110h151v-92q0 -66 21.5 -114.5t55.5 -80t76.5 -46.5t84.5 -15q34 0 74.5 13t76 43t59.5 80t24 124v1065h151z" />
    <glyph glyph-name="K" unicode="K" horiz-adv-x="1309" 
d="M276 1417v-725l723 725h199l-561 -557l594 -860h-191l-508 752l-256 -252v-500h-151v1417h151z" />
    <glyph glyph-name="L" unicode="L" horiz-adv-x="1075" 
d="M276 1417v-1280h713v-137h-864v1417h151z" />
    <glyph glyph-name="M" unicode="M" horiz-adv-x="1518" 
d="M322 1417l450 -1208l459 1208h196v-1417h-151v1163l-426 -1163h-137l-434 1163v-1163h-152v1417h195z" />
    <glyph glyph-name="N" unicode="N" horiz-adv-x="1288" 
d="M328 1417l721 -1224v1224h151v-1417h-203l-721 1225v-1225h-151v1417h203z" />
    <glyph glyph-name="O" unicode="O" horiz-adv-x="1489" 
d="M1399 707q0 -164 -42.5 -300.5t-123.5 -235t-199.5 -153.5t-271.5 -55q-152 0 -270.5 55t-199.5 153.5t-123 235t-42 300.5q0 163 42 300t123 235t199.5 153t270.5 55q153 0 271.5 -55t199.5 -153t123.5 -235t42.5 -300zM1247 707q0 144 -37.5 257t-103 191.5t-154 120
t-190.5 41.5t-190.5 -41.5t-153.5 -120t-102 -191.5t-37 -257t37 -257t102 -192t153.5 -120.5t190.5 -41.5t190.5 41.5t154 120.5t103 192t37.5 257z" />
    <glyph glyph-name="P" unicode="P" horiz-adv-x="1176" 
d="M125 1417h537q103 0 183 -36t134.5 -93.5t82.5 -129.5t28 -144q0 -78 -28.5 -151t-83 -129.5t-134 -91t-182.5 -34.5h-386v-608h-151v1417zM276 741h386q55 0 105 21.5t88 58.5t60.5 87t22.5 108q0 57 -21 105t-58 83.5t-87.5 55.5t-109.5 20h-386v-539z" />
    <glyph glyph-name="Q" unicode="Q" horiz-adv-x="1513" 
d="M1399 707q0 -166 -45.5 -304.5t-128.5 -238.5l205 -203l-95 -92l-207 205q-74 -54 -165.5 -82.5t-200.5 -28.5q-152 0 -270.5 55t-199.5 153.5t-123 235t-42 300.5q0 163 42 300t123 235t199.5 153t270.5 55q153 0 271.5 -55t199.5 -153t123.5 -235t42.5 -300zM1247 707
q0 144 -37.5 257t-102.5 191.5t-153.5 120t-191.5 41.5q-102 0 -190.5 -41.5t-153.5 -120t-102 -191.5t-37 -257t37 -257t102 -192t153.5 -120.5t190.5 -41.5q72 0 138 21t122 61l-145 146l94 96l147 -150q59 79 94 189t35 248z" />
    <glyph glyph-name="R" unicode="R" horiz-adv-x="1241" 
d="M1133 1014q0 -53 -12.5 -103.5t-37.5 -95.5t-62.5 -83.5t-86.5 -65.5q55 -14 90 -42.5t55 -66.5t27.5 -83t7.5 -91v-215q0 -47 12.5 -90t32.5 -78h-164q-10 16 -16 37t-9 43t-4 43t-1 37v225q0 41 -14 81t-45 71.5t-80.5 51t-120.5 19.5h-429v-608h-151v1417h580
q103 0 183 -36t134.5 -93.5t82.5 -129.5t28 -144zM276 741h429q56 0 106 21.5t88 58.5t60 87t22 108q0 57 -21 105t-57.5 83.5t-87 55.5t-110.5 20h-429v-539z" />
    <glyph glyph-name="S" unicode="S" horiz-adv-x="1253" 
d="M281 442q5 -76 34.5 -139.5t78 -110t115 -72.5t146.5 -26q71 0 136 15.5t114.5 49.5t79 88t29.5 132q0 63 -32 107t-84 76.5t-118.5 55.5t-134.5 44q-85 25 -170.5 56t-154 79t-111.5 119.5t-43 177.5q0 88 34.5 155.5t97 113.5t149 69.5t190.5 23.5q92 0 163 -18.5
t124.5 -50t90 -73t60 -88.5t35 -96.5t14.5 -95.5h-155q-6 71 -34 125t-72.5 90.5t-102.5 55t-123 18.5q-59 0 -116.5 -12t-102.5 -39.5t-73 -71t-28 -106.5q0 -65 31.5 -110.5t84 -78t120 -56.5t139.5 -46q86 -26 171 -57t152 -78t108.5 -116.5t41.5 -172.5
q0 -104 -38 -182.5t-106 -131.5t-161.5 -79.5t-204.5 -26.5q-100 0 -194 33.5t-167.5 96.5t-119.5 152.5t-49 200.5h156z" />
    <glyph glyph-name="T" unicode="T" horiz-adv-x="1303" 
d="M1214 1417v-137h-469v-1280h-151v1280h-469v137h1089z" />
    <glyph glyph-name="U" unicode="U" horiz-adv-x="1264" 
d="M276 1417v-954q0 -87 32 -156t83.5 -116.5t116 -73t129.5 -25.5q70 0 139 23.5t124 69.5t89.5 114.5t34.5 159.5v958h152v-948q0 -124 -48 -219t-124.5 -159.5t-172.5 -98t-192 -33.5q-92 0 -183.5 33t-165 97.5t-119.5 160.5t-46 223v944h151z" />
    <glyph glyph-name="V" unicode="V" horiz-adv-x="1151" 
d="M571 197l406 1220h166l-473 -1417h-189l-481 1417h166z" />
    <glyph glyph-name="W" unicode="W" horiz-adv-x="1741" 
d="M864 1180l-348 -1180h-156l-358 1417h158l282 -1147l351 1147h143l346 -1136q69 284 143.5 568t143.5 568h157l-358 -1417h-156z" />
    <glyph glyph-name="X" unicode="X" horiz-adv-x="1120" 
d="M641 709q113 -174 227.5 -355t227.5 -354h-172l-367 578l-369 -578h-172l455 711l-451 706h168l367 -575l369 575h172z" />
    <glyph glyph-name="Y" unicode="Y" horiz-adv-x="1167" 
d="M584 702l405 715h174l-508 -848v-569h-151v569l-508 848h174z" />
    <glyph glyph-name="Z" unicode="Z" horiz-adv-x="1280" 
d="M125 150l903 1130h-903v137h1067v-176l-889 -1104h889v-137h-1067v150z" />
    <glyph glyph-name="backslash" unicode="\" horiz-adv-x="590" 
d="M113 1468l477 -1509h-119l-471 1509h113z" />
    <glyph glyph-name="grave" unicode="`" horiz-adv-x="410" 
d="M123 934v256q0 105 55.5 172.5t151.5 89.5v-113q-29 -9 -46.5 -22.5t-28 -32t-14 -42t-3.5 -52.5v-27h92v-229h-207z" />
    <glyph glyph-name="a" unicode="a" horiz-adv-x="1157" 
d="M154 745q4 75 41 130t93.5 91t125.5 53t137 17q75 0 146 -16.5t126 -52.5t88 -93.5t33 -138.5v-536q0 -16 6 -32t16 -28.5t23.5 -20t28.5 -7.5q11 0 22.5 2.5t26.5 7.5v-123q-32 -9 -54.5 -13.5t-49.5 -4.5q-65 0 -107.5 48t-48.5 148q-48 -63 -95 -101.5t-93.5 -59.5
t-94 -28t-96.5 -7q-63 0 -118 20t-95.5 57.5t-64 90.5t-23.5 118t28.5 111.5t75.5 79.5t107 56t122 41t122 34t107 36t75.5 46.5t28.5 64.5q0 89 -65 128.5t-181 39.5q-45 0 -85.5 -9t-71.5 -28t-52 -49t-27 -72h-157zM793 575q-31 -33 -81.5 -55t-108 -39.5t-116 -33.5
t-105.5 -38.5t-76.5 -54.5t-29.5 -80q0 -44 15 -74.5t40 -50.5t56.5 -29t63.5 -9q94 0 183.5 56.5t158.5 174.5v233z" />
    <glyph glyph-name="b" unicode="b" horiz-adv-x="1073" 
d="M125 1425h151v-555q26 36 60.5 66.5t72.5 52.5t77.5 34.5t76.5 12.5q105 0 183.5 -41.5t131 -113.5t79 -168.5t26.5 -206.5t-27 -206.5t-80.5 -168t-132.5 -113t-184 -41.5q-40 0 -79.5 11t-76.5 33.5t-69.5 55.5t-57.5 77v-154h-151v1425zM276 506q0 -82 18.5 -154
t54 -125.5t87 -84.5t117.5 -31q67 0 119 31t88 84.5t55 125.5t19 154t-19 154.5t-55 126.5t-88 85t-119 31q-65 0 -115.5 -30t-85.5 -81.5t-54.5 -121t-21.5 -148.5v-16z" />
    <glyph glyph-name="c" unicode="c" horiz-adv-x="1075" 
d="M825 705q-15 54 -38 92t-54 61.5t-71 34t-89 10.5q-71 0 -126 -30.5t-93 -82.5t-58 -120.5t-20 -143.5q0 -78 20 -153t58 -133t92.5 -93.5t122.5 -35.5q55 0 97.5 19.5t74 53.5t52 78.5t30.5 95.5h164q-11 -89 -45 -159.5t-88 -120t-127.5 -75.5t-163.5 -26
q-76 0 -137.5 22.5t-110 61.5t-84 92t-58.5 114t-34.5 127t-11.5 132q0 108 31.5 201t90 161.5t141.5 108t185 39.5q89 0 159 -25t121 -69.5t83 -105t47 -131.5h-160z" />
    <glyph glyph-name="d" unicode="d" horiz-adv-x="1073" 
d="M834 522q-2 79 -21.5 148.5t-55 121t-86.5 81.5t-116 30q-66 0 -118 -31t-87.5 -85t-54.5 -126.5t-19 -154.5t19 -154t54.5 -125.5t87.5 -84.5t118 -31q67 0 119 31t87.5 84.5t54 125.5t18.5 154v16zM983 0h-149v154q-53 -88 -129 -132.5t-156 -44.5q-104 0 -183 41.5
t-132.5 113t-81 168t-27.5 206.5t26.5 206.5t79.5 168.5t131.5 113.5t182.5 41.5q37 0 76.5 -12.5t77.5 -34.5t73 -52.5t62 -66.5v555h149v-1425z" />
    <glyph glyph-name="e" unicode="e" horiz-adv-x="1133" 
d="M285 481q1 -71 25 -138t65.5 -118.5t97.5 -82.5t121 -31q220 0 291 204h137q-17 -80 -58 -142.5t-98.5 -105t-127 -65t-144.5 -22.5q-107 0 -193.5 44t-147 118.5t-93.5 173t-33 208.5q0 102 32.5 195t93 163.5t146.5 112t193 41.5q103 0 186.5 -37.5t142 -103.5t90 -157
t31.5 -197v-60h-757zM887 598q-2 64 -23.5 120t-61 97t-95 64.5t-125.5 23.5q-63 0 -116.5 -25t-93.5 -67.5t-63 -97.5t-24 -115h602z" />
    <glyph glyph-name="f" unicode="f" horiz-adv-x="680" 
d="M252 1018v250q0 43 15 79t43 62.5t68 41.5t91 15q26 0 61 -10t66 -29v-118q-25 11 -46 16.5t-32 5.5q-51 0 -83 -22t-32 -70v-221h179v-133h-179v-885h-151v885h-174v133h174z" />
    <glyph glyph-name="g" unicode="g" horiz-adv-x="1100" 
d="M1010 -25q0 -105 -36 -185t-96 -134t-137.5 -81.5t-160.5 -27.5q-72 0 -135 18t-116 56t-94 96.5t-69 139.5h151q42 -93 106 -134.5t157 -41.5q57 0 107.5 21.5t88.5 59.5t60 90.5t22 114.5v178q-53 -83 -128.5 -125.5t-154.5 -42.5q-104 0 -186.5 42t-141 114.5
t-89.5 169.5t-31 207t31 206t88 167t137 112t178 41q34 0 72.5 -7.5t77.5 -26t76.5 -50.5t70.5 -80v146h152v-1043zM858 522q-2 79 -21 148.5t-54 121t-86 81.5t-115 30q-66 0 -122 -30.5t-97 -84t-64 -125t-23 -153.5t23 -154.5t64 -127t97 -86t122 -31.5t117.5 31
t86.5 84.5t53.5 125.5t18.5 154v16z" />
    <glyph glyph-name="h" unicode="h" horiz-adv-x="1032" 
d="M276 1425v-551q31 46 69 77t80.5 50t89 27t95.5 8q73 0 134 -23t105 -64t68.5 -97t24.5 -121v-731h-149v705q0 54 -18 91.5t-48.5 61t-70 34.5t-81.5 11q-53 0 -106.5 -22t-96 -60.5t-69.5 -90.5t-27 -112v-618h-151v1425h151z" />
    <glyph glyph-name="i" unicode="i" horiz-adv-x="434" 
d="M313 1425v-176h-149v176h149zM313 1018v-1018h-149v1018h149z" />
    <glyph glyph-name="j" unicode="j" horiz-adv-x="352" 
d="M272 1425v-176h-151v176h151zM272 1018v-1206q0 -64 -17.5 -112t-49 -80t-74 -48t-92.5 -16q-20 0 -41 3.5t-41 14.5v131q23 -11 34.5 -13.5t20.5 -2.5q29 0 50 12t34 32.5t19 48t6 58.5v1178h151z" />
    <glyph glyph-name="k" unicode="k" horiz-adv-x="1032" 
d="M569 643l381 -643h-176l-311 535l-187 -187v-348h-151v1425h151v-878l482 471h184z" />
    <glyph glyph-name="l" unicode="l" horiz-adv-x="434" 
d="M313 1425v-1425h-149v1425h149z" />
    <glyph glyph-name="m" unicode="m" horiz-adv-x="1616" 
d="M129 1018h150v-160q32 48 71.5 81.5t81.5 55t84.5 31.5t81.5 10q38 0 74.5 -10t70.5 -32t65.5 -57.5t59.5 -86.5q29 50 68 85.5t83 58.5t90 33.5t89 10.5q70 0 128.5 -23.5t101 -65t66.5 -98t24 -122.5v-729h-150v686q0 64 -18 105.5t-47 66.5t-64.5 35t-71.5 10
q-47 0 -94.5 -21t-85.5 -58t-62 -87.5t-24 -109.5v-627h-149v686q0 64 -18.5 105.5t-46.5 66.5t-61.5 35t-64.5 10q-59 0 -110.5 -27.5t-89.5 -70t-60 -93t-22 -96.5v-616h-150v1018z" />
    <glyph glyph-name="n" unicode="n" horiz-adv-x="1030" 
d="M125 1018h151v-154q79 91 171 131.5t188 40.5q72 0 128.5 -21t96 -60.5t60 -96t20.5 -127.5v-731h-149v713q0 52 -12.5 88.5t-36.5 59t-58.5 32.5t-77.5 10q-69 0 -129 -24.5t-105 -65t-70.5 -93t-25.5 -108.5v-612h-151v1018z" />
    <glyph glyph-name="o" unicode="o" horiz-adv-x="1143" 
d="M127 508q0 109 30.5 205t89 168t144.5 113.5t197 41.5t198 -41.5t146 -113.5t90 -168t31 -205t-31 -205t-90 -167t-146 -112.5t-198 -41.5t-197 41.5t-144.5 112.5t-89 167t-30.5 205zM276 508q0 -81 21.5 -153t62 -125t98.5 -84t130 -31t130 31t98.5 84t62.5 125t22 153
t-22 153t-62.5 126t-98.5 85t-130 31t-130 -31t-98.5 -85t-62 -126t-21.5 -153z" />
    <glyph glyph-name="p" unicode="p" horiz-adv-x="1106" 
d="M127 1018h149v-154q26 42 62 75t76.5 55.5t83 34t82.5 11.5q103 0 184.5 -41.5t137 -113t85 -167.5t29.5 -206t-28.5 -206.5t-84 -168.5t-136 -113.5t-183.5 -41.5q-39 0 -82 11t-84 32.5t-77.5 54t-64.5 74.5v-572h-149v1436zM276 496q2 -79 24.5 -148.5t61.5 -121
t92.5 -81.5t118.5 -30q66 0 120 31t92 85t58.5 126.5t20.5 154.5t-20.5 154t-58.5 125.5t-92 84.5t-120 31t-120.5 -31t-94 -84.5t-61 -125.5t-21.5 -154v-16z" />
    <glyph glyph-name="q" unicode="q" horiz-adv-x="1106" 
d="M864 512q0 82 -21.5 154t-60.5 125.5t-93.5 84.5t-121.5 31q-66 0 -119.5 -31t-92 -84.5t-59 -125.5t-20.5 -154t20.5 -154.5t59 -126.5t92 -85t119.5 -31q65 0 119 30t93 81.5t61 121t24 148.5v16zM1016 -418h-152v572q-27 -42 -64 -74.5t-77.5 -54t-83.5 -32.5t-82 -11
q-104 0 -184 41.5t-134.5 113.5t-83 168.5t-28.5 206.5t29 206t84.5 167.5t136 113t184.5 41.5q40 0 82.5 -11.5t83 -34t76 -55.5t61.5 -75v154h152v-1436z" />
    <glyph glyph-name="r" unicode="r" horiz-adv-x="635" 
d="M125 1018h149l-6 -156q47 85 111.5 129.5t150.5 44.5q16 0 35.5 -3t34.5 -9v-154q-48 17 -74 17q-60 0 -106.5 -22.5t-79 -60t-49.5 -87t-17 -103.5v-614h-149v1018z" />
    <glyph glyph-name="s" unicode="s" horiz-adv-x="1010" 
d="M281 315q1 -56 19.5 -95t49.5 -63t73.5 -35t92.5 -11q41 0 85.5 7.5t82 25.5t62 49t24.5 79q0 43 -26 74t-69 54.5t-97.5 42t-111.5 39t-111.5 44.5t-97.5 57.5t-69 79t-26 109.5q0 67 29.5 117t78.5 82.5t113 48.5t133 16q78 0 145.5 -16.5t117.5 -50.5t79.5 -86.5
t32.5 -124.5q-19 0 -42 1t-38 1h-72q-5 41 -24.5 68.5t-49 44t-68 23.5t-81.5 7q-99 0 -151 -36.5t-52 -96.5q0 -40 26 -69.5t69 -52.5t97.5 -43t112 -40.5t112 -44.5t97.5 -56t69 -74.5t26 -100.5q0 -83 -33 -141.5t-88.5 -96t-129.5 -54.5t-155 -17q-78 0 -148 20.5
t-123 62.5t-85 105t-35 147h156z" />
    <glyph glyph-name="t" unicode="t" horiz-adv-x="623" 
d="M356 1321v-303h158v-129h-158v-660q0 -34 8.5 -56.5t23.5 -36t35.5 -19.5t45.5 -6q15 0 31.5 1.5t38.5 6.5v-123q-28 -8 -61.5 -12t-67.5 -4q-41 0 -78 10.5t-65.5 34t-45 60.5t-16.5 91v713h-158v129h158v303h151z" />
    <glyph glyph-name="u" unicode="u" horiz-adv-x="1030" 
d="M940 18h-149v154q-79 -91 -171.5 -131.5t-189.5 -40.5q-71 0 -127.5 21t-96 61t-60.5 96t-21 127v731h151v-712q0 -53 12.5 -89t36.5 -59t58.5 -33t77.5 -10q68 0 128 24.5t105 65t71 93t26 108.5v612h149v-1018z" />
    <glyph glyph-name="v" unicode="v" horiz-adv-x="922" 
d="M453 178l301 840h159l-374 -1018h-164l-377 1018h162z" />
    <glyph glyph-name="w" unicode="w" horiz-adv-x="1391" 
d="M688 848l-235 -848h-158l-293 1018h154l219 -832l229 832h168l223 -832l226 832h153l-291 -1018h-159z" />
    <glyph glyph-name="x" unicode="x" horiz-adv-x="926" 
d="M549 508l352 -508h-182l-260 377l-262 -377h-183l355 508l-353 510h181l262 -377l260 377h182z" />
    <glyph glyph-name="y" unicode="y" horiz-adv-x="905" 
d="M451 188l286 830h158l-438 -1243q-21 -60 -49 -101.5t-59 -68t-63.5 -38t-62.5 -11.5q-28 0 -54.5 3.5t-55.5 14.5v131q15 -6 40 -13t50 -7q27 0 47.5 16.5t36.5 40.5t27 50.5t18 47.5l47 148l-381 1030h164z" />
    <glyph glyph-name="z" unicode="z" horiz-adv-x="1030" 
d="M940 1018v-144l-618 -737h618v-137h-815v131l610 741h-610v146h815z" />
    <glyph glyph-name="braceleft" unicode="{" horiz-adv-x="621" 
d="M457 844q0 -34 -13 -68.5t-36 -64t-55 -50.5t-70 -28q37 -9 68.5 -30t55 -49.5t37 -62t13.5 -65.5v-504q0 -49 31.5 -70.5t82.5 -21.5q11 0 32 5.5t46 14.5v-116q-31 -19 -66.5 -29t-60.5 -10q-51 0 -91 15t-68 41.5t-43 63t-15 79.5v475q0 29 -4.5 63.5t-19 64.5t-41 50
t-70.5 20h-45v133h45q44 0 70.5 20.5t41 50.5t19 64.5t4.5 63.5v477q0 42 15 78.5t43 63.5t68 42t91 15q25 0 60.5 -10t66.5 -29v-119q-25 11 -46 17t-32 6q-51 0 -82.5 -22t-31.5 -70v-504v0z" />
    <glyph glyph-name="bar" unicode="|" horiz-adv-x="371" 
d="M250 1624v-1905h-121v1905h121z" />
    <glyph glyph-name="braceright" unicode="}" horiz-adv-x="584" 
d="M168 426q0 32 13 65.5t36 62t54.5 49.5t68.5 30q-38 7 -69.5 28t-54 50.5t-35.5 64t-13 68.5v504q0 48 -32 70t-83 22q-11 0 -32 -6t-46 -17v119q31 19 66 29t61 10q51 0 91.5 -15t68 -42t42.5 -63.5t15 -78.5v-477q0 -29 5 -63.5t19.5 -64.5t41 -50.5t70.5 -20.5h45
v-133h-45q-44 0 -70.5 -20t-41 -50t-19.5 -64.5t-5 -63.5v-475q0 -43 -15 -79.5t-42.5 -63t-68 -41.5t-91.5 -15q-26 0 -61 10t-66 29v116q25 -9 46 -14.5t32 -5.5q51 0 83 21.5t32 70.5v504v0z" />
    <glyph glyph-name="asciitilde" unicode="~" horiz-adv-x="1266" 
d="M1198 831q-3 -101 -28 -180t-68 -133.5t-101.5 -83t-128.5 -28.5q-53 0 -92 15t-69 39t-53.5 54.5t-45.5 60.5q-21 33 -43 63t-47.5 53t-56.5 36.5t-70 13.5q-57 0 -97.5 -29.5t-67 -74.5t-40 -98t-14.5 -101h-115q2 85 23.5 163.5t63 138.5t103.5 96t144 36
q67 0 116 -18t85.5 -46.5t64 -64.5t52.5 -71q21 -30 40 -54.5t39 -42t43 -27t52 -9.5q37 0 71 22t60.5 61t43 92.5t19.5 116.5h117z" />
    <glyph glyph-name="quoteleft" unicode="&#x2018;" horiz-adv-x="410" 
d="M123 893v258q0 103 55.5 170.5t151.5 89.5v-113q-29 -8 -46.5 -21.5t-28 -32t-14 -42t-3.5 -51.5v-29h92v-229h-207z" />
    <glyph glyph-name="NBSPACE" unicode="&#xa0;" horiz-adv-x="675" 
 />
    <glyph glyph-name="copyright" unicode="&#xa9;" horiz-adv-x="1579" 
d="M129 659q0 140 53 263t145 215t215 145t263 53t263 -53t215 -145t145 -215t53 -263q0 -94 -24 -180.5t-68 -161.5t-106 -137t-137 -106t-161.5 -68t-179.5 -24t-179.5 24t-161.5 68t-137 106t-106 137t-68 162t-24 180zM223 659q0 -120 45.5 -226.5t124.5 -185.5
t185 -125t227 -46q120 0 226 46t185 125t124.5 185.5t45.5 226.5t-45.5 226t-124.5 185t-185 125t-226 46q-121 0 -227 -46t-185 -125t-124.5 -185t-45.5 -226zM555 657q0 -68 16 -123t48 -94t81 -60.5t115 -21.5q75 0 127 40t84 106l88 -31q-20 -45 -48.5 -83.5t-66 -66.5
t-83.5 -43.5t-101 -15.5q-85 0 -151.5 28.5t-112 80.5t-69 124.5t-23.5 159.5t23.5 159t69 124t112 80.5t151.5 28.5q55 0 101 -15.5t83.5 -43t66 -66t48.5 -84.5l-88 -31q-32 66 -84 105.5t-127 39.5q-66 0 -115 -22t-81 -61.5t-48 -94t-16 -119.5z" />
    <glyph glyph-name="uni2219" unicode="&#x2219;" horiz-adv-x="410" 
d="M330 713v-232h-207v232h207z" />
    <glyph glyph-name="onequarter" unicode="&#xbc;" horiz-adv-x="1675" 
d="M420 618v627q-23 -37 -53 -61t-66.5 -38.5t-79.5 -20t-92 -5.5v103q75 0 128.5 25t89 60.5t53.5 74t22 65.5h133v-830h-135zM686 -39h-139l469 1487h135zM1315 0v195h-381v129l387 493h129v-512h127v-110h-127v-195h-135zM1069 305h246v320z" />
    <glyph glyph-name="onehalf" unicode="&#xbd;" horiz-adv-x="1665" 
d="M621 -39h-140l471 1487h135zM963 516q0 72 20 129t59.5 97t97.5 61.5t134 21.5q70 0 124.5 -21.5t92 -57.5t57 -82.5t19.5 -96.5q0 -40 -13.5 -72.5t-35.5 -60t-50.5 -50t-58.5 -42.5q-19 -14 -48 -29l-58 -30q-15 -9 -34 -18.5t-38.5 -20.5t-38.5 -23.5t-35 -25.5
q-17 -13 -28 -26t-19 -30h457v-139h-639q8 90 36.5 152.5t76 110t113.5 85.5t149 80q21 11 40 27.5t33.5 36t22.5 41.5t8 45q0 34 -11.5 56t-31.5 35.5t-47.5 19t-59.5 5.5q-81 0 -121 -49.5t-40 -128.5h-133zM420 618v627q-23 -37 -53 -61t-66.5 -38.5t-79.5 -20t-92 -5.5
v103q75 0 128.5 25t89 60.5t53.5 74t22 65.5h133v-830h-135z" />
    <glyph glyph-name="threequarters" unicode="&#xbe;" horiz-adv-x="1686" 
d="M158 1178q7 63 26.5 113t55.5 85t89 53.5t126 18.5q63 0 114.5 -16t87.5 -45.5t56 -70.5t20 -91q0 -60 -27.5 -101.5t-76.5 -66.5q28 -12 54 -29t46 -41.5t31.5 -57.5t11.5 -75q0 -61 -25.5 -107t-68.5 -77.5t-101 -47.5t-122 -16q-81 0 -137.5 18.5t-95 54.5t-61 89
t-34.5 123h147q9 -48 24.5 -78t38 -47t52.5 -23t68 -6q34 0 64.5 6.5t53.5 20.5t36.5 36t13.5 54q0 59 -45 95t-123 36h-84v123h82q36 0 61 9.5t40.5 25.5t22.5 36t7 40q0 52 -36.5 74t-96.5 22q-76 0 -110.5 -36t-45.5 -101h-139zM727 -39h-139l471 1487h135zM1325 0v195
h-381v129l387 493h129v-512h127v-110h-127v-195h-135zM1079 305h246v320z" />
    <glyph glyph-name="ZWSP.visible" horiz-adv-x="1857" 
d="M1034 279h-87v427h202q27 0 49.5 -10t38.5 -28.5t25 -44.5t9 -57q0 -63 -39.5 -100t-106.5 -37h-91v-150zM1036 506h76q28 0 48 18.5t20 44.5q0 25 -19.5 43.5t-43.5 18.5h-81v-125zM705 842h-329v90l211 260h-211v80h327v-80l-223 -273h225v-77zM1220 842h-93l-61 312
l-67 -313h-86l-119 431h92l74 -304l58 305h92l62 -297l77 295h91zM406 411h86q9 -30 30 -50.5t56 -20.5q38 0 66 17.5t28 47.5q0 40 -113 55q-33 4 -60.5 15t-47 27t-30 36t-10.5 43q0 30 12 55t33 43.5t50.5 28.5t64.5 10q47 0 78 -10.5t50.5 -29t30.5 -43t17 -52.5h-89
q-15 36 -30 48t-48 12q-80 0 -80 -47q0 -48 96 -61q165 -24 165 -136q0 -32 -16 -58.5t-42 -45t-59 -29t-66 -10.5q-38 0 -67.5 13t-50.5 35t-34.5 49.5t-19.5 57.5zM1390 -2h-188v62h189zM123 262h-62v191l63 3zM125 547h-64v191h64v-191zM125 832h-65v189h63zM125 1119
h-65v190h65v-190zM125 1401h-64v162h160l-2 -61h-91zM315 1501v63h192v-63h-192zM604 1499v63h192l-2 -61zM905 1500v62h193v-64zM1206 1499v64h191v-65zM1497 1561h161v-166h-63v103h-99zM1657 1310v-195h-62v194zM1657 1017v-190h-63v191zM1656 734v-190h-62v192z
M1655 450v-191h-60v190zM1654 0h-162v59h102v96h61zM1093 -1h-191v59h191v-59zM792 0h-192v62h191zM502 -1h-193v62h194zM215 0h-154v161l63 -3v-95h92z" />
    <glyph glyph-name="ZWNJ.visible" 
d="M-56 -32v1732h112v-1732h-112z" />
    <glyph glyph-name="ZWJ.visible" 
d="M387 1928l77 -93l-365 -245l365 -232q-16 -24 -26.5 -43t-24.5 -45l-359 228v-1530h-104v1530q-39 -23 -82.5 -50t-88.5 -55t-89 -55t-84 -51q-19 23 -33.5 45t-30.5 43l352 224l-360 243l81 88l385 -267z" />
    <glyph glyph-name="ZWSP" unicode="&#x200b;" 
 />
    <glyph glyph-name="ori_chandra" unicode="&#xb01;" 
d="M-377 1432q0 33 23.5 56t56.5 23t56.5 -23t23.5 -56t-23.5 -55.5t-56.5 -22.5t-56.5 22.5t-23.5 55.5zM-297 1154q-50 0 -88.5 15.5t-68 38t-51 48.5t-36.5 48l66 51q31 -45 74 -78t104 -33q30 0 54.5 8t45.5 22.5t40 35t38 45.5l66 -51q-16 -25 -37 -51.5t-50.5 -48.5
t-67.5 -36t-89 -14z" />
    <glyph glyph-name="ori_anuswara" unicode="&#xb02;" horiz-adv-x="420" 
d="M55 969q0 33 12.5 62t34.5 50.5t51 34t62 12.5t62 -12.5t51 -34t34.5 -50.5t12.5 -62t-12.5 -62t-34.5 -50t-51 -33.5t-62 -12.5t-62 12.5t-51 33.5t-34.5 50t-12.5 62zM135 969q0 -33 23.5 -55.5t56.5 -22.5t56.5 22.5t23.5 55.5t-23.5 56t-56.5 23t-56.5 -23t-23.5 -56
z" />
    <glyph glyph-name="ori_visarga" unicode="&#xb03;" horiz-adv-x="760" 
d="M370 507q-29 -20 -64 -47t-65 -60t-50.5 -70.5t-20.5 -79.5t18.5 -72.5t47.5 -50t64.5 -28.5t69.5 -9t69.5 9t64.5 28.5t47.5 50t18.5 72.5t-20.5 79.5t-50.5 70.5t-65 60t-64 47zM304 559q-110 76 -167 150.5t-57 154.5q0 61 22.5 108t62 79.5t92.5 49.5t113 17t113 -17
t92.5 -49.5t62 -79.5t22.5 -108q0 -80 -57 -154.5t-167 -150.5q110 -76 167 -150.5t57 -154.5q0 -61 -22.5 -108t-62 -79.5t-92.5 -49.5t-113 -17t-113 17t-92.5 49.5t-62 79.5t-22.5 108q0 80 57 154.5t167 150.5zM370 611q29 20 64 47t65 60t50.5 70.5t20.5 79.5
t-18.5 72.5t-47.5 50t-64.5 28.5t-69.5 9t-69.5 -9t-64.5 -28.5t-47.5 -50t-18.5 -72.5t20.5 -79.5t50.5 -70.5t65 -60t64 -47z" />
    <glyph glyph-name="ori_a" unicode="&#xb05;" horiz-adv-x="1330" 
d="M1130 0v348q-18 -30 -48 -67.5t-71 -77.5t-93 -78t-114 -68t-134.5 -48.5t-153.5 -18.5q-74 0 -151 17.5t-140.5 55.5t-104 98t-40.5 145q0 79 33 132.5t87.5 90t124 60.5t141.5 44t141.5 41t124 51.5t87.5 74.5t33 111q0 28 -11 50t-29 37t-42 22.5t-51 7.5
q-31 0 -59 -11t-49 -32t-33 -52.5t-12 -71.5v-32h-100v33q0 74 -39.5 120t-120.5 46q-45 0 -75.5 -25t-30.5 -69q0 -35 22.5 -61.5t50.5 -43.5l-53 -86q-18 13 -39 30.5t-39 41.5t-30 55t-12 70q0 49 19 84.5t48 58.5t64.5 34t67.5 11q37 0 68.5 -6.5t58 -21.5t49 -40
t41.5 -63q19 37 42.5 62.5t50 40.5t55 21.5t55.5 6.5q55 0 98.5 -16t73.5 -45t45.5 -68.5t15.5 -87.5q0 -65 -21.5 -114t-58 -86.5t-85 -64.5t-103.5 -48t-113 -38t-113 -34t-103.5 -36.5t-85 -45t-58 -59.5t-21.5 -80q0 -58 28.5 -99t75 -66.5t105 -37.5t117.5 -12
q66 0 141 18t154 66t160 132t159 216v596h100v-1118h-100z" />
    <glyph glyph-name="ori_i" unicode="&#xb07;" horiz-adv-x="1398" 
d="M178 276v12q-44 61 -71 137.5t-27 158.5q0 118 46 217.5t128 172t194.5 113.5t245.5 41q89 0 168 -23t146 -64t121 -96.5t91.5 -121.5t57.5 -139t20 -148q0 -42 -9 -91t-25.5 -99t-39 -98.5t-48.5 -89.5l174 -265l-82 -59l-211 335q65 92 103 184.5t38 189.5
q0 95 -38 183t-105.5 155t-160 107t-200.5 40t-202 -34.5t-163.5 -94.5t-109 -141t-39.5 -174q0 -82 33 -157q31 61 84 98.5t117 37.5q57 0 106 -30.5t81 -81.5q32 51 80.5 81.5t106.5 30.5q49 0 92 -22.5t75.5 -61.5t51 -91.5t18.5 -111.5t-18.5 -111t-51 -91t-75.5 -61.5
t-92 -22.5q-58 0 -106.5 30t-80.5 81q-32 -51 -81 -81t-106 -30q-49 0 -92 22.5t-75 61.5t-50.5 91t-18.5 111zM651 276q0 -39 10.5 -72.5t29.5 -59t43.5 -40t53.5 -14.5q28 0 53.5 14.5t44 40t29.5 59t11 72.5t-11 73t-29.5 59.5t-44 40t-53.5 14.5q-29 0 -53.5 -14.5
t-43.5 -40t-29.5 -59.5t-10.5 -73zM277 276q0 -39 10.5 -72.5t29.5 -59t43.5 -40t53.5 -14.5q28 0 53.5 14.5t44 40t29.5 59t11 72.5t-11 73t-29.5 59.5t-44 40t-53.5 14.5q-29 0 -53.5 -14.5t-43.5 -40t-29.5 -59.5t-10.5 -73z" />
    <glyph glyph-name="ori_ii" unicode="&#xb08;" horiz-adv-x="1437" 
d="M451 563q57 0 106 -30.5t81 -81.5q32 51 80.5 81.5t106.5 30.5q49 0 92 -22.5t75.5 -61.5t51 -91.5t18.5 -111.5t-18.5 -111t-51 -91t-75.5 -61.5t-92 -22.5q-58 0 -106.5 30t-80.5 81q-32 -51 -81 -81t-106 -30q-48 0 -90.5 21.5t-74.5 59t-51 88t-20 107.5
q-44 31 -71 63.5t-41 64.5t-18.5 62.5t-4.5 57.5q0 60 23 106t58 77.5t76.5 49t79.5 21.5q-11 7 -25 19t-26 28.5t-20.5 37t-8.5 43.5q0 66 40.5 110.5t105.5 71.5t145 38.5t160 11.5q97 0 182.5 -23t156 -64t126 -96.5t94 -121.5t58.5 -139t20 -148q0 -42 -9 -91t-25.5 -99
t-39 -98.5t-48.5 -89.5l174 -265l-82 -59l-211 335q65 92 103 184.5t38 189.5q0 95 -38.5 183t-109 155t-169.5 107t-220 40q-60 0 -122.5 -6.5t-113.5 -21.5t-83.5 -39.5t-32.5 -59.5q0 -20 10.5 -40.5t35 -38.5t65 -32t101.5 -21l-18 -94q-28 8 -56.5 12t-56.5 4
q-47 0 -90 -11.5t-75.5 -34.5t-52 -57.5t-19.5 -81.5q0 -42 15 -73t36 -53q13 40 34.5 73.5t50 58t63 38t72.5 13.5zM688 276q0 -39 10.5 -72.5t29.5 -59t43.5 -40t53.5 -14.5q28 0 53.5 14.5t44 40t29.5 59t11 72.5t-11 73t-29.5 59.5t-44 40t-53.5 14.5t-52.5 -14
t-43 -38.5t-29.5 -57.5t-12 -70v-7zM314 276q0 -39 10.5 -72.5t29.5 -59t43.5 -40t53.5 -14.5q28 0 52.5 14t43 38t30 56.5t12.5 69.5v8q0 39 -11 73t-29.5 59.5t-44 40t-53.5 14.5q-29 0 -53.5 -14.5t-43.5 -40t-29.5 -59.5t-10.5 -73z" />
    <glyph glyph-name="ori_aa" unicode="&#xb06;" horiz-adv-x="1610" 
d="M1130 0v348q-18 -30 -48 -67.5t-71 -77.5t-93 -78t-114 -68t-134.5 -48.5t-153.5 -18.5q-74 0 -151 17.5t-140.5 55.5t-104 98t-40.5 145q0 79 33 132.5t87.5 90t124 60.5t141.5 44t141.5 41t124 51.5t87.5 74.5t33 111q0 28 -11 50t-29 37t-42 22.5t-51 7.5
q-31 0 -59 -11t-49 -32t-33 -52.5t-12 -71.5v-32h-100v33q0 74 -39.5 120t-120.5 46q-45 0 -75.5 -25t-30.5 -69q0 -35 22.5 -61.5t50.5 -43.5l-53 -86q-18 13 -39 30.5t-39 41.5t-30 55t-12 70q0 49 19 84.5t48 58.5t64.5 34t67.5 11q37 0 68.5 -6.5t58 -21.5t49 -40
t41.5 -63q19 37 42.5 62.5t50 40.5t55 21.5t55.5 6.5q55 0 98.5 -16t73.5 -45t45.5 -68.5t15.5 -87.5q0 -65 -21.5 -114t-58 -86.5t-85 -64.5t-103.5 -48t-113 -38t-113 -34t-103.5 -36.5t-85 -45t-58 -59.5t-21.5 -80q0 -58 28.5 -99t75 -66.5t105 -37.5t117.5 -12
q66 0 141 18t154 66t160 132t159 216v596h100v-1118h-100zM1410 1118h100v-1118h-100v1118z" />
    <glyph glyph-name="ori_tha" unicode="&#xb25;" horiz-adv-x="1173" 
d="M356 764l-56 -81q-22 17 -43.5 37t-38.5 45.5t-27.5 57t-10.5 71.5q0 55 22.5 98.5t61 73.5t89.5 46t108 16q72 0 128.5 -22t95.5 -59t59.5 -84.5t20.5 -98.5q0 -79 -24.5 -136t-65 -99t-92.5 -72t-105.5 -54.5t-105.5 -46.5t-92.5 -48t-65 -58.5t-24.5 -78.5
q0 -39 19 -72t50.5 -57t72.5 -38t86 -14q158 0 296.5 108t258.5 314v606h100v-1118h-100v338q-16 -24 -42 -59t-63 -74t-84 -77t-103.5 -69t-122.5 -50t-141 -19q-76 0 -138 21.5t-106.5 59.5t-68.5 90t-24 114q0 67 25 114t66.5 81t94 58.5t107 46.5t107 45.5t94 56.5
t66.5 78t25 110q0 33 -13.5 63t-38.5 52t-61 35t-80 13q-89 0 -140.5 -36.5t-51.5 -96.5q0 -28 8.5 -50t20.5 -38t25 -26.5t22 -16.5z" />
    <glyph glyph-name="ori_ttha" unicode="&#xb20;" horiz-adv-x="1348" 
d="M80 558q0 118 41.5 221.5t117.5 181t184 122.5t241 45t241 -45t184 -122.5t117.5 -181t41.5 -221.5t-41.5 -221.5t-117.5 -180.5t-184 -121.5t-241 -44.5t-241 44.5t-184 121.5t-117.5 180.5t-41.5 221.5zM180 558q0 -93 35 -178t98.5 -149.5t153 -102.5t197.5 -38
t197.5 38t153 102.5t98.5 149.5t35 178t-35 178t-98.5 150t-153 103.5t-197.5 38.5t-197.5 -38.5t-153 -103.5t-98.5 -150t-35 -178z" />
    <glyph glyph-name="ori_u" unicode="&#xb09;" horiz-adv-x="1438" 
d="M689 1128q89 0 168 -23t146 -64t121 -96.5t91.5 -121.5t57.5 -139t20 -148q0 -42 -9 -91t-25.5 -99t-39 -98.5t-48.5 -89.5l174 -265l-82 -59l-211 335q65 92 103 184.5t38 189.5q0 95 -38 183t-105.5 155t-160 107t-200.5 40q-110 0 -203.5 -30t-161.5 -84.5t-106 -131
t-38 -169.5q0 -64 22 -118t60 -100q16 100 87.5 167t178.5 105l40 -82q-44 -15 -82 -37.5t-66.5 -52.5t-45 -68t-16.5 -85q0 -68 26 -116t65 -78t85.5 -44t88.5 -14q43 0 89 12t83 37.5t61 65t24 95.5q0 35 -12 64.5t-32 53t-46 40t-54 25.5l-140 -127l-66 72l350 311
l64 -68l-135 -122q38 -17 69.5 -44.5t54 -62t35 -74t12.5 -79.5q0 -64 -25.5 -118.5t-72.5 -94.5t-113.5 -63t-148.5 -23q-59 0 -114 17t-101.5 48.5t-81 77.5t-51.5 105q-88 67 -140 161.5t-52 213.5q0 118 44 213t124 162t192 103.5t249 36.5z" />
    <glyph glyph-name="ori_uu" unicode="&#xb0a;" horiz-adv-x="1433" 
d="M596 356l-66 72l350 311l64 -68l-135 -122q38 -17 69.5 -44.5t54 -62t35 -74t12.5 -79.5q0 -64 -25.5 -118.5t-72.5 -94.5t-113.5 -63t-148.5 -23q-59 0 -114 17t-101.5 48.5t-81 77.5t-51.5 105q-88 67 -140 161.5t-52 213.5q0 118 44 213t123.5 162t191.5 103.5
t249 36.5q114 0 217.5 -32t182.5 -92t126 -145.5t47 -191.5q0 -41 -8.5 -75t-23.5 -63t-34.5 -53.5t-41.5 -45.5q48 -12 77.5 -33t46 -44.5t22.5 -47.5t6 -42q0 -21 -4 -43t-17.5 -43.5t-38 -43.5t-64.5 -43l152 -206l-82 -59l-221 265l48 63q26 5 49 13.5t40.5 21t27.5 30
t10 39.5q0 46 -36 73t-112 27l-20 100q69 52 96.5 105t27.5 106q0 55 -20 103t-54.5 88t-80.5 71.5t-98.5 53t-108.5 33t-111 11.5q-110 0 -203.5 -30t-161 -84.5t-105.5 -131t-38 -169.5q0 -64 22 -118t60 -100q16 100 87.5 167t178.5 105l40 -82q-44 -15 -82 -37.5
t-66.5 -52.5t-45 -68t-16.5 -85q0 -68 26 -116t65 -78t85.5 -44t88.5 -14q43 0 89 12t83 37.5t61 65t24 95.5q0 35 -12 64.5t-32 53t-46 40t-54 25.5z" />
    <glyph glyph-name="ori_ri" unicode="&#xb0b;" horiz-adv-x="1433" 
d="M1078 153q26 5 49 13.5t40.5 21t27.5 30t10 39.5q0 46 -36 73t-112 27l-20 100q33 15 59.5 39t45 53t29 61t10.5 62q0 58 -21.5 106.5t-58 88.5t-85 70t-103 50t-112.5 30.5t-112 10.5q-110 0 -203.5 -30t-161.5 -84.5t-106 -131t-38 -169.5q0 -88 40.5 -158t104.5 -124
q10 49 37 91.5t66.5 74t90 49t108.5 17.5q66 0 122 -22.5t97 -61.5t64.5 -91.5t23.5 -111.5t-23.5 -111t-64.5 -91t-97 -61.5t-122 -22.5q-54 0 -102.5 15.5t-87 43.5t-66 66t-40.5 83q-56 33 -102 76.5t-79 95.5t-51.5 113t-18.5 130q0 118 44 213t124 162t192 103.5
t249 36.5q114 0 220.5 -31.5t189 -91t132.5 -144t50 -190.5q0 -41 -10 -77t-27 -66.5t-40.5 -55t-50.5 -42.5q48 -12 77.5 -33t46 -44.5t22.5 -47.5t6 -42q0 -21 -4 -43t-17.5 -43.5t-38 -43.5t-64.5 -43l152 -206l-82 -59l-221 265zM420 276q0 -39 15.5 -72.5t43 -59
t65.5 -40t83 -14.5t83 14.5t65.5 40t43 59t15.5 72.5t-15.5 73t-43 59.5t-65.5 40t-83 14.5t-83 -14.5t-65.5 -40t-43 -59.5t-15.5 -73z" />
    <glyph glyph-name="ori_li" unicode="&#xb0c;" horiz-adv-x="992" 
d="M384 271q0 49 20 89.5t54.5 68.5t80.5 43.5t99 15.5q52 0 98.5 -17t81 -47.5t54.5 -72t20 -89.5q0 -50 -17.5 -89t-48 -69.5t-70.5 -52t-85 -35t-92.5 -20t-92.5 -6.5q-95 0 -170 26t-127.5 71t-80.5 106t-28 130q0 76 26 130.5t68.5 94t97 66.5t111 49t111 42.5t97 45.5
t68.5 58.5t26 81.5q0 30 -15 55t-42 43.5t-64.5 28.5t-82.5 10q-48 0 -85.5 -10t-63 -27.5t-39 -40.5t-13.5 -50q0 -21 7 -38t17.5 -30t21.5 -22.5t20 -15.5l-56 -81q-14 10 -33 26.5t-36 40t-29 54.5t-12 71q0 54 25.5 95.5t68.5 70t100.5 43t121.5 14.5q67 0 122.5 -19.5
t95 -52.5t61 -76t21.5 -91q0 -64 -26 -109.5t-68.5 -78t-97 -56.5t-111.5 -45.5t-111.5 -44.5t-97 -54t-68.5 -74t-26 -104q0 -52 23.5 -95t66.5 -73.5t102.5 -47.5t131.5 -17q-23 10 -46.5 27.5t-42 41t-30 52t-11.5 60.5zM484 262q0 -27 12 -50t33 -39.5t49 -25.5t60 -9
t60 9t49 25.5t33 39.5t12 50t-12 50.5t-33 40t-49 26t-60 9.5t-60 -9.5t-49 -26t-33 -40t-12 -50.5z" />
    <glyph glyph-name="ori_e" unicode="&#xb0f;" horiz-adv-x="1115" 
d="M486 689q0 61 22 116.5t59.5 103.5t86 86.5t101.5 65.5t106 42t100 15h54v-1118h-100q-143 25 -280 101.5t-250.5 196.5t-194 280.5t-110.5 355.5l99 32q15 -130 54.5 -239.5t97 -200.5t128 -163t147 -125t156 -87.5t153.5 -50.5v918q-49 -9 -95.5 -31.5t-87 -56
t-72.5 -76.5t-51 -92q21 -2 38.5 -10.5t31 -22t21 -30.5t7.5 -36q0 -21 -8 -39t-22.5 -31.5t-34 -21.5t-42.5 -8q-20 0 -40.5 8t-37 24t-26.5 39.5t-10 54.5z" />
    <glyph glyph-name="ori_ai" unicode="&#xb10;" horiz-adv-x="1446" 
d="M915 1018q-49 -9 -95.5 -31.5t-87 -56t-72.5 -76.5t-51 -92q21 -2 38.5 -10.5t31 -22t21 -30.5t7.5 -36q0 -21 -8 -39t-22.5 -31.5t-34 -21.5t-42.5 -8q-20 0 -40.5 8t-37 24t-26.5 39.5t-10 54.5q0 61 22 116.5t59.5 103.5t86 86.5t101.5 65.5t106 42t100 15h54v-578
q39 -27 85 -27q28 0 57 12t58 38v565q40 30 70 70t30 96q0 37 -15.5 64.5t-40.5 45.5t-56 27t-61 9q-53 0 -103.5 -14t-99.5 -35.5t-97.5 -46t-98.5 -46t-102 -35.5t-108 -14q-109 0 -185.5 52.5t-129.5 138.5l73 66q16 -29 39.5 -57.5t54 -50.5t67.5 -35.5t81 -13.5
q47 0 95.5 14t99 35.5t102 46t103.5 46t104.5 35.5t104.5 14q56 0 106 -17.5t87 -49.5t58.5 -77.5t21.5 -102.5q0 -35 -7.5 -63t-21 -52.5t-32 -46t-39.5 -42.5v-1089h-100v469q-52 -47 -114 -47q-44 0 -86 23v-445h-100q-143 25 -280 101.5t-250.5 196.5t-194 280.5
t-110.5 355.5l99 32q15 -130 54.5 -239.5t97 -200.5t128 -163t147 -125t156 -87.5t153.5 -50.5v918z" />
    <glyph glyph-name="ori_au" unicode="&#xb14;" horiz-adv-x="1515" 
d="M1088 331q0 -87 -36.5 -151t-96 -106.5t-135.5 -63t-155 -20.5q-134 0 -242 48t-184 130.5t-117.5 192t-41.5 232.5q0 106 25 192.5t61.5 153t76.5 111.5t70 68l56 -90q-54 -48 -90.5 -101.5t-58.5 -110t-31 -113t-9 -110.5q0 -111 39.5 -203.5t106.5 -159t155 -103.5
t184 -37q65 0 123.5 16.5t103 47t70.5 75.5t26 102q0 40 -15.5 75.5t-46 62t-77 41.5t-108.5 15h-178l-37 100h145q45 0 91.5 15t84 42t61 65.5t23.5 85.5q0 45 -17 81.5t-45.5 61.5t-66.5 38.5t-81 13.5q-47 0 -85 -13t-65 -35t-42 -50t-15 -58q0 -32 10.5 -58t33.5 -52
l-93 -54q-29 39 -40 79.5t-11 76.5q0 61 25 110t67 83.5t97.5 52.5t115.5 18q64 0 121 -21t99.5 -59.5t67 -93.5t24.5 -122q0 -14 -1 -26.5t-3 -24.5q26 -26 52.5 -41t53.5 -23.5t55 -11t57 -2.5v425q40 30 70 70t30 96q0 37 -15.5 64.5t-40.5 45.5t-56 27t-61 9
q-53 0 -103.5 -14t-99.5 -35.5t-97.5 -46t-98.5 -46t-102 -35.5t-108 -14q-109 0 -185.5 52.5t-129.5 138.5l73 66q16 -29 39.5 -57.5t54 -50.5t67.5 -35.5t81 -13.5q47 0 95.5 14t99 35.5t102 46t103.5 46t104.5 35.5t104.5 14q56 0 106 -17.5t87 -49.5t58.5 -77.5
t21.5 -102.5q0 -35 -7.5 -63t-21 -52.5t-32 -46t-39.5 -42.5v-1089h-100v609q-30 0 -61.5 5t-63 16t-61.5 28.5t-56 42.5q-20 -39 -53.5 -67.5t-82.5 -43.5q101 -29 161 -95.5t60 -163.5z" />
    <glyph glyph-name="ori_o" unicode="&#xb13;" horiz-adv-x="1188" 
d="M1088 331q0 -87 -36.5 -151t-96 -106.5t-135.5 -63t-155 -20.5q-134 0 -242 48t-184 130.5t-117.5 192t-41.5 232.5q0 106 25 192.5t61.5 153t76.5 111.5t70 68l56 -90q-54 -48 -90.5 -101.5t-58.5 -110t-31 -113t-9 -110.5q0 -111 39.5 -203.5t106.5 -159t155 -103.5
t184 -37q65 0 123.5 16.5t103 47t70.5 75.5t26 102q0 40 -15.5 75.5t-46 62t-77 41.5t-108.5 15h-178l-37 100h145q45 0 91.5 15t84 42t61 65.5t23.5 85.5q0 45 -17 81.5t-45.5 61.5t-66.5 38.5t-81 13.5q-47 0 -85 -13t-65 -35t-42 -50t-15 -58q0 -32 10.5 -58t33.5 -52
l-93 -54q-29 39 -40 79.5t-11 76.5q0 61 25 110t67 83.5t97.5 52.5t115.5 18q64 0 121 -21t99.5 -59.5t67 -93.5t24.5 -122q0 -89 -40 -152.5t-124 -89.5q101 -29 161 -95.5t60 -163.5z" />
    <glyph glyph-name="ori_dda" unicode="&#xb21;" horiz-adv-x="1341" 
d="M880 300q0 35 -12 64.5t-32 53t-46 40t-54 25.5l-140 -127l-66 72l350 311l64 -68l-135 -122q38 -17 69.5 -44.5t54 -62t35 -74t12.5 -79.5q0 -64 -25.5 -118.5t-72.5 -94.5t-113.5 -63t-148.5 -23q-59 0 -114 17t-101.5 48.5t-81 77.5t-51.5 105q-88 67 -140 161.5
t-52 213.5q0 118 44.5 213t125.5 162t193.5 103.5t249.5 36.5q108 0 207 -33t174.5 -94t121 -147t45.5 -192q0 -38 -7 -77.5t-25.5 -78.5t-50 -77t-79.5 -73l-42 101q34 26 55 52.5t31.5 53t14 53t3.5 52.5q0 85 -39 151.5t-102 113t-143 71t-162 24.5q-113 0 -207.5 -30
t-163 -84.5t-106.5 -131t-38 -169.5q0 -64 22 -118t60 -100q16 100 87.5 167t178.5 105l40 -82q-44 -15 -82 -37.5t-66.5 -52.5t-45 -68t-16.5 -85q0 -68 26 -116t65 -78t85.5 -44t88.5 -14q43 0 89 12t83 37.5t61 65t24 95.5z" />
    <glyph glyph-name="ori_ta" unicode="&#xb24;" horiz-adv-x="1341" 
d="M1037 457q34 26 55 52.5t31.5 53t14 53t3.5 52.5q0 85 -39 151.5t-102 113t-143 71t-162 24.5q-113 0 -207.5 -30t-163 -84.5t-106.5 -131t-38 -169.5q0 -64 22 -118t60 -100q16 100 87.5 167t178.5 105l40 -82q-44 -15 -82 -37.5t-66.5 -52.5t-45 -68t-16.5 -85
q0 -68 26 -116t65 -78t85.5 -44t88.5 -14q43 0 89 12t83 37.5t61 65t24 95.5q0 25 -6.5 47t-17.5 42q-17 -22 -44.5 -35t-59.5 -13q-26 0 -49.5 9t-40.5 24t-27 35t-10 43t10 43t27.5 35t42 24t53.5 9q53 0 94.5 -27t70 -67.5t43 -89t14.5 -90.5q0 -64 -25.5 -118.5
t-72.5 -94.5t-113.5 -63t-148.5 -23q-59 0 -114 17t-101.5 48.5t-81 77.5t-51.5 105q-88 67 -140 161.5t-52 213.5q0 118 44.5 213t125.5 162t193.5 103.5t249.5 36.5q108 0 207 -33t174.5 -94t121 -147t45.5 -192q0 -38 -7 -77.5t-25.5 -78.5t-50 -77t-79.5 -73z" />
    <glyph glyph-name="ori_la" unicode="&#xb32;" horiz-adv-x="1388" 
d="M684 1128q89 0 168 -23t146 -64t121 -96.5t91.5 -121.5t57.5 -139t20 -148q0 -42 -9 -91t-25.5 -99t-39 -98.5t-48.5 -89.5l174 -265l-82 -59l-211 335q65 92 103 184.5t38 189.5q0 95 -38 183t-105.5 155t-160 107t-200.5 40t-200.5 -31t-159.5 -84t-105 -125.5
t-38 -154.5q0 -119 61 -200q23 63 76 99.5t121 36.5q48 0 90 -19.5t71 -54.5q29 35 71 54.5t91 19.5q44 0 82.5 -16t67.5 -44.5t45.5 -69.5t16.5 -90v-349h-100v349q0 25 -9 46.5t-24 38t-35.5 26t-43.5 9.5t-43 -9.5t-35 -25t-24 -36.5t-9 -44v-354h-100v349q0 25 -9 46.5
t-24 38t-35.5 26t-43.5 9.5t-43.5 -9.5t-35.5 -26t-23.5 -38t-8.5 -46.5v-349h-100v294q-71 62 -109 144t-38 186q0 108 44.5 200t124 159.5t190.5 106t244 38.5z" />
    <glyph glyph-name="ori_lla" unicode="&#xb33;" horiz-adv-x="1388" 
d="M1166 218l-82 73q45 52 74.5 121t29.5 144q0 96 -38.5 181.5t-106 150t-160 102.5t-200.5 38t-200.5 -31t-159.5 -84t-105 -125.5t-38 -154.5q0 -121 62 -201q23 63 76 100t121 37q48 0 90 -19.5t71 -54.5q29 35 71 54.5t91 19.5q44 0 82.5 -16t67.5 -44.5t45.5 -69.5
t16.5 -90v-349h-100v349q0 25 -9 46.5t-24 38t-35.5 26t-43.5 9.5t-43 -9.5t-35 -25t-24 -36.5t-9 -44v-354h-100v349q0 25 -9 46.5t-24 38t-35.5 26t-43.5 9.5t-43.5 -9.5t-35.5 -26t-23.5 -38t-8.5 -46.5v-349h-100v293q-72 62 -110 144.5t-38 186.5q0 108 44.5 200
t124 159.5t190.5 106t244 38.5q89 0 168 -21.5t146.5 -60t121 -92t91.5 -117t58 -135t20 -146.5q0 -84 -30.5 -172t-91.5 -166z" />
    <glyph glyph-name="ori_ka" unicode="&#xb15;" horiz-adv-x="1388" 
d="M1166 218l-82 73q45 52 74.5 121t29.5 144q0 96 -38.5 181.5t-106 150t-160 102.5t-200.5 38t-200.5 -31t-159.5 -84t-105 -125.5t-38 -154.5q0 -121 62 -201q23 63 75.5 100t121.5 37q48 0 90 -19.5t71 -54.5q29 35 71 54.5t91 19.5q44 0 82.5 -16t67.5 -44.5
t45.5 -69.5t16.5 -90v-349h-100v349q0 25 -9 46.5t-24 38t-35.5 26t-43.5 9.5t-43.5 -9.5t-35.5 -26t-23.5 -38t-8.5 -46.5v-349h-100v160q-25 -14 -53 -22t-59 -8q-74 0 -129.5 42t-74.5 114q-75 63 -115 147t-40 191q0 108 44.5 200t124 159.5t190.5 106t244 38.5
q89 0 168 -21.5t146.5 -60t121 -92t91.5 -117t58 -135t20 -146.5q0 -84 -30.5 -172t-91.5 -166zM551 349v5q-1 24 -10.5 44.5t-24.5 36.5t-35 25t-42 9q-23 0 -43.5 -9.5t-35.5 -26t-23.5 -38t-8.5 -46.5t8.5 -46.5t23.5 -37.5t35.5 -25.5t43.5 -9.5q22 0 42 9t35 24
t24.5 36t10.5 45v5z" />
    <glyph glyph-name="ori_nga" unicode="&#xb19;" horiz-adv-x="1493" 
d="M970 748q0 53 20 98q-30 33 -69.5 66t-87 58.5t-102 41.5t-115.5 16q-97 0 -177.5 -32t-138 -86.5t-89 -125.5t-31.5 -149q0 -81 21.5 -142t59.5 -106q14 104 86 173t181 107l40 -82q-44 -15 -82 -37.5t-66.5 -52.5t-45 -68t-16.5 -85q0 -68 26 -116t65 -78t85.5 -44
t88.5 -14q43 0 89 12t83 37.5t61 65t24 95.5q0 35 -12 64.5t-32 53t-45.5 40t-53.5 25.5l-141 -127l-66 72l336 297l64 -68l-120 -108q37 -17 68.5 -44.5t54 -62t35 -74t12.5 -79.5q0 -64 -25.5 -118.5t-72.5 -94.5t-113.5 -63t-148.5 -23q-59 0 -115 17t-103 50t-81.5 80
t-50.5 107q-42 31 -77 73t-60 91.5t-39 105t-14 114.5q0 114 42.5 206.5t116 157.5t172.5 100.5t212 35.5q75 0 139 -20t117 -50t95.5 -66t75.5 -69q56 45 131 45q44 0 82.5 -16t67.5 -44.5t45.5 -69.5t16.5 -90q0 -50 -16.5 -90t-45.5 -69t-67.5 -44.5t-82.5 -15.5
t-82.5 15.5t-67 44.5t-45 69t-16.5 90zM1070 748q0 -25 8.5 -46.5t23.5 -37.5t35.5 -25.5t43.5 -9.5t43.5 9.5t35.5 25.5t24 37.5t9 46.5t-9 46.5t-24 38t-35.5 26t-43.5 9.5t-43.5 -9.5t-35.5 -26t-23.5 -38t-8.5 -46.5z" />
    <glyph glyph-name="ori_ca" unicode="&#xb1a;" horiz-adv-x="1315" 
d="M675 1128q108 0 205.5 -36.5t172 -100t118.5 -149.5t44 -185q0 -38 -6.5 -76t-24 -76.5t-47.5 -76.5t-77 -77l-60 94q57 43 86 101.5t29 122.5q0 74 -36.5 139.5t-98 114t-141.5 77t-167 28.5q-110 0 -201 -30t-155.5 -84.5t-100 -131t-35.5 -169.5q0 -88 40.5 -158
t104.5 -124q10 49 37 91.5t66.5 74t90 49t108.5 17.5q66 0 122 -22.5t97 -61.5t64.5 -91.5t23.5 -111.5t-23.5 -111t-64.5 -91t-97 -61.5t-122 -22.5q-54 0 -102.5 15.5t-87 43.5t-66 66t-40.5 83q-56 33 -102 76.5t-79 95.5t-51.5 113t-18.5 130q0 118 42 213t119.5 162
t187.5 103.5t246 36.5zM420 276q0 -39 15.5 -72.5t43 -59t65.5 -40t83 -14.5t83 14.5t65.5 40t43 59t15.5 72.5t-15.5 73t-43 59.5t-65.5 40t-83 14.5t-83 -14.5t-65.5 -40t-43 -59.5t-15.5 -73z" />
    <glyph glyph-name="ori_ga" unicode="&#xb17;" horiz-adv-x="1334" 
d="M1134 1118h100v-1118h-100v648q0 85 -39 155t-102 120t-142.5 77.5t-161.5 27.5q-110 0 -203.5 -30t-161.5 -84.5t-106 -131t-38 -169.5q0 -88 40.5 -158t104.5 -124q10 49 37 91.5t66.5 74t90 49t108.5 17.5q66 0 122 -22.5t97 -61.5t64.5 -91.5t23.5 -111.5t-23.5 -111
t-64.5 -91t-97 -61.5t-122 -22.5q-54 0 -102.5 15.5t-87 43.5t-66 66t-40.5 83q-56 33 -102 76.5t-79 95.5t-51.5 113t-18.5 130q0 118 44 213t124 162t191.5 103.5t247.5 36.5q67 0 130.5 -14t121.5 -40.5t107.5 -64.5t87.5 -86v195zM420 276q0 -39 15.5 -72.5t43 -59
t65.5 -40t83 -14.5t83 14.5t65.5 40t43 59t15.5 72.5t-15.5 73t-43 59.5t-65.5 40t-83 14.5t-83 -14.5t-65.5 -40t-43 -59.5t-15.5 -73z" />
    <glyph glyph-name="ori_tta" unicode="&#xb1f;" horiz-adv-x="1334" 
d="M1134 1118h100v-505h-100v35q0 85 -39 155t-102 120t-142.5 77.5t-161.5 27.5q-110 0 -203.5 -30t-161.5 -84.5t-106 -131t-38 -169.5q0 -88 40.5 -158t104.5 -124q10 49 37 91.5t66.5 74t90 49t108.5 17.5q66 0 122 -22.5t97 -61.5t64.5 -91.5t23.5 -111.5t-23.5 -111
t-64.5 -91t-97 -61.5t-122 -22.5q-54 0 -102.5 15.5t-87 43.5t-66 66t-40.5 83q-56 33 -102 76.5t-79 95.5t-51.5 113t-18.5 130q0 118 44 213t124 162t191.5 103.5t247.5 36.5q67 0 130.5 -14t121.5 -40.5t107.5 -64.5t87.5 -86v195zM420 276q0 -39 15.5 -72.5t43 -59
t65.5 -40t83 -14.5t83 14.5t65.5 40t43 59t15.5 72.5t-15.5 73t-43 59.5t-65.5 40t-83 14.5t-83 -14.5t-65.5 -40t-43 -59.5t-15.5 -73z" />
    <glyph glyph-name="ori_ra" unicode="&#xb30;" horiz-adv-x="1388" 
d="M681 1028q-110 0 -202 -30t-158.5 -84.5t-103.5 -131t-37 -169.5q0 -88 40.5 -158t104.5 -124q10 49 37 91.5t66.5 74t90 49t108.5 17.5q66 0 122 -22.5t97 -61.5t64.5 -91.5t23.5 -111.5t-23.5 -111t-64.5 -91t-97 -61.5t-122 -22.5q-54 0 -102.5 15.5t-87 43.5t-66 66
t-40.5 83q-56 33 -102 76.5t-79 95.5t-51.5 113t-18.5 130q0 118 43 213t121.5 162t189 103.5t246.5 36.5q89 0 168.5 -23t147 -64t121.5 -96.5t92 -121.5t58.5 -139t20.5 -148q0 -42 -9 -91t-25.5 -99t-39 -98.5t-48.5 -89.5l174 -265l-82 -59l-211 335q65 92 103 184.5
t38 189.5q0 95 -38.5 183t-106.5 155t-161 107t-201 40zM420 276q0 -39 15.5 -72.5t43 -59t65.5 -40t83 -14.5t83 14.5t65.5 40t43 59t15.5 72.5t-15.5 73t-43 59.5t-65.5 40t-83 14.5t-83 -14.5t-65.5 -40t-43 -59.5t-15.5 -73z" />
    <glyph glyph-name="ori_va" unicode="&#xb35;" horiz-adv-x="1347" 
d="M675 1128q108 0 205.5 -36.5t172 -100t118.5 -149.5t44 -185q0 -38 -6.5 -76t-24 -76.5t-47.5 -76.5t-77 -77l-60 94q57 43 86 101.5t29 122.5q0 74 -36.5 139.5t-98 114t-141.5 77t-167 28.5q-110 0 -201 -30t-155.5 -84.5t-100 -131t-35.5 -169.5q0 -88 40.5 -158
t104.5 -124q10 49 37 91.5t66.5 74t90 49t108.5 17.5q66 0 122 -22.5t97 -61.5t64.5 -91.5t23.5 -111.5v-349h-100v136q-41 -35 -93.5 -54t-113.5 -19q-54 0 -102.5 15.5t-87 43.5t-66 66t-40.5 83q-56 33 -102 76.5t-79 95.5t-51.5 113t-18.5 130q0 118 42 213t119.5 162
t187.5 103.5t246 36.5zM420 276q0 -39 15.5 -72.5t43 -59t65.5 -40t83 -14.5t83 14.5t65.5 40t43 59t15.5 72.5t-15.5 73t-43 59.5t-65.5 40t-83 14.5t-83 -14.5t-65.5 -40t-43 -59.5t-15.5 -73zM572 278q0 23 16 39.5t39 16.5t39.5 -16.5t16.5 -39.5t-16.5 -39.5
t-39.5 -16.5t-39 16.5t-16 39.5z" />
    <glyph glyph-name="ori_ba" unicode="&#xb2c;" horiz-adv-x="1347" 
d="M675 1128q108 0 205.5 -36.5t172 -100t118.5 -149.5t44 -185q0 -38 -6.5 -76t-24 -76.5t-47.5 -76.5t-77 -77l-60 94q57 43 86 101.5t29 122.5q0 74 -36.5 139.5t-98 114t-141.5 77t-167 28.5q-110 0 -201 -30t-155.5 -84.5t-100 -131t-35.5 -169.5q0 -88 40.5 -158
t104.5 -124q10 49 37 91.5t66.5 74t90 49t108.5 17.5q66 0 122 -22.5t97 -61.5t64.5 -91.5t23.5 -111.5v-349h-100v136q-41 -35 -93.5 -54t-113.5 -19q-54 0 -102.5 15.5t-87 43.5t-66 66t-40.5 83q-56 33 -102 76.5t-79 95.5t-51.5 113t-18.5 130q0 118 42 213t119.5 162
t187.5 103.5t246 36.5zM420 276q0 -39 15.5 -72.5t43 -59t65.5 -40t83 -14.5q44 0 81 14t64.5 38t43.5 56.5t18 69.5v8q0 39 -15.5 73t-43 59.5t-65.5 40t-83 14.5t-83 -14.5t-65.5 -40t-43 -59.5t-15.5 -73z" />
    <glyph glyph-name="ori_kha" unicode="&#xb16;" horiz-adv-x="1334" 
d="M656 1027q-104 -5 -191.5 -36.5t-150.5 -85.5t-98.5 -128t-35.5 -164q0 -88 40.5 -158t104.5 -124q10 49 37 91.5t66.5 74t90 49t108.5 17.5q66 0 122 -22.5t97 -61.5t64.5 -91.5t23.5 -111.5t-23.5 -111t-64.5 -91t-97 -61.5t-122 -22.5q-54 0 -102.5 15.5t-87 43.5
t-66 66t-40.5 83q-56 33 -102 76.5t-79 95.5t-51.5 113t-18.5 130q0 118 44 213t124 162t191.5 103.5t247.5 36.5q60 0 119 -12q-33 -44 -56 -94t-23 -95q0 -26 8.5 -50.5t25.5 -44t43.5 -31t61.5 -11.5q43 0 79 17.5t65 45.5t51.5 64t37.5 72t24 70t11 59h100v-1118h-100
v885q-16 -38 -41 -73.5t-59 -62.5t-76 -43t-93 -16q-54 0 -98 17t-75 46.5t-48 69t-17 84.5q0 62 29 120zM420 276q0 -39 15.5 -72.5t43 -59t65.5 -40t83 -14.5t83 14.5t65.5 40t43 59t15.5 72.5t-15.5 73t-43 59.5t-65.5 40t-83 14.5t-83 -14.5t-65.5 -40t-43 -59.5
t-15.5 -73z" />
    <glyph glyph-name="ori_da" unicode="&#xb26;" horiz-adv-x="1347" 
d="M834 463h100v-536h-100v165q-43 -47 -101.5 -74.5t-128.5 -27.5q-55 0 -102 15.5t-83 43t-60.5 66.5t-33.5 87q-55 33 -100 76t-77.5 95t-50 112t-17.5 128q0 118 42 213t119.5 162t187.5 103.5t246 36.5q108 0 205.5 -36.5t172 -100t118.5 -149.5t44 -185
q0 -38 -6.5 -76t-24 -76.5t-47.5 -76.5t-77 -77l-60 94q57 43 86 101.5t29 122.5q0 74 -36.5 139.5t-98 114t-141.5 77t-167 28.5q-110 0 -201 -30t-155.5 -84.5t-100 -131t-35.5 -169.5q0 -88 41 -159t107 -125q31 135 198 200l51 -86q-76 -26 -116.5 -73.5t-40.5 -109.5
q0 -39 14.5 -70t39 -53.5t58 -34.5t71.5 -12q45 0 84.5 16.5t70 43.5t50.5 60t26 66v187z" />
    <glyph glyph-name="ori_ddha" unicode="&#xb22;" horiz-adv-x="1341" 
d="M890 -115q-71 23 -124.5 50t-93.5 56q-6 -1 -12 -1h-11q-71 0 -132 17t-110 48.5t-83.5 77.5t-51.5 105q-88 67 -140 161.5t-52 213.5q0 118 44.5 213t125.5 162t193.5 103.5t249.5 36.5q108 0 207 -33t174.5 -94t121 -147t45.5 -192q0 -38 -7 -77.5t-25.5 -78.5t-50 -77
t-79.5 -73l-42 101q34 26 55 52.5t31.5 53t14 53t3.5 52.5q0 85 -39 151.5t-102 113t-143 71t-162 24.5q-113 0 -207.5 -30t-163 -84.5t-106.5 -131t-38 -169.5q0 -64 22 -118t60 -100q16 100 87.5 167t178.5 105l40 -82q-44 -15 -82 -37.5t-66.5 -52.5t-45 -68t-16.5 -85
q0 -56 18 -99.5t48.5 -75t69.5 -52t81 -29.5q-30 44 -41.5 87.5t-11.5 84.5q0 53 19.5 95.5t52.5 72.5t76.5 46t91.5 16t90 -18t72.5 -49.5t48 -73t17.5 -89.5q0 -49 -15 -88t-41 -69.5t-61 -52.5t-75 -35q30 -15 62 -25.5t64 -17.5zM890 253q0 29 -10 54t-27.5 43t-40.5 28
t-50 10q-61 0 -100.5 -36.5t-39.5 -104.5q0 -50 21 -91.5t56 -75.5q57 6 93.5 24t58.5 43t30.5 52.5t8.5 53.5z" />
    <glyph glyph-name="ori_bha" unicode="&#xb2d;" horiz-adv-x="1393" 
d="M689 1028q-110 0 -203.5 -30t-161.5 -84.5t-106 -131t-38 -169.5q0 -64 22 -118t60 -100q16 103 87 178.5t179 113.5l40 -82q-44 -15 -82 -40.5t-66.5 -59t-45 -75t-16.5 -88.5q0 -68 27.5 -116t68.5 -78t89 -44t90 -14q39 0 78.5 10t73.5 32t58 56t33 82
q-41 -23 -89 -23q-39 0 -72 12.5t-56 35t-36 53.5t-13 68q0 36 11.5 65.5t29 53.5t39 42t41.5 32l59 -67q-14 -9 -28.5 -21t-26 -27t-18.5 -32t-7 -36q0 -22 7 -37t18.5 -24.5t25 -13.5t26.5 -4q26 0 48 8.5t40.5 22.5t33.5 31.5t27 35.5q20 -33 32 -73t12 -72
q0 -64 -24 -120.5t-69.5 -98.5t-111 -66.5t-147.5 -24.5q-59 0 -115 17t-103 48.5t-83 77.5t-54 104q-88 68 -140.5 162t-52.5 214q0 118 44 213t124 162t192 103.5t249 36.5q89 0 168 -23t146 -64t121 -96.5t91.5 -121.5t57.5 -139t20 -148q0 -42 -9 -91t-25.5 -99
t-39 -98.5t-48.5 -89.5l174 -265l-82 -59l-211 335q65 92 103 184.5t38 189.5q0 95 -38 183t-105.5 155t-160 107t-200.5 40z" />
    <glyph glyph-name="ori_ya" unicode="&#xb2f;" horiz-adv-x="1302" 
d="M1102 1118h100v-1118h-100v180q-23 -37 -56.5 -71.5t-75 -60.5t-88.5 -42t-96 -16q-77 0 -136 22t-99 60.5t-60.5 91t-20.5 113.5q0 26 4 46l-192 -134q32 -32 32 -78t-32 -78.5t-85 -32.5t-85 29t-32 75q0 34 20.5 63.5t65.5 60.5l343 231q-26 -8 -46 -8
q-66 0 -116 25.5t-83.5 66.5t-50 93.5t-16.5 106.5q0 93 35.5 165t96 120.5t140 74t168.5 25.5q68 0 132 -16.5t123 -46.5t112 -72.5t98 -94.5v220zM637 1028q-67 0 -128.5 -17.5t-108.5 -53t-75 -89t-28 -125.5q0 -52 15.5 -90.5t42 -64t62 -38t75.5 -12.5q9 0 29.5 1
t50.5 7t68 19.5t82 38.5l46 -102q-36 -16 -71.5 -36t-63.5 -47.5t-45.5 -64.5t-17.5 -86q0 -47 19 -80.5t49 -55.5t66.5 -32t70.5 -10q58 0 111 22t96 56.5t74 76.5t46 82v457q-61 68 -118 114.5t-113.5 75.5t-114 41.5t-119.5 12.5z" />
    <glyph glyph-name="ori_ma" unicode="&#xb2e;" horiz-adv-x="1185" 
d="M660 488q-73 -35 -146 -75.5t-134.5 -81t-105.5 -78t-58 -65.5q13 -1 30 -5t32 -14t25.5 -27.5t10.5 -44.5q0 -20 -8.5 -37.5t-24 -30.5t-37 -21t-47.5 -8t-47.5 10t-37 27t-24 38.5t-8.5 44.5q0 42 15.5 79.5t51.5 76.5t94 83t143 98q-20 -6 -38 -6q-66 0 -116 25.5
t-83.5 66.5t-50 93.5t-16.5 106.5q0 93 35.5 165t96 120.5t140 74t168.5 25.5q68 0 132 -16.5t123 -46.5t112 -72.5t98 -94.5v220h100v-1118h-100v784q-61 68 -118 114.5t-113.5 75.5t-114 41.5t-119.5 12.5q-67 0 -128.5 -17.5t-108.5 -53t-75 -89t-28 -125.5
q0 -52 15.5 -90.5t42 -64t62 -38t75.5 -12.5q9 0 29.5 1t50.5 7t68 19.5t82 38.5z" />
    <glyph glyph-name="ori_pa" unicode="&#xb2a;" horiz-adv-x="1185" 
d="M985 1118h100v-1118h-100v180q-23 -37 -56.5 -71.5t-75 -60.5t-88.5 -42t-96 -16q-77 0 -136 22t-99 60.5t-60.5 91t-20.5 113.5q0 29 6.5 55t17 48.5t23 41t24.5 33.5q-20 -3 -38.5 -3.5t-32.5 -0.5q-69 0 -120.5 25.5t-85.5 66.5t-50.5 93.5t-16.5 106.5q0 93 35.5 165
t96 120.5t140 74t168.5 25.5q68 0 132 -16.5t123 -46.5t112 -72.5t98 -94.5v220zM520 1028q-67 0 -128.5 -17.5t-108.5 -53t-75 -89t-28 -125.5q0 -52 15.5 -90.5t42 -64t62 -38t75.5 -12.5q9 0 29.5 1t50.5 7t68 19.5t82 38.5l46 -102q-36 -16 -71.5 -36t-63.5 -47.5
t-45.5 -64.5t-17.5 -86q0 -47 19 -80.5t49 -55.5t66.5 -32t70.5 -10q54 0 104.5 18.5t93.5 48t76 66.5t53 75v486q-61 68 -118 114.5t-113.5 75.5t-114 41.5t-119.5 12.5z" />
    <glyph glyph-name="ori_pha" unicode="&#xb2b;" horiz-adv-x="1498" 
d="M985 1118h100v-149q23 18 51 28.5t61 10.5q44 0 82.5 -16t67 -44.5t45 -69.5t16.5 -90q0 -50 -16.5 -90t-45.5 -69t-67.5 -44.5t-82.5 -15.5q-33 0 -60.5 10.5t-50.5 27.5v-607h-100v180q-23 -37 -56.5 -71.5t-75 -60.5t-88.5 -42t-96 -16q-77 0 -136 22t-99 60.5
t-60.5 91t-20.5 113.5q0 29 6.5 55t17 48.5t23 41t24.5 33.5q-20 -3 -38.5 -3.5t-32.5 -0.5q-69 0 -120.5 25.5t-85.5 66.5t-50.5 93.5t-16.5 106.5q0 93 35.5 165t96 120.5t140 74t168.5 25.5q68 0 132 -16.5t123 -46.5t112 -72.5t98 -94.5v220zM520 1028
q-67 0 -128.5 -17.5t-108.5 -53t-75 -89t-28 -125.5q0 -52 15.5 -90.5t42 -64t62 -38t75.5 -12.5q9 0 29.5 1t50.5 7t68 19.5t82 38.5l46 -102q-36 -16 -71.5 -36t-63.5 -47.5t-45.5 -64.5t-17.5 -86q0 -47 19 -80.5t49 -55.5t66.5 -32t70.5 -10q54 0 104.5 18.5t93.5 48
t76 66.5t53 75v486q-61 68 -118 114.5t-113.5 75.5t-114 41.5t-119.5 12.5zM1085 788q0 -25 8.5 -46.5t23.5 -37.5t35.5 -25.5t43.5 -9.5t43.5 9.5t35.5 25.5t24 37.5t9 46.5t-9 46.5t-24 38t-35.5 26t-43.5 9.5t-43.5 -9.5t-35.5 -26t-23.5 -38t-8.5 -46.5z" />
    <glyph glyph-name="ori_ssa" unicode="&#xb37;" horiz-adv-x="1185" 
d="M985 1118h100v-1118h-100v165l-6 5q-23 -36 -56.5 -68.5t-74 -57t-86 -39.5t-93.5 -15q-77 0 -136 22t-99 60.5t-60.5 91t-20.5 113.5q0 29 6.5 55t17 48.5t23 41t24.5 33.5q-20 -3 -38.5 -3.5t-32.5 -0.5q-69 0 -120.5 25.5t-85.5 66.5t-50.5 93.5t-16.5 106.5
q0 93 35.5 165t96 120.5t140 74t168.5 25.5q68 0 132 -16.5t123 -46.5t112 -72.5t98 -94.5v220zM520 1028q-55 0 -106 -12t-94 -35l665 -671v474q-61 68 -118 114.5t-113.5 75.5t-114 41.5t-119.5 12.5zM453 268q0 -47 19 -80.5t49 -55.5t66.5 -32t70.5 -10q40 0 78 10.5
t73 28t65.5 41t55.5 50.5l-280 282q-36 -16 -71.5 -36t-63.5 -47.5t-45 -64.5t-17 -86zM180 743q0 -52 15.5 -90.5t42 -64t62 -38t75.5 -12.5q52 0 100 12.5t93 33.5l-329 332q-28 -34 -43.5 -76.5t-15.5 -96.5z" />
    <glyph glyph-name="ori_sa" unicode="&#xb38;" horiz-adv-x="1185" 
d="M1085 0h-100l-905 175v74l316 202h-22q-71 0 -125.5 25.5t-92 66.5t-57 93.5t-19.5 106.5q0 93 35.5 165t96 120.5t140 74t168.5 25.5q68 0 132 -16.5t123 -46.5t112 -72.5t98 -94.5v220h100v-1118zM520 1028q-67 0 -128.5 -17.5t-108.5 -53t-75 -89t-28 -125.5
q0 -52 17.5 -90.5t47.5 -64t69 -38t81 -12.5q48 0 88.5 10.5t75.5 27t66.5 38t61.5 44.5l57 -95l-486 -318l727 -144v683q-61 68 -118 114.5t-113.5 75.5t-114 41.5t-119.5 12.5z" />
    <glyph glyph-name="ori_ha" unicode="&#xb39;" horiz-adv-x="1347" 
d="M302 339q-45 23 -85 56t-70.5 76.5t-48.5 97.5t-18 119q0 92 39.5 172t112.5 139.5t175.5 94t227.5 34.5q121 0 227 -36.5t184.5 -100t123.5 -149.5t45 -185q0 -38 -6.5 -76t-24 -76.5t-47.5 -76.5t-77 -77l-60 94q57 43 86 101.5t29 122.5q0 49 -18.5 95t-51.5 86
t-78.5 72.5t-98.5 56t-112.5 36.5t-120.5 13q-102 0 -186 -25.5t-143.5 -72t-92.5 -111t-33 -142.5q0 -41 11 -75.5t29 -64t42 -52.5t50 -40q13 40 37 69.5t52 50t56 33.5t49 21l31 -82q-72 -29 -104.5 -72t-32.5 -92q0 -29 10.5 -49t27 -32.5t37.5 -18t42 -5.5
q52 0 101.5 32t92 77t74.5 94t49 82h100v-423h-100v264q-19 -32 -48.5 -67.5t-67 -67t-81 -54.5t-90.5 -29l-108 -106l541 -141l-30 -93l-650 175v59l122 122q-51 21 -82 60.5t-38 86.5z" />
    <glyph glyph-name="ori_sha" unicode="&#xb36;" horiz-adv-x="1266" 
d="M624 688q-35 31 -83.5 48.5t-103.5 17.5q-53 0 -100 -16.5t-82 -45.5t-55 -67.5t-20 -82.5q0 -53 27.5 -97t75.5 -73q15 42 43 77t65.5 60.5t83.5 39.5t98 14q66 0 122 -22.5t97 -61.5t64.5 -91.5t23.5 -111.5t-23.5 -111t-64.5 -91t-97 -61.5t-122 -22.5
q-65 0 -120 21.5t-96.5 59t-65.5 88.5t-25 109q-42 19 -76 48t-58.5 64t-38 76t-13.5 86q0 57 22 108.5t61 92t92.5 68.5t116.5 38q-8 19 -13 39.5t-5 37.5q0 45 18 82t52.5 63.5t84.5 41.5t113 15q72 0 139.5 -23t125 -58t103.5 -77t76 -80v228h100v-1118h-100v761
q-45 62 -97 111.5t-109 84t-117 53t-120 18.5q-85 0 -127 -30t-42 -73q0 -16 3.5 -34t16.5 -39q67 -6 125.5 -32t101.5 -67zM366 276q0 -39 15.5 -72.5t43 -59t65.5 -40t83 -14.5t83 14.5t65.5 40t43 59t15.5 72.5t-15.5 73t-43 59.5t-65.5 40t-83 14.5t-83 -14.5t-65.5 -40
t-43 -59.5t-15.5 -73z" />
    <glyph glyph-name="ori_gha" unicode="&#xb18;" horiz-adv-x="1328" 
d="M1128 1118h100v-1118h-100v190q-17 -42 -42.5 -78.5t-57.5 -63.5t-70.5 -42.5t-81.5 -15.5q-129 0 -187 114q-15 -33 -37 -55t-47.5 -35t-53 -18.5t-54.5 -5.5q-52 0 -96 20t-76 55t-51 83t-20 105q-81 69 -127.5 164t-46.5 206t40 204t113.5 159.5t177 104t231.5 37.5
q78 0 149 -18t133 -50.5t113.5 -78.5t90.5 -101v238zM1128 609q0 75 -39.5 149.5t-106.5 134.5t-155 97.5t-185 37.5q-105 0 -190.5 -30.5t-146 -85t-93.5 -129t-33 -161.5q0 -78 26 -137.5t71 -107.5q14 38 36 70t47.5 58.5t53 46t53.5 31.5l46 -69q-21 -12 -50 -32.5
t-55 -52t-44.5 -74t-18.5 -97.5q0 -33 11 -63.5t30.5 -54t46.5 -37t60 -13.5q27 0 54 11.5t48.5 31.5t34.5 47t13 57v104h100v-104q0 -36 11 -63.5t29 -46t42.5 -28t51.5 -9.5q48 0 93 30.5t80.5 78t57 105t21.5 112.5v193z" />
    <glyph glyph-name="ori_cha" unicode="&#xb1b;" horiz-adv-x="1118" 
d="M814 320q39 0 75.5 -10t65 -30.5t46 -51t17.5 -71.5q0 -42 -16.5 -73.5t-44 -52.5t-64.5 -31t-79 -10q-44 0 -81 9t-69 24t-60.5 34t-55.5 40q-29 -21 -58.5 -40t-62 -34t-68 -24t-75.5 -9q-42 0 -79 10t-64.5 31t-44 52.5t-16.5 73.5q0 51 26 86t68 54q-65 14 -133 14
v96q59 0 126 -19.5t139 -53.5q-11 23 -16.5 51.5t-5.5 64.5q-75 52 -118.5 129.5t-43.5 175.5q0 78 33.5 146t93.5 118.5t142.5 79.5t180.5 29q101 0 183 -30.5t140.5 -82t90.5 -119.5t32 -144q0 -30 -6 -62t-17 -63t-27 -59t-36 -50l-72 67q28 32 43 78.5t15 88.5
q0 55 -26 105t-72.5 88t-109.5 60.5t-138 22.5q-78 0 -142 -21t-110.5 -59t-72 -90t-25.5 -113q0 -66 22.5 -111t62.5 -78q15 34 39.5 62t56 48.5t68.5 31.5t78 11q55 0 103 -20t84 -55t57 -82.5t21 -101.5q0 -43 -8 -74.5t-22 -57.5q8 1 15 1.5t15 0.5zM549 609
q-38 0 -70.5 -13.5t-55.5 -36.5t-36 -54t-13 -65q0 -18 3 -39.5t11 -44.5t21 -45.5t33 -41.5q27 -15 54 -32.5t55 -35.5q26 17 52 34.5t52 32.5q20 19 33 42t21 45.5t11.5 44.5t3.5 40q0 34 -13 65t-36.5 54t-55.5 36.5t-70 13.5zM289 220q-13 0 -31.5 -2.5t-36 -9.5
t-29.5 -19.5t-12 -31.5q0 -21 12 -34t29 -20.5t35.5 -10t32.5 -2.5q49 0 95 18t91 44q-41 29 -85 48.5t-101 19.5zM809 90q13 0 32 2.5t36 10t29 20.5t12 34q0 19 -12.5 31.5t-29.5 19.5t-35.5 9.5t-31.5 2.5q-51 0 -95.5 -19.5t-86.5 -48.5q45 -26 90 -44t92 -18z" />
    <glyph glyph-name="ori_na" unicode="&#xb28;" horiz-adv-x="1255" 
d="M956 454q48 48 73.5 107t25.5 125q0 73 -32 135.5t-90 108.5t-138.5 72t-177.5 26t-177.5 -26t-138.5 -72t-90 -108.5t-32 -135.5q0 -57 19.5 -108.5t55.5 -96.5q79 81 201 130t282 49h100v-660h-100v560q-105 0 -193.5 -26.5t-153.5 -73t-103 -108.5t-42 -133
q26 0 48.5 -10t39.5 -26.5t27 -38t10 -43.5q0 -46 -31 -78.5t-84 -32.5q-26 0 -50 11.5t-42 34.5t-29 56t-11 77q0 126 68 233q-54 60 -82.5 132t-28.5 152q0 93 39.5 174t111 140.5t170 93.5t216.5 34t216.5 -34t170 -93.5t111.5 -140.5t40 -174q0 -89 -35.5 -168
t-100.5 -142z" />
    <glyph glyph-name="ori_dha" unicode="&#xb27;" horiz-adv-x="1155" 
d="M687 591l-71 51q-48 28 -85 34.5t-71 6.5q-51 0 -101 -19t-90 -55t-64.5 -87t-24.5 -115q0 -76 30 -135t78 -99.5t109 -61.5t124 -21q51 0 102.5 12t105 42t110 81t116.5 128v765h100v-1118h-100v210q-38 -45 -85 -85t-102 -70t-117 -47.5t-130 -17.5q-85 0 -164.5 27
t-141 80t-98.5 130.5t-37 178.5q0 70 23.5 134t68 114.5t109.5 83.5t148 42l-368 271l68 77l613 -463z" />
    <glyph glyph-name="ori_nna" unicode="&#xb23;" horiz-adv-x="1247" 
d="M1047 1118h100v-1118h-100v771q-43 59 -91.5 106.5t-101.5 81t-109.5 51.5t-115.5 18q-28 0 -56.5 -7t-52 -22t-38 -39t-14.5 -58q0 -31 16 -65.5t51 -64.5q38 -2 75 -9.5t71 -21.5l-51 -91q-27 11 -62 17t-67 6q-65 0 -123.5 -19t-102.5 -55t-69.5 -87.5t-25.5 -116.5
q0 -52 18 -95.5t49 -78.5q22 54 58 99t81.5 78t100 51.5t114.5 18.5q71 0 128.5 -17.5t97.5 -48.5t61.5 -72.5t21.5 -89.5q0 -63 -29.5 -110t-78.5 -78t-113 -46.5t-133 -15.5q-82 0 -166.5 26t-153.5 77.5t-112.5 127t-43.5 174.5q0 83 28 147t75 109.5t108.5 74
t128.5 39.5q-27 35 -39.5 73t-12.5 73q0 47 20 87t56.5 69t88 45t115.5 16q54 0 108 -17t105.5 -47t98.5 -70.5t87 -86.5v211zM560 90q39 0 82.5 7.5t81 25t62 46t24.5 71.5q0 19 -11.5 41.5t-35.5 42t-60.5 32t-85.5 12.5q-56 0 -102.5 -17t-83 -46.5t-62.5 -68t-42 -81.5
q53 -32 113.5 -48.5t119.5 -16.5z" />
    <glyph glyph-name="ori_ja" unicode="&#xb1c;" horiz-adv-x="1380" 
d="M209 287v7q-61 63 -95 142.5t-34 176.5q0 118 44.5 213t125.5 162t193.5 103.5t249.5 36.5q108 0 207 -33t174.5 -94t121 -147t45.5 -192q0 -38 -7 -77.5t-25.5 -78.5t-50 -77t-79.5 -73l-42 101q34 26 55 52.5t31.5 53t14 53t3.5 52.5q0 85 -39 151.5t-102 113t-143 71
t-162 24.5q-113 0 -207.5 -30t-163 -84.5t-106.5 -131t-38 -169.5q0 -53 15.5 -99t42.5 -87q19 42 47.5 73t60 53.5t63 36t57.5 21.5l38 -87q-99 -36 -147 -91.5t-48 -149.5q0 -35 11 -69.5t33.5 -62t56.5 -44.5t81 -17q30 0 59 9t51.5 26.5t36.5 43t14 59.5q0 24 -9 45
t-24.5 36.5t-36.5 24.5t-44 9v85q10 36 30.5 69t52.5 58.5t77.5 40.5t106.5 15q15 0 35.5 -3t43 -8.5t44.5 -13t39 -16.5v-570h-100v494q-20 10 -39.5 13.5t-37.5 3.5q-32 0 -57 -9.5t-43 -25.5t-27.5 -37.5t-10.5 -45.5q21 -12 39 -28t31.5 -37.5t21.5 -48.5t8 -61
q0 -57 -21.5 -99.5t-57.5 -71t-83 -43t-98 -14.5q-70 0 -123 24.5t-88.5 65.5t-53.5 94.5t-18 112.5z" />
    <glyph glyph-name="ori_jha" unicode="&#xb1d;" horiz-adv-x="1332" 
d="M296 276q0 47 15 91q-52 25 -94.5 61t-73 81.5t-47 99.5t-16.5 115q0 96 35 169.5t93.5 123.5t134 75.5t156.5 25.5q44 0 88.5 -8.5t87 -24t81 -36.5t70.5 -45q-17 -20 -27 -43.5t-10 -52.5q0 -25 11 -48.5t32 -42t52.5 -29.5t72.5 -11q36 0 68 9t56 26t37.5 42t13.5 58
t-12.5 56.5t-32.5 39.5t-47 23.5t-55 7.5v89q52 -2 97 -17t78.5 -42t52.5 -66t19 -91q0 -63 -27.5 -107.5t-69.5 -73t-92 -41.5t-94 -13q-55 0 -102.5 15t-82.5 42t-55 65.5t-20 86.5q0 14 3 33t14 38q-21 18 -48 29.5t-55.5 18.5t-56.5 10t-50 3q-62 0 -119 -17
t-100.5 -52.5t-70 -91t-26.5 -131.5q0 -50 13.5 -92t38 -76t58.5 -59t74 -41q42 48 103 76.5t136 28.5q66 0 122 -22.5t97 -61.5t64.5 -91.5t23.5 -111.5q0 -66 -29 -122l260 -217l-64 -79l-261 210q-42 -36 -96 -57t-117 -21q-66 0 -122 22.5t-97 61.5t-64.5 91t-23.5 111z
M396 276q0 -39 15.5 -72.5t43 -59t65.5 -40t83 -14.5t83 14.5t65.5 40t43 59t15.5 72.5t-15.5 73t-43 59.5t-65.5 40t-83 14.5t-83 -14.5t-65.5 -40t-43 -59.5t-15.5 -73z" />
    <glyph glyph-name="ori_nya" unicode="&#xb1e;" horiz-adv-x="1256" 
d="M1156 366q0 -66 -28.5 -133t-93.5 -121t-170.5 -88t-260.5 -34q-144 0 -243.5 31.5t-162 83.5t-90 119t-27.5 137q0 43 11 80t28 69.5t39 59.5t44 50q-65 54 -93.5 123t-28.5 141t31 134.5t78 109.5l84 -55q-15 -13 -31 -32.5t-30 -43.5t-23 -52t-9 -59
q0 -67 31.5 -119.5t88 -89t134.5 -55.5t172 -19t176 12t143 41t96 76t35 118q0 81 -42.5 129.5t-114.5 48.5q-59 0 -95.5 -37t-36.5 -112v-127h-100v136q0 63 -30.5 101.5t-81.5 38.5q-26 0 -49.5 -10t-41.5 -27.5t-28.5 -41.5t-10.5 -52q0 -29 8.5 -53t20.5 -42.5t24 -31
t20 -18.5l-73 -59q-16 16 -33.5 39t-32.5 50t-24.5 56.5t-9.5 59.5q0 52 17 94.5t48 72.5t73 46.5t93 16.5q62 0 98 -26t68 -74q12 20 29.5 38.5t40 32t51 21.5t63.5 8q55 0 101 -21.5t79 -58.5t51.5 -88t18.5 -109q0 -74 -31.5 -139.5t-103.5 -114.5q31 -16 56 -40.5
t42.5 -54.5t27 -64.5t9.5 -71.5zM382 529q-53 15 -97 36q-14 -13 -32 -33t-34.5 -46t-27.5 -57t-11 -66q0 -66 31 -116.5t87 -85.5t133.5 -53t171.5 -18t176.5 16t144 50t97 85.5t35.5 123.5q0 36 -10.5 66.5t-31 53t-49.5 35.5t-66 13q-20 0 -43 -6t-43 -20.5t-33 -38.5
t-13 -59v-180h-100v180q0 18 -8 35t-23 30t-35.5 21t-45.5 8q-26 0 -49.5 -9.5t-41.5 -27t-28.5 -41t-10.5 -51.5q0 -29 8.5 -53t20.5 -42.5t24 -31t20 -18.5l-73 -59q-16 16 -33.5 39t-32.5 50t-24.5 56.5t-9.5 59.5q0 48 15 87t42 67z" />
    <glyph glyph-name="ori_nukta" unicode="&#xb3c;" 
d="M-621 -188q0 31 22 53t53 22t53 -22t22 -53t-22 -53t-53 -22t-53 22t-22 53z" />
    <glyph glyph-name="ori_avagraha" unicode="&#xb3d;" horiz-adv-x="793" 
d="M80 773v77l563 268l45 -90l-447 -220l452 -249l-452 -249l447 -220l-45 -90l-563 268v77l412 214z" />
    <glyph glyph-name="ori_aa_matra" unicode="&#xb3e;" horiz-adv-x="280" 
d="M80 0v1118h100v-1118h-100z" />
    <glyph glyph-name="ori_i_matra" unicode="&#xb3f;" 
d="M-700 1393q-54 0 -98 -5t-87.5 -19.5t-90.5 -41.5t-108 -70l-67 61q102 94 212.5 134.5t238.5 40.5t238.5 -40.5t212.5 -134.5l-67 -61q-61 43 -108 70t-90.5 41.5t-87.5 19.5t-98 5z" />
    <glyph glyph-name="ori_ii_matra" unicode="&#xb40;" horiz-adv-x="473" 
d="M373 1241v-1241h-100v1121l-209 -160l-64 78l273 202h100z" />
    <glyph glyph-name="ori_u_matra" unicode="&#xb41;" 
d="M-200 0h100v-120q0 -58 -9 -106t-25 -87q25 -24 50.5 -46t54.5 -38.5t61.5 -26.5t70.5 -10q24 0 46.5 7.5t43.5 20.5t40.5 29.5t36.5 33.5l47 -71q-55 -55 -106.5 -82.5t-113.5 -27.5q-44 0 -81 11.5t-70 31t-62.5 44t-57.5 51.5q-27 -39 -60.5 -65t-68.5 -42.5
t-69.5 -23.5t-62.5 -7q-54 0 -100.5 14t-80 41t-53 65.5t-19.5 87.5q0 46 19.5 82.5t51.5 62t74.5 38.5t87.5 13q40 0 73.5 -9.5t63.5 -25.5t56 -37t51 -45q11 53 11 117v120zM-455 -210q-25 0 -50.5 -5t-46 -17t-33.5 -32.5t-13 -51.5t14 -53.5t36 -36.5t48 -21t50 -7
q69 0 122.5 27.5t85.5 87.5q-24 22 -48 42t-50 35t-54.5 23.5t-60.5 8.5z" />
    <glyph glyph-name="ori_uu_matra" unicode="&#xb42;" 
d="M235 -546l-228 217q-2 -45 -19 -81.5t-45 -62t-64.5 -39.5t-78.5 -14q-51 0 -92 16.5t-70.5 45.5t-45 68.5t-15.5 85.5q0 47 16.5 80t41.5 57t53.5 42.5t53.5 37t41.5 40.5t16.5 53h100q0 -50 -17.5 -82t-43 -54.5t-56 -39t-56 -34.5t-43 -41.5t-17.5 -59.5
q0 -27 9.5 -49.5t27 -39.5t42 -26.5t54.5 -9.5q33 0 57.5 10.5t40.5 27t24 38t8 43.5q0 18 -6 33.5t-11 23.5l78 67l312 -283z" />
    <glyph glyph-name="ori_ri_matra" unicode="&#xb43;" 
d="M-340 -419q0 34 14 63t41 51t67.5 34.5t93.5 12.5q35 0 69.5 -12t62 -34.5t44.5 -55.5t17 -75q0 -53 -24.5 -88t-63.5 -56t-87 -29.5t-94 -8.5q-56 0 -114 14.5t-105 46t-76.5 80t-29.5 116.5q0 53 24 91t60 66t78.5 49.5t78.5 44t60 48t24 61.5h100q0 -57 -24 -92.5
t-60 -59.5t-78.5 -42t-78.5 -39t-60 -51t-24 -79q0 -39 26.5 -75t78.5 -57q-20 42 -20 76zM-200 -517q75 0 122 21t47 67q0 36 -32.5 59t-81.5 23q-54 0 -87 -25.5t-33 -79.5q0 -33 21 -62q21 -3 44 -3z" />
    <glyph glyph-name="ori_e_matra" unicode="&#xb47;" horiz-adv-x="996" 
d="M539 1028q-77 0 -138 -30t-105.5 -80.5t-72 -117t-37.5 -139.5h336q83 0 152 -22t118.5 -63.5t76.5 -100.5t27 -133q0 -84 -32.5 -149.5t-84.5 -110.5t-117.5 -68.5t-131.5 -23.5q-90 0 -171.5 35t-143.5 108t-98.5 186t-36.5 268q0 105 31 202.5t90 173t144.5 120.5
t194.5 45q54 0 108.5 -16.5t101 -46t82 -71.5t52.5 -93l-75 -51q-27 49 -59 83t-66.5 55t-71 30.5t-73.5 9.5zM180 561q1 -101 22.5 -187.5t65 -149.5t108.5 -98.5t154 -35.5q52 0 100 19.5t85 54t59 80.5t22 99q0 106 -73 162t-204 56h-339z" />
    <glyph glyph-name="ori_ai_matra" unicode="&#xb48;" horiz-adv-x="2171" 
d="M538 1028q-77 0 -138 -30t-105.5 -80.5t-72 -117t-37.5 -139.5h336q83 0 152 -22t118.5 -63.5t76.5 -100.5t27 -133q0 -84 -32.5 -149.5t-84.5 -110.5t-117.5 -68.5t-131.5 -23.5q-90 0 -171.5 35t-143.5 108t-98.5 186t-36.5 268q0 105 31 202.5t90 173t144.5 120.5
t194.5 45q54 0 108.5 -16.5t101 -46t82 -71.5t52.5 -93l-75 -51q-27 49 -59 83t-66.5 55t-71 30.5t-73.5 9.5zM179 561q1 -101 22.5 -187.5t65 -149.5t108.5 -98.5t154 -35.5q52 0 100 19.5t85 54t59 80.5t22 99q0 106 -73 162t-204 56h-339zM1871 1118q40 30 70 74.5
t30 101.5q0 37 -15.5 64.5t-40.5 45.5t-56 27t-61 9q-53 0 -103.5 -14t-99.5 -35.5t-97.5 -46t-98.5 -46t-102 -35.5t-108 -14q-109 0 -185.5 52.5t-129.5 138.5l73 66q16 -29 39.5 -57.5t54 -50.5t67.5 -35.5t81 -13.5q47 0 95.5 14t99 35.5t102 46t103.5 46t104.5 35.5
t104.5 14q56 0 106 -17.5t87 -49.5t58.5 -77.5t21.5 -102.5q0 -69 -28.5 -120.5t-71.5 -93.5zM1746 988q0 -49 -50 -49q-51 0 -51 49q0 51 51 51q50 0 50 -51zM1152 742q0 -51 -49 -51q-52 0 -52 51q0 49 50 49q24 0 37.5 -12t13.5 -37zM1152 394q0 -25 -13.5 -37t-37.5 -12
q-50 0 -50 49q0 51 50 51q24 0 37.5 -12.5t13.5 -38.5zM1572 1025q0 -52 -52 -52q-49 0 -49 52q0 49 49 49q52 0 52 -49zM1893 889q0 -49 -47 -49q-53 0 -53 49q0 52 53 52q47 0 47 -52zM1893 244q0 -49 -47 -49q-53 0 -53 49q0 52 53 52q47 0 47 -52zM1250 244
q0 -49 -49 -49q-51 0 -51 49q0 52 51 52q49 0 49 -52zM1572 113q0 -51 -52 -51q-49 0 -49 51q0 49 49 49q52 0 52 -49zM1250 889q0 -49 -49 -49q-51 0 -51 47q0 54 51 54q49 0 49 -52zM1991 394q0 -49 -51 -49q-49 0 -49 49q0 51 49 51q51 0 51 -51zM1397 988q0 -49 -51 -49
q-49 0 -49 49q0 51 49 51q51 0 51 -51zM1991 742q0 -51 -51 -51q-49 0 -49 51q0 49 51 49q49 0 49 -49zM1746 146q0 -47 -50 -47q-51 0 -51 47q0 51 51 51q50 0 50 -51zM1397 150q0 -51 -51 -51q-49 0 -49 47q0 51 49 51q51 0 51 -47zM1115 568q0 -49 -47 -49q-54 0 -54 49
t54 49q47 0 47 -49zM2028 568q0 -49 -49 -49q-51 0 -51 49t51 49q49 0 49 -49z" />
    <glyph glyph-name="ori_o_matra" unicode="&#xb4b;" horiz-adv-x="2332" 
d="M538 1028q-77 0 -138 -30t-105.5 -80.5t-72 -117t-37.5 -139.5h336q83 0 152 -22t118.5 -63.5t76.5 -100.5t27 -133q0 -84 -32.5 -149.5t-84.5 -110.5t-117.5 -68.5t-131.5 -23.5q-90 0 -171.5 35t-143.5 108t-98.5 186t-36.5 268q0 105 31 202.5t90 173t144.5 120.5
t194.5 45q54 0 108.5 -16.5t101 -46t82 -71.5t52.5 -93l-75 -51q-27 49 -59 83t-66.5 55t-71 30.5t-73.5 9.5zM179 561q1 -101 22.5 -187.5t65 -149.5t108.5 -98.5t154 -35.5q52 0 100 19.5t85 54t59 80.5t22 99q0 106 -73 162t-204 56h-339zM2132 0v1118h100v-1118h-100z
M1736 988q0 -49 -50 -49q-51 0 -51 49q0 51 51 51q50 0 50 -51zM1142 742q0 -51 -49 -51q-52 0 -52 51q0 49 50 49q24 0 37.5 -12t13.5 -37zM1142 394q0 -25 -13.5 -37t-37.5 -12q-50 0 -50 49q0 51 50 51q24 0 37.5 -12.5t13.5 -38.5zM1562 1025q0 -52 -52 -52
q-49 0 -49 52q0 49 49 49q52 0 52 -49zM1883 889q0 -49 -47 -49q-53 0 -53 49q0 52 53 52q47 0 47 -52zM1883 244q0 -49 -47 -49q-53 0 -53 49q0 52 53 52q47 0 47 -52zM1562 113q0 -51 -52 -51q-49 0 -49 51q0 49 49 49q52 0 52 -49zM1240 244q0 -49 -49 -49q-51 0 -51 49
q0 52 51 52q49 0 49 -52zM1240 889q0 -49 -49 -49q-51 0 -51 47q0 54 51 54q49 0 49 -52zM1387 988q0 -49 -51 -49q-49 0 -49 49q0 51 49 51q51 0 51 -51zM1981 394q0 -49 -51 -49q-49 0 -49 49q0 51 49 51q51 0 51 -51zM1981 742q0 -51 -51 -51q-49 0 -49 51q0 49 51 49
q49 0 49 -49zM1736 146q0 -47 -50 -47q-51 0 -51 47q0 51 51 51q50 0 50 -51zM1387 150q0 -51 -51 -51q-49 0 -49 47q0 51 49 51q51 0 51 -47zM1105 568q0 -49 -47 -49q-54 0 -54 49t54 49q47 0 47 -49zM2018 568q0 -49 -49 -49q-51 0 -51 49t51 49q49 0 49 -49z" />
    <glyph glyph-name="ori_au_matra" unicode="&#xb4c;" horiz-adv-x="2451" 
d="M538 1028q-77 0 -138 -30t-105.5 -80.5t-72 -117t-37.5 -139.5h336q83 0 152 -22t118.5 -63.5t76.5 -100.5t27 -133q0 -84 -32.5 -149.5t-84.5 -110.5t-117.5 -68.5t-131.5 -23.5q-90 0 -171.5 35t-143.5 108t-98.5 186t-36.5 268q0 105 31 202.5t90 173t144.5 120.5
t194.5 45q54 0 108.5 -16.5t101 -46t82 -71.5t52.5 -93l-75 -51q-27 49 -59 83t-66.5 55t-71 30.5t-73.5 9.5zM2151 1128q40 30 70 70t30 96q0 37 -15.5 64.5t-40.5 45.5t-56 27t-61 9q-53 0 -103.5 -14t-99.5 -35.5t-97.5 -46t-98.5 -46t-102 -35.5t-108 -14
q-109 0 -185.5 52.5t-129.5 138.5l73 66q16 -29 39.5 -57.5t54 -50.5t67.5 -35.5t81 -13.5q47 0 95.5 14t99 35.5t102 46t103.5 46t104.5 35.5t104.5 14q56 0 106 -17.5t87 -49.5t58.5 -77.5t21.5 -102.5q0 -35 -7.5 -63t-21 -52.5t-32 -46t-39.5 -42.5v-1089h-100v1128z
M179 561q1 -101 22.5 -187.5t65 -149.5t108.5 -98.5t154 -35.5q52 0 100 19.5t85 54t59 80.5t22 99q0 106 -73 162t-204 56h-339zM1726 988q0 -49 -50 -49q-51 0 -51 49q0 51 51 51q50 0 50 -51zM1132 742q0 -51 -49 -51q-52 0 -52 51q0 49 50 49q24 0 37.5 -12t13.5 -37z
M1132 394q0 -25 -13.5 -37t-37.5 -12q-50 0 -50 49q0 51 50 51q24 0 37.5 -12.5t13.5 -38.5zM1552 1025q0 -52 -52 -52q-49 0 -49 52q0 49 49 49q52 0 52 -49zM1873 889q0 -49 -47 -49q-53 0 -53 49q0 52 53 52q47 0 47 -52zM1873 244q0 -49 -47 -49q-53 0 -53 49
q0 52 53 52q47 0 47 -52zM1552 113q0 -51 -52 -51q-49 0 -49 51q0 49 49 49q52 0 52 -49zM1230 244q0 -49 -49 -49q-51 0 -51 49q0 52 51 52q49 0 49 -52zM1230 889q0 -49 -49 -49q-51 0 -51 47q0 54 51 54q49 0 49 -52zM1971 394q0 -49 -51 -49q-49 0 -49 49q0 51 49 51
q51 0 51 -51zM1377 988q0 -49 -51 -49q-49 0 -49 49q0 51 49 51q51 0 51 -51zM1971 742q0 -51 -51 -51q-49 0 -49 51q0 49 51 49q49 0 49 -49zM1726 146q0 -47 -50 -47q-51 0 -51 47q0 51 51 51q50 0 50 -51zM1377 150q0 -51 -51 -51q-49 0 -49 47q0 51 49 51q51 0 51 -47z
M1095 568q0 -49 -47 -49q-54 0 -54 49t54 49q47 0 47 -49zM2008 568q0 -49 -49 -49q-51 0 -51 49t51 49q49 0 49 -49z" />
    <glyph glyph-name="ori_virama" unicode="&#xb4d;" 
d="M174 -339h-112l-303 249l91 59z" />
    <glyph glyph-name="ori_aimark" unicode="&#xb56;" 
d="M-201 1118q40 30 70 74.5t30 101.5q0 37 -15.5 64.5t-40.5 45.5t-56 27t-61 9q-53 0 -103.5 -14t-99.5 -35.5t-97.5 -46t-98.5 -46t-102 -35.5t-108 -14q-109 0 -185.5 52.5t-129.5 138.5l73 66q16 -29 39.5 -57.5t54 -50.5t67.5 -35.5t81 -13.5q47 0 95.5 14t99 35.5
t102 46t103.5 46t104.5 35.5t104.5 14q56 0 106 -17.5t87 -49.5t58.5 -77.5t21.5 -102.5q0 -69 -28.5 -120.5t-71.5 -93.5z" />
    <glyph glyph-name="ori_aumark" unicode="&#xb57;" horiz-adv-x="370" 
d="M100 1128q40 30 70 70t30 96q0 37 -15.5 64.5t-40.5 45.5t-56 27t-61 9q-53 0 -103.5 -14t-99.5 -35.5t-97.5 -46t-98.5 -46t-102 -35.5t-108 -14q-109 0 -185.5 52.5t-129.5 138.5l73 66q16 -29 39.5 -57.5t54 -50.5t67.5 -35.5t81 -13.5q47 0 95.5 14t99 35.5t102 46
t103.5 46t104.5 35.5t104.5 14q56 0 106 -17.5t87 -49.5t58.5 -77.5t21.5 -102.5q0 -35 -7.5 -63t-21 -52.5t-32 -46t-39.5 -42.5v-1089h-100v1128z" />
    <glyph glyph-name="ori_rra" unicode="&#xb5c;" horiz-adv-x="1341" 
d="M544 -175q0 31 22 53t53 22t53 -22t22 -53t-22 -53t-53 -22t-53 22t-22 53zM880 300q0 35 -12 64.5t-32 53t-46 40t-54 25.5l-140 -127l-66 72l350 311l64 -68l-135 -122q38 -17 69.5 -44.5t54 -62t35 -74t12.5 -79.5q0 -64 -25.5 -118.5t-72.5 -94.5t-113.5 -63
t-148.5 -23q-59 0 -114 17t-101.5 48.5t-81 77.5t-51.5 105q-88 67 -140 161.5t-52 213.5q0 118 44.5 213t125.5 162t193.5 103.5t249.5 36.5q108 0 207 -33t174.5 -94t121 -147t45.5 -192q0 -38 -7 -77.5t-25.5 -78.5t-50 -77t-79.5 -73l-42 101q34 26 55 52.5t31.5 53
t14 53t3.5 52.5q0 85 -39 151.5t-102 113t-143 71t-162 24.5q-113 0 -207.5 -30t-163 -84.5t-106.5 -131t-38 -169.5q0 -64 22 -118t60 -100q16 100 87.5 167t178.5 105l40 -82q-44 -15 -82 -37.5t-66.5 -52.5t-45 -68t-16.5 -85q0 -68 26 -116t65 -78t85.5 -44t88.5 -14
q43 0 89 12t83 37.5t61 65t24 95.5z" />
    <glyph glyph-name="ori_rha" unicode="&#xb5d;" horiz-adv-x="1341" 
d="M544 -175q0 31 22 53t53 22t53 -22t22 -53t-22 -53t-53 -22t-53 22t-22 53zM890 -115q-71 23 -124.5 50t-93.5 56q-6 -1 -12 -1h-11q-71 0 -132 17t-110 48.5t-83.5 77.5t-51.5 105q-88 67 -140 161.5t-52 213.5q0 118 44.5 213t125.5 162t193.5 103.5t249.5 36.5
q108 0 207 -33t174.5 -94t121 -147t45.5 -192q0 -38 -7 -77.5t-25.5 -78.5t-50 -77t-79.5 -73l-42 101q34 26 55 52.5t31.5 53t14 53t3.5 52.5q0 85 -39 151.5t-102 113t-143 71t-162 24.5q-113 0 -207.5 -30t-163 -84.5t-106.5 -131t-38 -169.5q0 -64 22 -118t60 -100
q16 100 87.5 167t178.5 105l40 -82q-44 -15 -82 -37.5t-66.5 -52.5t-45 -68t-16.5 -85q0 -56 18 -99.5t48.5 -75t69.5 -52t81 -29.5q-30 44 -41.5 87.5t-11.5 84.5q0 53 19.5 95.5t52.5 72.5t76.5 46t91.5 16t90 -18t72.5 -49.5t48 -73t17.5 -89.5q0 -49 -15 -88t-41 -69.5
t-61 -52.5t-75 -35q30 -15 62 -25.5t64 -17.5zM890 253q0 29 -10 54t-27.5 43t-40.5 28t-50 10q-61 0 -100.5 -36.5t-39.5 -104.5q0 -50 21 -91.5t56 -75.5q57 6 93.5 24t58.5 43t30.5 52.5t8.5 53.5z" />
    <glyph glyph-name="ori_yya" unicode="&#xb5f;" horiz-adv-x="1437" 
d="M733 90q45 0 78.5 19t61 49t52 66.5t50.5 71t56.5 63.5t70.5 44v381q-61 68 -118 114.5t-113.5 75.5t-114 41.5t-119.5 12.5q-67 0 -128.5 -17.5t-108.5 -53t-75 -89t-28 -125.5q0 -52 15.5 -90.5t42 -64t62 -38t75.5 -12.5q9 0 29.5 1t50.5 7t68 19.5t82 38.5l46 -102
q-36 -16 -71.5 -36t-63.5 -47.5t-45.5 -64.5t-17.5 -86q0 -47 15 -80.5t38.5 -55.5t52.5 -32t57 -10zM734 -10q-62 0 -111 22t-83 60.5t-52 91t-18 113.5q0 26 4 46l-192 -134q32 -32 32 -78t-32 -78.5t-85 -32.5t-85 29t-32 75q0 34 20.5 63.5t65.5 60.5l343 231
q-26 -8 -46 -8q-66 0 -116 25.5t-83.5 66.5t-50 93.5t-16.5 106.5q0 93 35.5 165t96 120.5t140 74t168.5 25.5q68 0 132 -16.5t123 -46.5t112 -72.5t98 -94.5v220h100v-705q37 -5 63 -21t42 -39t23 -51t7 -56q0 -54 -25 -97t-75 -84q3 -5 19 -23t34 -38q21 -24 47 -52
l-75 -62l-160 200q10 3 32.5 15t45 32t40 47.5t17.5 60.5q0 7 -3 19t-10.5 23t-21 19.5t-34.5 8.5q-41 0 -71 -24t-57 -60t-54 -78.5t-61.5 -78.5t-80.5 -60t-110 -24z" />
    <glyph glyph-name="ori_rri" unicode="&#xb60;" horiz-adv-x="1413" 
d="M627 563q66 0 122 -22.5t97 -61.5t64.5 -91.5t23.5 -111.5t-23.5 -111t-64.5 -91t-97 -61.5t-122 -22.5q-54 0 -102.5 15.5t-87 43.5t-66 66t-40.5 83q-56 33 -102 76.5t-79 95.5t-51.5 113t-18.5 130q0 118 47.5 213t132.5 162t200.5 103.5t252.5 36.5q76 0 147.5 -13
t134.5 -37t115.5 -56.5t90.5 -71.5t59 -83t21 -91q0 -41 -18.5 -71t-45 -51t-55.5 -35t-50 -22q46 -6 78 -19.5t52.5 -30.5t29.5 -37.5t9 -40.5q0 -71 -89 -120q35 -13 57 -28.5t34.5 -32t17 -32t4.5 -28.5q0 -48 -29 -79t-95 -59l152 -206l-82 -59l-221 265l48 63
q26 5 49 11.5t40.5 15.5t27.5 22t10 30q0 33 -36 49t-112 16l-19 91q26 5 51.5 10.5t46 13.5t33 20.5t12.5 30.5q0 38 -44 53.5t-120 15.5l-19 91q36 15 69 31t58.5 35t40.5 40.5t15 46.5q0 58 -42.5 105t-110 79.5t-150.5 50t-165 17.5q-110 0 -207 -30t-169.5 -84.5
t-114.5 -131t-42 -169.5q0 -88 40.5 -158t104.5 -124q10 49 37 91.5t66.5 74t90 49t108.5 17.5zM420 276q0 -39 15.5 -72.5t43 -59t65.5 -40t83 -14.5t83 14.5t65.5 40t43 59t15.5 72.5t-15.5 73t-43 59.5t-65.5 40t-83 14.5t-83 -14.5t-65.5 -40t-43 -59.5t-15.5 -73z" />
    <glyph glyph-name="ori_lli" unicode="&#xb61;" horiz-adv-x="1022" 
d="M748 -151q-79 35 -136 71t-99 72q-11 -1 -21 -1.5t-19 -0.5q-91 0 -164 26t-124 71t-78 106t-27 130q0 76 26 130.5t68.5 94t97 66.5t111 49t111 42.5t97 45.5t68.5 58.5t26 81.5q0 30 -15 55t-42 43.5t-64.5 28.5t-82.5 10q-48 0 -85.5 -10t-63 -27.5t-39 -40.5
t-13.5 -50q0 -21 7 -38t17.5 -30t21.5 -22.5t20 -15.5l-56 -81q-14 10 -33 26.5t-36 40t-29 54.5t-12 71q0 54 25.5 95.5t68.5 70t100.5 43t121.5 14.5q67 0 122.5 -19.5t95 -52.5t61 -76t21.5 -91q0 -64 -26 -109.5t-68.5 -78t-97 -56.5t-111.5 -45.5t-111.5 -44.5t-97 -54
t-68.5 -74t-26 -104q0 -47 18.5 -86t50 -69t74.5 -49t92 -26q-23 40 -32 77.5t-9 72.5q0 53 20.5 98t56.5 77.5t84.5 51t103.5 18.5q58 0 103 -16.5t76 -45.5t47.5 -68t16.5 -85q0 -58 -22 -101.5t-58.5 -75.5t-83 -53t-95.5 -33q31 -23 70 -46.5t89 -48.5zM792 274
q0 22 -9.5 43t-27 36.5t-43 25t-56.5 9.5q-40 0 -72 -12t-54 -32t-34 -47t-12 -57q0 -29 10.5 -65.5t46.5 -81.5q56 6 102 21t79 38.5t51.5 54t18.5 67.5z" />
    <glyph glyph-name="ori_zero" unicode="&#xb66;" horiz-adv-x="1067" 
d="M122 554q0 98 37.5 183t103 147.5t154 98.5t191.5 36t191.5 -36t154 -98.5t103 -147.5t37.5 -183t-37.5 -183t-103 -147.5t-154 -98.5t-191.5 -36t-191.5 36t-154 98.5t-103 147.5t-37.5 183zM222 554q0 -78 29.5 -144.5t81.5 -115.5t122.5 -77t152.5 -28t152.5 28
t122.5 77t81.5 115.5t29.5 144.5t-29.5 144.5t-81.5 115.5t-122.5 77t-152.5 28t-152.5 -28t-122.5 -77t-81.5 -115.5t-29.5 -144.5z" />
    <glyph glyph-name="ori_one" unicode="&#xb67;" horiz-adv-x="886" 
d="M180 682q0 -76 24 -146t66.5 -132t99.5 -114.5t123.5 -93.5t138.5 -68t144 -38l-36 -100q-90 17 -174 51.5t-157.5 83.5t-134 110.5t-103.5 132.5t-67 150.5t-24 163.5q0 96 30.5 177.5t83.5 141t126 93.5t157 34q62 0 118 -20t98.5 -57.5t67.5 -90.5t25 -120
q0 -68 -25.5 -124t-68.5 -95.5t-99.5 -61t-118.5 -21.5q-42 0 -83 11t-79 32t-71.5 52t-59.5 72q-1 -6 -1 -11.5v-11.5zM479 653q32 0 68.5 10.5t67 33t51 57.5t20.5 84q0 41 -18 75.5t-47 60t-67 40t-77 14.5q-50 0 -91.5 -14t-75.5 -39t-59.5 -59.5t-41.5 -75.5
q16 -42 44 -76.5t64 -59t77.5 -38t84.5 -13.5z" />
    <glyph glyph-name="ori_two" unicode="&#xb68;" horiz-adv-x="886" 
d="M686 682q0 6 -0.5 11.5t-0.5 11.5q-26 -41 -59.5 -72t-71.5 -52t-79.5 -32t-82.5 -11q-62 0 -118.5 21.5t-99.5 61t-68.5 95.5t-25.5 124q0 67 25 120t67.5 90.5t98.5 57.5t118 20q84 0 157 -34t126 -93.5t83.5 -141t30.5 -177.5q0 -84 -24 -163.5t-67 -150.5
t-103.5 -132.5t-134 -110.5t-157.5 -83.5t-174 -51.5l-36 100q72 11 144 38t138.5 68t123.5 93.5t99.5 114.5t66.5 132.5t24 145.5zM387 653q43 0 84.5 13.5t77.5 38t64 59t43 76.5q-17 41 -42 75.5t-59 59.5t-75.5 39t-90.5 14q-39 0 -77 -14.5t-67 -40t-47 -60t-18 -75.5
q0 -49 20.5 -84t51 -57.5t67 -33t68.5 -10.5z" />
    <glyph glyph-name="ori_three" unicode="&#xb69;" horiz-adv-x="1450" 
d="M180 651v-24t2 -25q17 27 41.5 51.5t55.5 43t67.5 29t78.5 10.5q51 0 94.5 -19t75 -53t49.5 -81.5t18 -105.5q0 -65 -27 -111.5t-66.5 -76.5t-84 -44.5t-78.5 -14.5q-83 0 -144 37t-101.5 97.5t-60.5 137.5t-20 156q0 83 29 167t86 151.5t140.5 109.5t192.5 42
q47 0 93 -9t87.5 -30t77.5 -55.5t63 -85.5q11 34 31.5 66t50.5 57.5t69.5 41t89.5 15.5q70 0 119 -31.5t80.5 -80t46 -107.5t14.5 -113v-796h-100v778q0 54 -11.5 100t-33 79.5t-51.5 52t-66 18.5q-53 0 -89 -25.5t-58 -63.5t-32 -81.5t-10 -80.5v-777h-100v774
q0 59 -22.5 106t-61.5 80t-91 50.5t-111 17.5q-65 0 -125 -27.5t-106 -77.5t-74 -119t-28 -153zM398 636q-32 0 -60.5 -14t-52.5 -36.5t-43.5 -51t-32.5 -58.5q11 -30 28 -56.5t41 -46.5t55.5 -31.5t72.5 -11.5q24 0 51.5 9.5t51 28.5t38.5 47t15 65q0 34 -12.5 63
t-34.5 49.5t-52 32t-65 11.5z" />
    <glyph glyph-name="ori_four" unicode="&#xb6a;" horiz-adv-x="1090" 
d="M611 669l151 -155q53 -55 82.5 -113t29.5 -130q0 -68 -27.5 -120.5t-74 -88t-108 -54t-129.5 -18.5t-129.5 18.5t-108 54t-74 88t-27.5 120.5q0 72 29.5 130t82.5 113l150 155l-378 374l86 85l369 -380l369 380l86 -85zM535 90q45 0 88 14t76.5 38.5t54 57t20.5 70.5
q0 59 -39 112t-96 109l-104 102l-104 -102q-57 -56 -96 -109t-39 -112q0 -38 20.5 -70.5t54 -57t76.5 -38.5t88 -14z" />
    <glyph glyph-name="ori_five" unicode="&#xb6b;" horiz-adv-x="935" 
d="M722 875q0 -58 -28 -111.5t-73 -106.5q53 -32 112.5 -67t121.5 -69l-72 -92l-234 149l-89 -99l74 -47q28 -18 54 -41.5t45 -51.5t30.5 -60t11.5 -68q0 -30 -13 -68t-41.5 -72t-73 -57.5t-108.5 -23.5q-57 0 -102.5 21t-77.5 56t-49 80.5t-17 95.5q0 57 27.5 111t72.5 106
q-53 32 -112.5 67t-120.5 70l72 92l233 -149l90 98l-74 48q-29 18 -54.5 41.5t-44.5 51.5t-30.5 60t-11.5 68q0 30 13 68t41.5 72t73 57.5t108.5 23.5q57 0 102.5 -21t77.5 -56t49 -80.5t17 -95.5zM427 778q11 -7 26 -17q13 -8 31 -19.5t41 -25.5q38 44 62.5 85t24.5 84
q0 34 -12.5 61t-32 45t-43.5 27.5t-48 9.5q-35 0 -61 -11t-42.5 -28t-24.5 -38.5t-8 -43.5q0 -24 9 -44.5t22.5 -36.5t28.5 -28t27 -20zM488 340q-12 7 -27 17q-13 8 -31 19t-40 25q-38 -43 -62.5 -84t-24.5 -84q0 -35 12.5 -61.5t32 -44.5t43.5 -27.5t48 -9.5q35 0 61 10.5
t42.5 28t24.5 39t8 43.5q0 24 -9 44.5t-22.5 36.5t-28.5 28t-27 20z" />
    <glyph glyph-name="ori_six" unicode="&#xb6c;" horiz-adv-x="1107" 
d="M1007 762q0 -102 -45.5 -191.5t-143 -178.5t-250 -184t-366.5 -208l-59 90q195 101 339 189.5t238.5 169.5t140.5 157t46 154q0 58 -16 107.5t-46 85t-73.5 55.5t-97.5 20q-52 0 -88.5 -13t-60 -33.5t-34 -45.5t-10.5 -50q0 -37 14 -62t36 -42t49.5 -26.5t55 -14t51.5 -6
t40 -1.5l39 -81q-16 -18 -50.5 -45.5t-81 -54t-101 -45t-109.5 -18.5q-77 0 -140.5 20t-108.5 57.5t-70 90.5t-25 119q0 53 20.5 101t53.5 91q0 -1 12.5 -9t26.5 -19q17 -12 39 -27q-25 -29 -38.5 -62t-13.5 -75q0 -46 20 -81t53.5 -58.5t77.5 -35.5t93 -12q48 0 83 8
t59.5 19t39 22.5t22.5 18.5q-57 4 -102.5 22.5t-77.5 49t-49.5 70.5t-17.5 86q0 50 21.5 94t60 77t93 52t120.5 19q90 0 152.5 -35.5t102.5 -90t58 -119t18 -121.5z" />
    <glyph glyph-name="ori_seven" unicode="&#xb6d;" horiz-adv-x="985" 
d="M345 857q42 0 79.5 -16.5t66 -45.5t45 -68t16.5 -83t-17.5 -83t-47.5 -68t-70 -45.5t-86 -16.5t-91 18t-80.5 56t-57.5 98.5t-22 145.5q0 93 35.5 164t93 119t131 72t150.5 24q64 0 118 -18t98 -49t77.5 -71.5t56 -85t34 -90.5t11.5 -87q0 -63 -9.5 -122.5t-36.5 -117
t-74.5 -115.5t-124 -117.5t-185.5 -122.5t-258 -132l-56 90q134 59 234 114.5t171.5 108.5t117.5 105t73 103t37.5 102t10.5 104q0 54 -20.5 107.5t-58.5 96.5t-92.5 70t-122.5 27q-59 0 -116.5 -15t-102.5 -47.5t-73 -82.5t-28 -120v-6q6 14 21 31.5t37.5 32.5t51.5 25.5
t64 10.5zM210 644q0 -23 9.5 -43.5t26 -36t38.5 -24.5t47 -9t47 9t38.5 24.5t26 36t9.5 43.5t-9.5 43.5t-26 36t-38.5 24.5t-47 9t-47 -9t-38.5 -24.5t-26 -36t-9.5 -43.5z" />
    <glyph glyph-name="ori_eight" unicode="&#xb6e;" horiz-adv-x="868" 
d="M768 1028h-371q-48 0 -87.5 -18t-68.5 -48.5t-45 -72t-16 -88.5v-801h-100v809q0 79 28.5 137t73.5 96t100.5 57t109.5 19h376v-90z" />
    <glyph glyph-name="ori_nine" unicode="&#xb6f;" horiz-adv-x="963" 
d="M638 -10q-124 34 -227 97.5t-176.5 146.5t-114 181.5t-40.5 203.5q0 171 79.5 299t230.5 210q12 -20 34.5 -52t51 -72t61 -84.5t64.5 -87.5q75 -102 162 -218v504h100v-671h-100q-72 99 -143 197q-30 42 -63.5 87t-66.5 90.5t-64.5 89t-58.5 81.5q-51 -38 -86.5 -79.5
t-58 -87.5t-32.5 -97t-10 -109q0 -101 41.5 -186t110.5 -153.5t157.5 -119t182.5 -82.5z" />
    <glyph glyph-name="ori_isshar" unicode="&#xb70;" horiz-adv-x="1279" 
d="M1179 997l-675 -958l-424 362l91 104l308 -271l602 841zM355 611q0 38 26 64t64 26t64 -26t26 -64t-26 -64t-64 -26t-64 26t-26 64z" />
    <glyph glyph-name="ori_wa" unicode="&#xb71;" horiz-adv-x="998" 
d="M268 1070q-16 -23 -31.5 -49.5t-28 -60t-20.5 -74t-8 -90.5q0 -73 21 -142.5t64 -123.5t109 -87t157 -33q37 0 83.5 8.5t87.5 27.5t68.5 49.5t27.5 74.5q0 63 -61 89t-186 26h-96l-37 100h63q45 0 91.5 8t84 25t61 43.5t23.5 63.5q0 21 -7.5 39.5t-23.5 32.5t-41 22.5
t-59 8.5q-42 0 -72 -13t-49.5 -34.5t-30.5 -49t-14 -56.5l-87 22q4 44 22 85.5t49.5 74t76.5 52t103 19.5q63 0 107 -16t72 -43t41 -61.5t13 -71.5q0 -62 -40 -111t-124 -75q53 -10 94.5 -23t69.5 -34t42.5 -51t14.5 -74q0 -63 -26.5 -110t-73.5 -79v-389h-100v135
q-43 -47 -101.5 -74.5t-128.5 -27.5q-63 0 -115.5 20t-90 56t-58 85.5t-20.5 108.5q0 77 34 135q-39 39 -65 85t-42.5 94.5t-23.5 97t-7 91.5q0 60 9.5 109.5t24.5 89.5t32.5 73t33.5 60zM531 310q-71 0 -128 14.5t-103 40.5q-16 -32 -16 -72q0 -39 14.5 -70t39 -53.5
t58 -34.5t71.5 -12q45 0 84.5 16.5t70 43.5t50.5 60t26 66v23q-38 -11 -79.5 -16.5t-87.5 -5.5z" />
    <glyph glyph-name="ori_rri_matra" unicode="&#xb44;" 
d="M-100 -224q-90 -4 -152 -21t-100.5 -41.5t-55.5 -55t-17 -61.5q0 -39 26.5 -75t78.5 -57q-20 42 -20 76t14 63t41 51t67.5 34.5t93.5 12.5q35 0 69.5 -12t62 -34.5t44.5 -55.5t17 -75q0 -53 -24.5 -88t-63.5 -56t-87 -29.5t-94 -8.5q-56 0 -114 14.5t-105 46t-76.5 80
t-29.5 116.5q0 42 19.5 80t53 68t78 51.5t93.5 30.5q-13 3 -28 8.5t-28 14.5t-21.5 22.5t-8.5 31.5q0 27 19 45t45 28.5t54.5 15t48.5 4.5h100v-60h-14q-31 0 -58.5 -2.5t-48 -8.5t-32.5 -16.5t-12 -25.5q0 -18 18 -29t44 -17.5t54 -9t49 -2.5v-53zM-200 -557q75 0 122 21
t47 67q0 36 -32.5 59t-81.5 23q-54 0 -87 -25.5t-33 -79.5q0 -34 22 -62q21 -3 43 -3z" />
    <glyph glyph-name="ori_li_matra" unicode="&#xb62;" 
d="M-415 -554q0 32 12.5 59t34 46.5t50.5 30.5t62 11q70 0 108 -37t38 -92q0 -50 -26.5 -82.5t-65 -52t-82 -27.5t-77.5 -8q-55 0 -98.5 15.5t-74 42.5t-47 63.5t-16.5 78.5q0 61 27 99.5t67 63.5t87.5 41.5t87.5 34t67 40.5t27 62q0 36 -34 59t-88 23q-58 0 -89.5 -22.5
t-31.5 -54.5q0 -26 14.5 -41t25.5 -23l-34 -48q-9 6 -20 15.5t-21.5 24t-17.5 33t-7 42.5q0 32 15 57t41 42t60.5 26t73.5 9q40 0 73.5 -11.5t57 -31.5t36.5 -46t13 -55q0 -51 -27 -82.5t-67.5 -53t-87.5 -37.5t-87.5 -37t-67.5 -50.5t-27 -78.5q0 -28 11 -51.5t30 -41.5
t44.5 -29.5t55.5 -15.5q-14 24 -19.5 46.5t-5.5 43.5zM-170 -536q0 27 -21.5 48t-59.5 21q-49 0 -76.5 -26.5t-27.5 -62.5q0 -17 6.5 -39t28.5 -49q67 8 108.5 36t41.5 72z" />
    <glyph glyph-name="ori_lli_matra" unicode="&#xb63;" 
d="M-196 -791q-48 21 -82.5 42.5t-59.5 43.5q-6 -1 -12 -1h-11q-55 0 -98.5 15.5t-74 42.5t-47 63.5t-16.5 78.5q0 61 27 99.5t67 63.5t87.5 41.5t87.5 34t67 40.5t27 62q0 36 -34 59t-88 23q-58 0 -89.5 -22.5t-31.5 -54.5q0 -26 14.5 -41t25.5 -23l-34 -48q-9 6 -20 15.5
t-21.5 24t-17.5 33t-7 42.5q0 32 15 57t41 42t60.5 26t73.5 9q40 0 73.5 -11.5t57 -31.5t36.5 -46t13 -55q0 -51 -27 -82.5t-67.5 -53t-87.5 -37.5t-87.5 -37t-67.5 -50.5t-27 -78.5q0 -28 11 -51.5t30 -41.5t44.5 -29.5t55.5 -15.5q-14 24 -19.5 47t-5.5 43q0 32 12.5 59
t34 46.5t50.5 30.5t62 11q70 0 108 -37t38 -92q0 -35 -13.5 -61t-35.5 -45t-50 -32t-57 -20q19 -14 42.5 -28t53.5 -29zM-170 -536q0 27 -21.5 48t-59.5 21q-49 0 -76.5 -26.5t-27.5 -62.5q0 -17 6 -39.5t28 -48.5q68 7 109.5 35.5t41.5 72.5z" />
    <glyph glyph-name="dn_danda" unicode="&#x964;" horiz-adv-x="490" 
d="M260 0h-140v1118h140v-1118z" />
    <glyph glyph-name="dn_dbl_danda" unicode="&#x965;" horiz-adv-x="817" 
d="M260 0h-140v1118h140v-1118zM587 0h-140v1118h140v-1118z" />
    <glyph glyph-name="ori_ka.ssa" horiz-adv-x="1302" 
d="M1102 1118h100v-1118h-100v164l-6 6q-23 -36 -56.5 -68.5t-74 -57t-86 -39.5t-93.5 -15q-77 0 -136 22t-99 60.5t-60.5 91t-20.5 113.5q0 26 4 46l-192 -134q32 -32 32 -78t-32 -78.5t-85 -32.5t-85 29t-32 75q0 34 20.5 63.5t65.5 60.5l343 231q-26 -8 -46 -8
q-66 0 -116 25.5t-83.5 66.5t-50 93.5t-16.5 106.5q0 93 35.5 165t96 120.5t140 74t168.5 25.5q68 0 132 -16.5t123 -46.5t112 -72.5t98 -94.5v220zM637 1028q-55 0 -106 -12t-94 -35l660 -667l5 13v457q-61 68 -118 114.5t-113.5 75.5t-114 41.5t-119.5 12.5zM570 268
q0 -47 19 -80.5t49 -55.5t66.5 -32t70.5 -10q40 0 78 11t71.5 29.5t63 43t53.5 52.5l-274 276q-36 -16 -71.5 -36t-63.5 -47.5t-45 -64.5t-17 -86zM297 743q0 -52 15.5 -90.5t42 -64t62 -38t75.5 -12.5q52 0 100 12.5t93 33.5l-329 332q-28 -34 -43.5 -76.5t-15.5 -96.5z
" />
    <glyph glyph-name="ori_ja.nya" horiz-adv-x="1256" 
d="M1156 851q0 -75 -31.5 -140.5t-105.5 -114.5q23 -6 47.5 -19.5t44.5 -35t32.5 -51t12.5 -67.5v-423h-100v424q0 48 -27.5 72.5t-65.5 24.5q-39 0 -67.5 -22t-28.5 -76v-423h-100v263q-8 -15 -21.5 -30.5t-32.5 -28t-42.5 -20.5t-50.5 -8q-53 0 -96 29.5t-66 89.5
q-19 -53 -61 -86t-112 -33q-46 0 -84 21.5t-65 55.5t-41.5 76.5t-14.5 85.5q0 69 30 121t77 96q-57 54 -82 119t-25 133q0 72 31 134.5t78 109.5l84 -55q-15 -13 -31 -32.5t-30 -43.5t-23 -52t-9 -59q0 -67 31.5 -119.5t88 -89t134.5 -55.5t172 -19t176 12t143 41t96 76
t35 118q0 81 -42.5 129.5t-114.5 48.5q-59 0 -95.5 -37t-36.5 -112v-127h-100v136q0 63 -30.5 101.5t-81.5 38.5q-26 0 -49.5 -10t-41.5 -27.5t-28.5 -41.5t-10.5 -52q0 -29 8.5 -53t20.5 -42.5t24 -31t20 -18.5l-73 -59q-16 16 -33.5 39t-32.5 50t-24.5 56.5t-9.5 59.5
q0 52 17 94.5t48 72.5t73 46.5t93 16.5q62 0 98 -26t68 -74q12 20 29.5 38.5t40 32t51 21.5t63.5 8q55 0 101 -21.5t79 -58.5t51.5 -88t18.5 -109zM180 419q0 -38 8.5 -65.5t23.5 -44.5t34.5 -25t42.5 -8q50 0 83 33.5t33 95.5v118q-45 11 -81.5 25.5t-68.5 33.5
q-32 -30 -53.5 -73t-21.5 -90zM632 276q33 0 58 13t42.5 33t26 43.5t8.5 45.5v19q0 50 19 85q-81 -12 -183 -12q-26 0 -50.5 1t-47.5 3v-97q0 -24 7.5 -48t23 -43t39.5 -31t57 -12z" />
    <glyph glyph-name="ori_aa_matra.25CC" horiz-adv-x="1427" 
d="M1227 0v1118h100v-1118h-100zM959 889q0 -49 -47 -49q-53 0 -53 49q0 52 53 52q47 0 47 -52zM812 988q0 -49 -50 -49q-51 0 -51 49q0 51 51 51q50 0 50 -51zM1057 742q0 -51 -51 -51q-49 0 -49 51q0 49 51 49q49 0 49 -49zM1094 568q0 -49 -49 -49q-51 0 -51 49t51 49
q49 0 49 -49zM638 1025q0 -52 -52 -52q-49 0 -49 52q0 49 49 49q52 0 52 -49zM463 988q0 -49 -51 -49q-49 0 -49 49q0 51 49 51q51 0 51 -51zM1057 394q0 -49 -51 -49q-49 0 -49 49q0 51 49 51q51 0 51 -51zM316 889q0 -49 -49 -49q-51 0 -51 47q0 54 51 54q49 0 49 -52z
M959 244q0 -49 -47 -49q-53 0 -53 49q0 52 53 52q47 0 47 -52zM812 146q0 -47 -50 -47q-51 0 -51 47q0 51 51 51q50 0 50 -51zM218 742q0 -51 -49 -51q-52 0 -52 51q0 49 50 49q24 0 37.5 -12t13.5 -37zM181 568q0 -49 -47 -49q-54 0 -54 49t54 49q47 0 47 -49zM638 113
q0 -51 -52 -51q-49 0 -49 51q0 49 49 49q52 0 52 -49zM218 394q0 -25 -13.5 -37t-37.5 -12q-50 0 -50 49q0 51 50 51q24 0 37.5 -12.5t13.5 -38.5zM463 150q0 -51 -51 -51q-49 0 -49 47q0 51 49 51q51 0 51 -47zM316 244q0 -49 -49 -49q-51 0 -51 49q0 52 51 52q49 0 49 -52
z" />
    <glyph glyph-name="ori_i_matra.25CC" horiz-adv-x="1194" 
d="M586 1433q-109 0 -204.5 -48.5t-179.5 -127.5l-67 61q44 45 96 84t110 68t120 46t125 17t125 -17t120 -46t110 -68t96 -84l-67 -61q-84 79 -179.5 127.5t-204.5 48.5zM959 889q0 -49 -47 -49q-53 0 -53 49q0 52 53 52q47 0 47 -52zM812 988q0 -49 -50 -49q-51 0 -51 49
q0 51 51 51q50 0 50 -51zM1057 742q0 -51 -51 -51q-49 0 -49 51q0 49 51 49q49 0 49 -49zM1094 568q0 -49 -49 -49q-51 0 -51 49t51 49q49 0 49 -49zM638 1025q0 -52 -52 -52q-49 0 -49 52q0 49 49 49q52 0 52 -49zM463 988q0 -49 -51 -49q-49 0 -49 49q0 51 49 51
q51 0 51 -51zM1057 394q0 -49 -51 -49q-49 0 -49 49q0 51 49 51q51 0 51 -51zM316 889q0 -49 -49 -49q-51 0 -51 47q0 54 51 54q49 0 49 -52zM959 244q0 -49 -47 -49q-53 0 -53 49q0 52 53 52q47 0 47 -52zM812 146q0 -47 -50 -47q-51 0 -51 47q0 51 51 51q50 0 50 -51z
M218 742q0 -51 -49 -51q-52 0 -52 51q0 49 50 49q24 0 37.5 -12t13.5 -37zM181 568q0 -49 -47 -49q-54 0 -54 49t54 49q47 0 47 -49zM638 113q0 -51 -52 -51q-49 0 -49 51q0 49 49 49q52 0 52 -49zM218 394q0 -25 -13.5 -37t-37.5 -12q-50 0 -50 49q0 51 50 51
q24 0 37.5 -12.5t13.5 -38.5zM463 150q0 -51 -51 -51q-49 0 -49 47q0 51 49 51q51 0 51 -47zM316 244q0 -49 -49 -49q-51 0 -51 49q0 52 51 52q49 0 49 -52z" />
    <glyph glyph-name="ori_ii_matra.25CC" horiz-adv-x="1460" 
d="M959 889q0 -49 -47 -49q-53 0 -53 49q0 52 53 52q47 0 47 -52zM812 988q0 -49 -50 -49q-51 0 -51 49q0 51 51 51q50 0 50 -51zM1057 742q0 -51 -51 -51q-49 0 -49 51q0 49 51 49q49 0 49 -49zM1094 568q0 -49 -49 -49q-51 0 -51 49t51 49q49 0 49 -49zM638 1025
q0 -52 -52 -52q-49 0 -49 52q0 49 49 49q52 0 52 -49zM463 988q0 -49 -51 -49q-49 0 -49 49q0 51 49 51q51 0 51 -51zM1057 394q0 -49 -51 -49q-49 0 -49 49q0 51 49 51q51 0 51 -51zM316 889q0 -49 -49 -49q-51 0 -51 47q0 54 51 54q49 0 49 -52zM959 244q0 -49 -47 -49
q-53 0 -53 49q0 52 53 52q47 0 47 -52zM812 146q0 -47 -50 -47q-51 0 -51 47q0 51 51 51q50 0 50 -51zM218 742q0 -51 -49 -51q-52 0 -52 51q0 49 50 49q24 0 37.5 -12t13.5 -37zM181 568q0 -49 -47 -49q-54 0 -54 49t54 49q47 0 47 -49zM638 113q0 -51 -52 -51
q-49 0 -49 51q0 49 49 49q52 0 52 -49zM218 394q0 -25 -13.5 -37t-37.5 -12q-50 0 -50 49q0 51 50 51q24 0 37.5 -12.5t13.5 -38.5zM463 150q0 -51 -51 -51q-49 0 -49 47q0 51 49 51q51 0 51 -47zM316 244q0 -49 -49 -49q-51 0 -51 49q0 52 51 52q49 0 49 -52zM1360 1241
v-1241h-100v1121l-209 -160l-64 78l273 202h100z" />
    <glyph glyph-name="ori_u_matra.25CC" horiz-adv-x="1194" 
d="M708 0h100v-100q0 -57 -8 -104.5t-22 -87.5q24 -26 49.5 -50t53.5 -42t60 -29t70 -11q48 0 90 23t77 58l47 -71q-55 -55 -108.5 -82.5t-111.5 -27.5q-44 0 -82 12t-71 32t-62.5 45.5t-57.5 53.5q-27 -40 -60.5 -67t-68 -44t-68.5 -24.5t-62 -7.5q-56 0 -102.5 15t-80 43
t-52 67.5t-18.5 88.5t18 88t49.5 66t75.5 41.5t96 14.5q39 0 72 -8.5t62 -23t54.5 -34t48.5 -41.5q12 48 12 107v100zM453 -200q-25 0 -49 -7t-42.5 -20.5t-30 -34t-11.5 -48.5q0 -26 11.5 -47t31 -36t45 -23t54.5 -8q56 0 107.5 31t86.5 89q-45 44 -93 74t-110 30zM959 889
q0 -49 -47 -49q-53 0 -53 49q0 52 53 52q47 0 47 -52zM812 988q0 -49 -50 -49q-51 0 -51 49q0 51 51 51q50 0 50 -51zM1057 742q0 -51 -51 -51q-49 0 -49 51q0 49 51 49q49 0 49 -49zM1094 568q0 -49 -49 -49q-51 0 -51 49t51 49q49 0 49 -49zM638 1025q0 -52 -52 -52
q-49 0 -49 52q0 49 49 49q52 0 52 -49zM463 988q0 -49 -51 -49q-49 0 -49 49q0 51 49 51q51 0 51 -51zM1057 394q0 -49 -51 -49q-49 0 -49 49q0 51 49 51q51 0 51 -51zM316 889q0 -49 -49 -49q-51 0 -51 47q0 54 51 54q49 0 49 -52zM959 244q0 -49 -47 -49q-53 0 -53 49
q0 52 53 52q47 0 47 -52zM812 146q0 -47 -50 -47q-51 0 -51 47q0 51 51 51q50 0 50 -51zM218 742q0 -51 -49 -51q-52 0 -52 51q0 49 50 49q24 0 37.5 -12t13.5 -37zM181 568q0 -49 -47 -49q-54 0 -54 49t54 49q47 0 47 -49zM638 113q0 -51 -52 -51q-49 0 -49 51q0 49 49 49
q52 0 52 -49zM218 394q0 -25 -13.5 -37t-37.5 -12q-50 0 -50 49q0 51 50 51q24 0 37.5 -12.5t13.5 -38.5zM463 150q0 -51 -51 -51q-49 0 -49 47q0 51 49 51q51 0 51 -47zM316 244q0 -49 -49 -49q-51 0 -51 49q0 52 51 52q49 0 49 -52z" />
    <glyph glyph-name="ori_uu_matra.25CC" horiz-adv-x="1316" 
d="M1148 -544l-228 217q-2 -45 -19 -81.5t-45 -62t-64.5 -39.5t-78.5 -14q-53 0 -94.5 16.5t-70 45.5t-43.5 69t-15 88q0 47 16.5 80t41.5 56.5t53.5 41.5t53.5 36t41.5 40t16.5 53h100q0 -50 -16.5 -82.5t-41.5 -55.5t-53.5 -40t-53.5 -35t-41.5 -40.5t-16.5 -57.5
q0 -23 8 -44t24 -36.5t38.5 -25t52.5 -9.5q28 0 52 8.5t41 23.5t27 35t10 42q0 18 -6 33.5t-11 23.5l78 67l312 -283zM959 889q0 -49 -47 -49q-53 0 -53 49q0 52 53 52q47 0 47 -52zM812 988q0 -49 -50 -49q-51 0 -51 49q0 51 51 51q50 0 50 -51zM1057 742q0 -51 -51 -51
q-49 0 -49 51q0 49 51 49q49 0 49 -49zM1094 568q0 -49 -49 -49q-51 0 -51 49t51 49q49 0 49 -49zM638 1025q0 -52 -52 -52q-49 0 -49 52q0 49 49 49q52 0 52 -49zM463 988q0 -49 -51 -49q-49 0 -49 49q0 51 49 51q51 0 51 -51zM1057 394q0 -49 -51 -49q-49 0 -49 49
q0 51 49 51q51 0 51 -51zM316 889q0 -49 -49 -49q-51 0 -51 47q0 54 51 54q49 0 49 -52zM959 244q0 -49 -47 -49q-53 0 -53 49q0 52 53 52q47 0 47 -52zM812 146q0 -47 -50 -47q-51 0 -51 47q0 51 51 51q50 0 50 -51zM218 742q0 -51 -49 -51q-52 0 -52 51q0 49 50 49
q24 0 37.5 -12t13.5 -37zM181 568q0 -49 -47 -49q-54 0 -54 49t54 49q47 0 47 -49zM638 113q0 -51 -52 -51q-49 0 -49 51q0 49 49 49q52 0 52 -49zM218 394q0 -25 -13.5 -37t-37.5 -12q-50 0 -50 49q0 51 50 51q24 0 37.5 -12.5t13.5 -38.5zM463 150q0 -51 -51 -51
q-49 0 -49 47q0 51 49 51q51 0 51 -47zM316 244q0 -49 -49 -49q-51 0 -51 49q0 52 51 52q49 0 49 -52z" />
    <glyph glyph-name="ori_ri_matra.25CC" horiz-adv-x="1194" 
d="M571 -419q0 34 14 63t41 51t67.5 34.5t93.5 12.5q35 0 69.5 -12t62 -34.5t44.5 -55.5t17 -75q0 -53 -24.5 -88t-63.5 -56t-87 -29.5t-94 -8.5q-56 0 -114 14.5t-105 46t-76.5 80t-29.5 116.5q0 53 24 91t60 66t78.5 49.5t78.5 44t60 48t24 61.5h100q0 -57 -24 -92.5
t-60 -59.5t-78.5 -42t-78.5 -39t-60 -51t-24 -79q0 -39 26.5 -75t78.5 -57q-20 42 -20 76zM711 -517q75 0 122 21t47 67q0 36 -32.5 59t-81.5 23q-54 0 -87 -25.5t-33 -79.5q0 -33 21 -62q21 -3 44 -3zM959 889q0 -49 -47 -49q-53 0 -53 49q0 52 53 52q47 0 47 -52zM812 988
q0 -49 -50 -49q-51 0 -51 49q0 51 51 51q50 0 50 -51zM1057 742q0 -51 -51 -51q-49 0 -49 51q0 49 51 49q49 0 49 -49zM1094 568q0 -49 -49 -49q-51 0 -51 49t51 49q49 0 49 -49zM638 1025q0 -52 -52 -52q-49 0 -49 52q0 49 49 49q52 0 52 -49zM463 988q0 -49 -51 -49
q-49 0 -49 49q0 51 49 51q51 0 51 -51zM1057 394q0 -49 -51 -49q-49 0 -49 49q0 51 49 51q51 0 51 -51zM316 889q0 -49 -49 -49q-51 0 -51 47q0 54 51 54q49 0 49 -52zM959 244q0 -49 -47 -49q-53 0 -53 49q0 52 53 52q47 0 47 -52zM812 146q0 -47 -50 -47q-51 0 -51 47
q0 51 51 51q50 0 50 -51zM218 742q0 -51 -49 -51q-52 0 -52 51q0 49 50 49q24 0 37.5 -12t13.5 -37zM181 568q0 -49 -47 -49q-54 0 -54 49t54 49q47 0 47 -49zM638 113q0 -51 -52 -51q-49 0 -49 51q0 49 49 49q52 0 52 -49zM218 394q0 -25 -13.5 -37t-37.5 -12q-50 0 -50 49
q0 51 50 51q24 0 37.5 -12.5t13.5 -38.5zM463 150q0 -51 -51 -51q-49 0 -49 47q0 51 49 51q51 0 51 -47zM316 244q0 -49 -49 -49q-51 0 -51 49q0 52 51 52q49 0 49 -52z" />
    <glyph glyph-name="ori_rri_matra.25CC" horiz-adv-x="1194" 
d="M817 -224q-90 -4 -152 -21t-100.5 -41.5t-55.5 -55t-17 -61.5q0 -39 26.5 -75t78.5 -57q-20 42 -20 76t14 63t41 51t67.5 34.5t93.5 12.5q35 0 69.5 -12t62 -34.5t44.5 -55.5t17 -75q0 -53 -24.5 -88t-63.5 -56t-87 -29.5t-94 -8.5q-56 0 -114 14.5t-105 46t-76.5 80
t-29.5 116.5q0 42 19.5 80t53 68t78 51.5t93.5 30.5q-13 3 -28 8.5t-28 14.5t-21.5 22.5t-8.5 31.5q0 27 19 45t45 28.5t54.5 15t48.5 4.5v53h100v-113h-14q-31 0 -58.5 -2.5t-48 -8.5t-32.5 -16.5t-12 -25.5q0 -18 18 -29t44 -17.5t54 -9t49 -2.5v-53zM717 -557
q75 0 122 21t47 67q0 36 -32.5 59t-81.5 23q-54 0 -87 -25.5t-33 -79.5q0 -34 22 -62q21 -3 43 -3zM959 889q0 -49 -47 -49q-53 0 -53 49q0 52 53 52q47 0 47 -52zM812 988q0 -49 -50 -49q-51 0 -51 49q0 51 51 51q50 0 50 -51zM1057 742q0 -51 -51 -51q-49 0 -49 51
q0 49 51 49q49 0 49 -49zM1094 568q0 -49 -49 -49q-51 0 -51 49t51 49q49 0 49 -49zM638 1025q0 -52 -52 -52q-49 0 -49 52q0 49 49 49q52 0 52 -49zM463 988q0 -49 -51 -49q-49 0 -49 49q0 51 49 51q51 0 51 -51zM1057 394q0 -49 -51 -49q-49 0 -49 49q0 51 49 51
q51 0 51 -51zM316 889q0 -49 -49 -49q-51 0 -51 47q0 54 51 54q49 0 49 -52zM959 244q0 -49 -47 -49q-53 0 -53 49q0 52 53 52q47 0 47 -52zM812 146q0 -47 -50 -47q-51 0 -51 47q0 51 51 51q50 0 50 -51zM218 742q0 -51 -49 -51q-52 0 -52 51q0 49 50 49q24 0 37.5 -12
t13.5 -37zM181 568q0 -49 -47 -49q-54 0 -54 49t54 49q47 0 47 -49zM638 113q0 -51 -52 -51q-49 0 -49 51q0 49 49 49q52 0 52 -49zM218 394q0 -25 -13.5 -37t-37.5 -12q-50 0 -50 49q0 51 50 51q24 0 37.5 -12.5t13.5 -38.5zM463 150q0 -51 -51 -51q-49 0 -49 47
q0 51 49 51q51 0 51 -47zM316 244q0 -49 -49 -49q-51 0 -51 49q0 52 51 52q49 0 49 -52z" />
    <glyph glyph-name="ori_e_matra.25CC" horiz-adv-x="2158" 
d="M539 1028q-77 0 -138 -30t-105.5 -80.5t-72 -117t-37.5 -139.5h336q83 0 152 -22t118.5 -63.5t76.5 -100.5t27 -133q0 -84 -32.5 -149.5t-84.5 -110.5t-117.5 -68.5t-131.5 -23.5q-90 0 -171.5 35t-143.5 108t-98.5 186t-36.5 268q0 105 31 202.5t90 173t144.5 120.5
t194.5 45q54 0 108.5 -16.5t101 -46t82 -71.5t52.5 -93l-75 -51q-27 49 -59 83t-66.5 55t-71 30.5t-73.5 9.5zM180 561q1 -101 22.5 -187.5t65 -149.5t108.5 -98.5t154 -35.5q52 0 100 19.5t85 54t59 80.5t22 99q0 106 -73 162t-204 56h-339zM1923 889q0 -49 -47 -49
q-53 0 -53 49q0 52 53 52q47 0 47 -52zM1776 988q0 -49 -50 -49q-51 0 -51 49q0 51 51 51q50 0 50 -51zM2021 742q0 -51 -51 -51q-49 0 -49 51q0 49 51 49q49 0 49 -49zM2058 568q0 -49 -49 -49q-51 0 -51 49t51 49q49 0 49 -49zM1602 1025q0 -52 -52 -52q-49 0 -49 52
q0 49 49 49q52 0 52 -49zM1427 988q0 -49 -51 -49q-49 0 -49 49q0 51 49 51q51 0 51 -51zM2021 394q0 -49 -51 -49q-49 0 -49 49q0 51 49 51q51 0 51 -51zM1280 889q0 -49 -49 -49q-51 0 -51 47q0 54 51 54q49 0 49 -52zM1923 244q0 -49 -47 -49q-53 0 -53 49q0 52 53 52
q47 0 47 -52zM1776 146q0 -47 -50 -47q-51 0 -51 47q0 51 51 51q50 0 50 -51zM1182 742q0 -51 -49 -51q-52 0 -52 51q0 49 50 49q24 0 37.5 -12t13.5 -37zM1145 568q0 -49 -47 -49q-54 0 -54 49t54 49q47 0 47 -49zM1602 113q0 -51 -52 -51q-49 0 -49 51q0 49 49 49
q52 0 52 -49zM1182 394q0 -25 -13.5 -37t-37.5 -12q-50 0 -50 49q0 51 50 51q24 0 37.5 -12.5t13.5 -38.5zM1427 150q0 -51 -51 -51q-49 0 -49 47q0 51 49 51q51 0 51 -47zM1280 244q0 -49 -49 -49q-51 0 -51 49q0 52 51 52q49 0 49 -52z" />
    <glyph glyph-name="ori_virama.25CC" horiz-adv-x="1194" 
d="M1020 -308l-73 -87l-315 276l79 88zM959 889q0 -49 -47 -49q-53 0 -53 49q0 52 53 52q47 0 47 -52zM812 988q0 -49 -50 -49q-51 0 -51 49q0 51 51 51q50 0 50 -51zM1057 742q0 -51 -51 -51q-49 0 -49 51q0 49 51 49q49 0 49 -49zM1094 568q0 -49 -49 -49q-51 0 -51 49
t51 49q49 0 49 -49zM638 1025q0 -52 -52 -52q-49 0 -49 52q0 49 49 49q52 0 52 -49zM463 988q0 -49 -51 -49q-49 0 -49 49q0 51 49 51q51 0 51 -51zM1057 394q0 -49 -51 -49q-49 0 -49 49q0 51 49 51q51 0 51 -51zM316 889q0 -49 -49 -49q-51 0 -51 47q0 54 51 54
q49 0 49 -52zM959 244q0 -49 -47 -49q-53 0 -53 49q0 52 53 52q47 0 47 -52zM812 146q0 -47 -50 -47q-51 0 -51 47q0 51 51 51q50 0 50 -51zM218 742q0 -51 -49 -51q-52 0 -52 51q0 49 50 49q24 0 37.5 -12t13.5 -37zM181 568q0 -49 -47 -49q-54 0 -54 49t54 49q47 0 47 -49
zM638 113q0 -51 -52 -51q-49 0 -49 51q0 49 49 49q52 0 52 -49zM218 394q0 -25 -13.5 -37t-37.5 -12q-50 0 -50 49q0 51 50 51q24 0 37.5 -12.5t13.5 -38.5zM463 150q0 -51 -51 -51q-49 0 -49 47q0 51 49 51q51 0 51 -47zM316 244q0 -49 -49 -49q-51 0 -51 49q0 52 51 52
q49 0 49 -52z" />
    <glyph glyph-name="ori_aimark.25CC" horiz-adv-x="1194" 
d="M916 1118q40 30 70 74.5t30 101.5q0 37 -15.5 64.5t-40.5 45.5t-56 27t-61 9q-53 0 -103.5 -14t-99.5 -35.5t-97.5 -46t-98.5 -46t-102 -35.5t-108 -14q-109 0 -185.5 52.5t-129.5 138.5l73 66q16 -29 39.5 -57.5t54 -50.5t67.5 -35.5t81 -13.5q47 0 95.5 14t99 35.5
t102 46t103.5 46t104.5 35.5t104.5 14q56 0 106 -17.5t87 -49.5t58.5 -77.5t21.5 -102.5q0 -69 -28.5 -120.5t-71.5 -93.5zM958 889q0 -49 -47 -49q-53 0 -53 49q0 52 53 52q47 0 47 -52zM811 988q0 -49 -50 -49q-51 0 -51 49q0 51 51 51q50 0 50 -51zM1056 742
q0 -51 -51 -51q-49 0 -49 51q0 49 51 49q49 0 49 -49zM1093 568q0 -49 -49 -49q-51 0 -51 49t51 49q49 0 49 -49zM637 1025q0 -52 -52 -52q-49 0 -49 52q0 49 49 49q52 0 52 -49zM462 988q0 -49 -51 -49q-49 0 -49 49q0 51 49 51q51 0 51 -51zM1056 394q0 -49 -51 -49
q-49 0 -49 49q0 51 49 51q51 0 51 -51zM315 889q0 -49 -49 -49q-51 0 -51 47q0 54 51 54q49 0 49 -52zM958 244q0 -49 -47 -49q-53 0 -53 49q0 52 53 52q47 0 47 -52zM811 146q0 -47 -50 -47q-51 0 -51 47q0 51 51 51q50 0 50 -51zM217 742q0 -51 -49 -51q-52 0 -52 51
q0 49 50 49q24 0 37.5 -12t13.5 -37zM180 568q0 -49 -47 -49q-54 0 -54 49t54 49q47 0 47 -49zM637 113q0 -51 -52 -51q-49 0 -49 51q0 49 49 49q52 0 52 -49zM217 394q0 -25 -13.5 -37t-37.5 -12q-50 0 -50 49q0 51 50 51q24 0 37.5 -12.5t13.5 -38.5zM462 150
q0 -51 -51 -51q-49 0 -49 47q0 51 49 51q51 0 51 -47zM315 244q0 -49 -49 -49q-51 0 -51 49q0 52 51 52q49 0 49 -52z" />
    <glyph glyph-name="ori_aumark.25CC" horiz-adv-x="1516" 
d="M1246 1128q40 30 70 70t30 96q0 37 -15.5 64.5t-40.5 45.5t-56 27t-61 9q-53 0 -103.5 -14t-99.5 -35.5t-97.5 -46t-98.5 -46t-102 -35.5t-108 -14q-109 0 -185.5 52.5t-129.5 138.5l73 66q16 -29 39.5 -57.5t54 -50.5t67.5 -35.5t81 -13.5q47 0 95.5 14t99 35.5t102 46
t103.5 46t104.5 35.5t104.5 14q56 0 106 -17.5t87 -49.5t58.5 -77.5t21.5 -102.5q0 -35 -7.5 -63t-21 -52.5t-32 -46t-39.5 -42.5v-1089h-100v1128zM959 889q0 -49 -47 -49q-53 0 -53 49q0 52 53 52q47 0 47 -52zM812 988q0 -49 -50 -49q-51 0 -51 49q0 51 51 51
q50 0 50 -51zM1057 742q0 -51 -51 -51q-49 0 -49 51q0 49 51 49q49 0 49 -49zM1094 568q0 -49 -49 -49q-51 0 -51 49t51 49q49 0 49 -49zM638 1025q0 -52 -52 -52q-49 0 -49 52q0 49 49 49q52 0 52 -49zM463 988q0 -49 -51 -49q-49 0 -49 49q0 51 49 51q51 0 51 -51z
M1057 394q0 -49 -51 -49q-49 0 -49 49q0 51 49 51q51 0 51 -51zM316 889q0 -49 -49 -49q-51 0 -51 47q0 54 51 54q49 0 49 -52zM959 244q0 -49 -47 -49q-53 0 -53 49q0 52 53 52q47 0 47 -52zM812 146q0 -47 -50 -47q-51 0 -51 47q0 51 51 51q50 0 50 -51zM218 742
q0 -51 -49 -51q-52 0 -52 51q0 49 50 49q24 0 37.5 -12t13.5 -37zM181 568q0 -49 -47 -49q-54 0 -54 49t54 49q47 0 47 -49zM638 113q0 -51 -52 -51q-49 0 -49 51q0 49 49 49q52 0 52 -49zM218 394q0 -25 -13.5 -37t-37.5 -12q-50 0 -50 49q0 51 50 51q24 0 37.5 -12.5
t13.5 -38.5zM463 150q0 -51 -51 -51q-49 0 -49 47q0 51 49 51q51 0 51 -47zM316 244q0 -49 -49 -49q-51 0 -51 49q0 52 51 52q49 0 49 -52z" />
    <glyph glyph-name="ori_li_matra.25CC" horiz-adv-x="1194" 
d="M740 -554q0 32 12.5 59t34 46.5t50.5 30.5t62 11q70 0 108 -37t38 -92q0 -50 -26.5 -82.5t-65 -52t-82 -27.5t-77.5 -8q-55 0 -98.5 15.5t-74 42.5t-47 63.5t-16.5 78.5q0 61 27 99.5t67 63.5t87.5 41.5t87.5 34t67 40.5t27 62q0 36 -34 59t-88 23q-58 0 -89.5 -22.5
t-31.5 -54.5q0 -26 14.5 -41t25.5 -23l-34 -48q-9 6 -20 15.5t-21.5 24t-17.5 33t-7 42.5q0 32 15 57t41 42t60.5 26t73.5 9q40 0 73.5 -11.5t57 -31.5t36.5 -46t13 -55q0 -51 -27 -82.5t-67.5 -53t-87.5 -37.5t-87.5 -37t-67.5 -50.5t-27 -78.5q0 -28 11 -51.5t30 -41.5
t44.5 -29.5t55.5 -15.5q-14 24 -19.5 46.5t-5.5 43.5zM985 -536q0 27 -21.5 48t-59.5 21q-49 0 -76.5 -26.5t-27.5 -62.5q0 -17 6.5 -39t28.5 -49q67 8 108.5 36t41.5 72zM959 889q0 -49 -47 -49q-53 0 -53 49q0 52 53 52q47 0 47 -52zM812 988q0 -49 -50 -49q-51 0 -51 49
q0 51 51 51q50 0 50 -51zM1057 742q0 -51 -51 -51q-49 0 -49 51q0 49 51 49q49 0 49 -49zM1094 568q0 -49 -49 -49q-51 0 -51 49t51 49q49 0 49 -49zM638 1025q0 -52 -52 -52q-49 0 -49 52q0 49 49 49q52 0 52 -49zM463 988q0 -49 -51 -49q-49 0 -49 49q0 51 49 51
q51 0 51 -51zM1057 394q0 -49 -51 -49q-49 0 -49 49q0 51 49 51q51 0 51 -51zM316 889q0 -49 -49 -49q-51 0 -51 47q0 54 51 54q49 0 49 -52zM959 244q0 -49 -47 -49q-53 0 -53 49q0 52 53 52q47 0 47 -52zM812 146q0 -47 -50 -47q-51 0 -51 47q0 51 51 51q50 0 50 -51z
M218 742q0 -51 -49 -51q-52 0 -52 51q0 49 50 49q24 0 37.5 -12t13.5 -37zM181 568q0 -49 -47 -49q-54 0 -54 49t54 49q47 0 47 -49zM638 113q0 -51 -52 -51q-49 0 -49 51q0 49 49 49q52 0 52 -49zM218 394q0 -25 -13.5 -37t-37.5 -12q-50 0 -50 49q0 51 50 51
q24 0 37.5 -12.5t13.5 -38.5zM463 150q0 -51 -51 -51q-49 0 -49 47q0 51 49 51q51 0 51 -47zM316 244q0 -49 -49 -49q-51 0 -51 49q0 52 51 52q49 0 49 -52z" />
    <glyph glyph-name="ori_lli_matra.25CC" horiz-adv-x="1194" 
d="M920 -791q-48 21 -82.5 42.5t-59.5 43.5q-6 -1 -12 -1h-11q-55 0 -98.5 15.5t-74 42.5t-47 63.5t-16.5 78.5q0 61 27 99.5t67 63.5t87.5 41.5t87.5 34t67 40.5t27 62q0 36 -34 59t-88 23q-58 0 -89.5 -22.5t-31.5 -54.5q0 -26 14.5 -41t25.5 -23l-34 -48q-9 6 -20 15.5
t-21.5 24t-17.5 33t-7 42.5q0 32 15 57t41 42t60.5 26t73.5 9q40 0 73.5 -11.5t57 -31.5t36.5 -46t13 -55q0 -51 -27 -82.5t-67.5 -53t-87.5 -37.5t-87.5 -37t-67.5 -50.5t-27 -78.5q0 -28 11 -51.5t30 -41.5t44.5 -29.5t55.5 -15.5q-14 24 -19.5 47t-5.5 43q0 32 12.5 59
t34 46.5t50.5 30.5t62 11q70 0 108 -37t38 -92q0 -35 -13.5 -61t-35.5 -45t-50 -32t-57 -20q19 -14 42.5 -28t53.5 -29zM946 -536q0 27 -21.5 48t-59.5 21q-49 0 -76.5 -26.5t-27.5 -62.5q0 -17 6 -39.5t28 -48.5q68 7 109.5 35.5t41.5 72.5zM959 889q0 -49 -47 -49
q-53 0 -53 49q0 52 53 52q47 0 47 -52zM812 988q0 -49 -50 -49q-51 0 -51 49q0 51 51 51q50 0 50 -51zM1057 742q0 -51 -51 -51q-49 0 -49 51q0 49 51 49q49 0 49 -49zM1094 568q0 -49 -49 -49q-51 0 -51 49t51 49q49 0 49 -49zM638 1025q0 -52 -52 -52q-49 0 -49 52
q0 49 49 49q52 0 52 -49zM463 988q0 -49 -51 -49q-49 0 -49 49q0 51 49 51q51 0 51 -51zM1057 394q0 -49 -51 -49q-49 0 -49 49q0 51 49 51q51 0 51 -51zM316 889q0 -49 -49 -49q-51 0 -51 47q0 54 51 54q49 0 49 -52zM959 244q0 -49 -47 -49q-53 0 -53 49q0 52 53 52
q47 0 47 -52zM812 146q0 -47 -50 -47q-51 0 -51 47q0 51 51 51q50 0 50 -51zM218 742q0 -51 -49 -51q-52 0 -52 51q0 49 50 49q24 0 37.5 -12t13.5 -37zM181 568q0 -49 -47 -49q-54 0 -54 49t54 49q47 0 47 -49zM638 113q0 -51 -52 -51q-49 0 -49 51q0 49 49 49q52 0 52 -49
zM218 394q0 -25 -13.5 -37t-37.5 -12q-50 0 -50 49q0 51 50 51q24 0 37.5 -12.5t13.5 -38.5zM463 150q0 -51 -51 -51q-49 0 -49 47q0 51 49 51q51 0 51 -47zM316 244q0 -49 -49 -49q-51 0 -51 49q0 52 51 52q49 0 49 -52z" />
    <glyph glyph-name="ori_ai_matra.glyph" horiz-adv-x="2171" 
d="M538 1028q-77 0 -138 -30t-105.5 -80.5t-72 -117t-37.5 -139.5h336q83 0 152 -22t118.5 -63.5t76.5 -100.5t27 -133q0 -84 -32.5 -149.5t-84.5 -110.5t-117.5 -68.5t-131.5 -23.5q-90 0 -171.5 35t-143.5 108t-98.5 186t-36.5 268q0 105 31 202.5t90 173t144.5 120.5
t194.5 45q54 0 108.5 -16.5t101 -46t82 -71.5t52.5 -93l-75 -51q-27 49 -59 83t-66.5 55t-71 30.5t-73.5 9.5zM179 561q1 -101 22.5 -187.5t65 -149.5t108.5 -98.5t154 -35.5q52 0 100 19.5t85 54t59 80.5t22 99q0 106 -73 162t-204 56h-339zM1871 1118q40 30 70 74.5
t30 101.5q0 37 -15.5 64.5t-40.5 45.5t-56 27t-61 9q-53 0 -103.5 -14t-99.5 -35.5t-97.5 -46t-98.5 -46t-102 -35.5t-108 -14q-109 0 -185.5 52.5t-129.5 138.5l73 66q16 -29 39.5 -57.5t54 -50.5t67.5 -35.5t81 -13.5q47 0 95.5 14t99 35.5t102 46t103.5 46t104.5 35.5
t104.5 14q56 0 106 -17.5t87 -49.5t58.5 -77.5t21.5 -102.5q0 -69 -28.5 -120.5t-71.5 -93.5zM1746 988q0 -49 -50 -49q-51 0 -51 49q0 51 51 51q50 0 50 -51zM1152 742q0 -51 -49 -51q-52 0 -52 51q0 49 50 49q24 0 37.5 -12t13.5 -37zM1152 394q0 -25 -13.5 -37t-37.5 -12
q-50 0 -50 49q0 51 50 51q24 0 37.5 -12.5t13.5 -38.5zM1572 1025q0 -52 -52 -52q-49 0 -49 52q0 49 49 49q52 0 52 -49zM1893 889q0 -49 -47 -49q-53 0 -53 49q0 52 53 52q47 0 47 -52zM1893 244q0 -49 -47 -49q-53 0 -53 49q0 52 53 52q47 0 47 -52zM1250 244
q0 -49 -49 -49q-51 0 -51 49q0 52 51 52q49 0 49 -52zM1572 113q0 -51 -52 -51q-49 0 -49 51q0 49 49 49q52 0 52 -49zM1250 889q0 -49 -49 -49q-51 0 -51 47q0 54 51 54q49 0 49 -52zM1991 394q0 -49 -51 -49q-49 0 -49 49q0 51 49 51q51 0 51 -51zM1397 988q0 -49 -51 -49
q-49 0 -49 49q0 51 49 51q51 0 51 -51zM1991 742q0 -51 -51 -51q-49 0 -49 51q0 49 51 49q49 0 49 -49zM1746 146q0 -47 -50 -47q-51 0 -51 47q0 51 51 51q50 0 50 -51zM1397 150q0 -51 -51 -51q-49 0 -49 47q0 51 49 51q51 0 51 -47zM1115 568q0 -49 -47 -49q-54 0 -54 49
t54 49q47 0 47 -49zM2028 568q0 -49 -49 -49q-51 0 -51 49t51 49q49 0 49 -49z" />
    <glyph glyph-name="ori_o_matra.glyph" horiz-adv-x="2332" 
d="M538 1028q-77 0 -138 -30t-105.5 -80.5t-72 -117t-37.5 -139.5h336q83 0 152 -22t118.5 -63.5t76.5 -100.5t27 -133q0 -84 -32.5 -149.5t-84.5 -110.5t-117.5 -68.5t-131.5 -23.5q-90 0 -171.5 35t-143.5 108t-98.5 186t-36.5 268q0 105 31 202.5t90 173t144.5 120.5
t194.5 45q54 0 108.5 -16.5t101 -46t82 -71.5t52.5 -93l-75 -51q-27 49 -59 83t-66.5 55t-71 30.5t-73.5 9.5zM179 561q1 -101 22.5 -187.5t65 -149.5t108.5 -98.5t154 -35.5q52 0 100 19.5t85 54t59 80.5t22 99q0 106 -73 162t-204 56h-339zM2132 0v1118h100v-1118h-100z
M1736 988q0 -49 -50 -49q-51 0 -51 49q0 51 51 51q50 0 50 -51zM1142 742q0 -51 -49 -51q-52 0 -52 51q0 49 50 49q24 0 37.5 -12t13.5 -37zM1142 394q0 -25 -13.5 -37t-37.5 -12q-50 0 -50 49q0 51 50 51q24 0 37.5 -12.5t13.5 -38.5zM1562 1025q0 -52 -52 -52
q-49 0 -49 52q0 49 49 49q52 0 52 -49zM1883 889q0 -49 -47 -49q-53 0 -53 49q0 52 53 52q47 0 47 -52zM1883 244q0 -49 -47 -49q-53 0 -53 49q0 52 53 52q47 0 47 -52zM1562 113q0 -51 -52 -51q-49 0 -49 51q0 49 49 49q52 0 52 -49zM1240 244q0 -49 -49 -49q-51 0 -51 49
q0 52 51 52q49 0 49 -52zM1240 889q0 -49 -49 -49q-51 0 -51 47q0 54 51 54q49 0 49 -52zM1387 988q0 -49 -51 -49q-49 0 -49 49q0 51 49 51q51 0 51 -51zM1981 394q0 -49 -51 -49q-49 0 -49 49q0 51 49 51q51 0 51 -51zM1981 742q0 -51 -51 -51q-49 0 -49 51q0 49 51 49
q49 0 49 -49zM1736 146q0 -47 -50 -47q-51 0 -51 47q0 51 51 51q50 0 50 -51zM1387 150q0 -51 -51 -51q-49 0 -49 47q0 51 49 51q51 0 51 -47zM1105 568q0 -49 -47 -49q-54 0 -54 49t54 49q47 0 47 -49zM2018 568q0 -49 -49 -49q-51 0 -51 49t51 49q49 0 49 -49z" />
    <glyph glyph-name="ori_au_matra.glyph" horiz-adv-x="2451" 
d="M538 1028q-77 0 -138 -30t-105.5 -80.5t-72 -117t-37.5 -139.5h336q83 0 152 -22t118.5 -63.5t76.5 -100.5t27 -133q0 -84 -32.5 -149.5t-84.5 -110.5t-117.5 -68.5t-131.5 -23.5q-90 0 -171.5 35t-143.5 108t-98.5 186t-36.5 268q0 105 31 202.5t90 173t144.5 120.5
t194.5 45q54 0 108.5 -16.5t101 -46t82 -71.5t52.5 -93l-75 -51q-27 49 -59 83t-66.5 55t-71 30.5t-73.5 9.5zM2151 1128q40 30 70 70t30 96q0 37 -15.5 64.5t-40.5 45.5t-56 27t-61 9q-53 0 -103.5 -14t-99.5 -35.5t-97.5 -46t-98.5 -46t-102 -35.5t-108 -14
q-109 0 -185.5 52.5t-129.5 138.5l73 66q16 -29 39.5 -57.5t54 -50.5t67.5 -35.5t81 -13.5q47 0 95.5 14t99 35.5t102 46t103.5 46t104.5 35.5t104.5 14q56 0 106 -17.5t87 -49.5t58.5 -77.5t21.5 -102.5q0 -35 -7.5 -63t-21 -52.5t-32 -46t-39.5 -42.5v-1089h-100v1128z
M179 561q1 -101 22.5 -187.5t65 -149.5t108.5 -98.5t154 -35.5q52 0 100 19.5t85 54t59 80.5t22 99q0 106 -73 162t-204 56h-339zM1726 988q0 -49 -50 -49q-51 0 -51 49q0 51 51 51q50 0 50 -51zM1132 742q0 -51 -49 -51q-52 0 -52 51q0 49 50 49q24 0 37.5 -12t13.5 -37z
M1132 394q0 -25 -13.5 -37t-37.5 -12q-50 0 -50 49q0 51 50 51q24 0 37.5 -12.5t13.5 -38.5zM1552 1025q0 -52 -52 -52q-49 0 -49 52q0 49 49 49q52 0 52 -49zM1873 889q0 -49 -47 -49q-53 0 -53 49q0 52 53 52q47 0 47 -52zM1873 244q0 -49 -47 -49q-53 0 -53 49
q0 52 53 52q47 0 47 -52zM1552 113q0 -51 -52 -51q-49 0 -49 51q0 49 49 49q52 0 52 -49zM1230 244q0 -49 -49 -49q-51 0 -51 49q0 52 51 52q49 0 49 -52zM1230 889q0 -49 -49 -49q-51 0 -51 47q0 54 51 54q49 0 49 -52zM1971 394q0 -49 -51 -49q-49 0 -49 49q0 51 49 51
q51 0 51 -51zM1377 988q0 -49 -51 -49q-49 0 -49 49q0 51 49 51q51 0 51 -51zM1971 742q0 -51 -51 -51q-49 0 -49 51q0 49 51 49q49 0 49 -49zM1726 146q0 -47 -50 -47q-51 0 -51 47q0 51 51 51q50 0 50 -51zM1377 150q0 -51 -51 -51q-49 0 -49 47q0 51 49 51q51 0 51 -47z
M1095 568q0 -49 -47 -49q-54 0 -54 49t54 49q47 0 47 -49zM2008 568q0 -49 -49 -49q-51 0 -51 49t51 49q49 0 49 -49z" />
    <glyph glyph-name="ori_reph" 
d="M-554 1371l429 183l41 -90l-304 -126l206 -243l-73 -67z" />
    <glyph glyph-name="ori_ka_phalaa" 
d="M-684 -220q0 49 16.5 90t45 69.5t67 44.5t82.5 16q48 0 90 -19.5t71 -54.5q29 35 71 54.5t91 19.5q44 0 82.5 -16t67.5 -44.5t45.5 -69.5t16.5 -90v-293h-100v293q0 25 -9 46.5t-24 38t-35.5 26t-43.5 9.5t-43.5 -9.5t-35.5 -26t-23.5 -38t-8.5 -46.5v-293h-100v104
q-25 -14 -53 -22t-59 -8q-44 0 -82.5 15.5t-67 44.5t-45 69t-16.5 90zM-361 -220v5q-1 24 -10.5 44.5t-24.5 36.5t-35 25t-42 9q-23 0 -43.5 -9.5t-35.5 -26t-23.5 -38t-8.5 -46.5t8.5 -46.5t23.5 -37.5t35.5 -25.5t43.5 -9.5q22 0 42 9t35 24t24.5 36t10.5 45v5z" />
    <glyph glyph-name="ori_kha_phalaa" 
d="M-186 -103q0 22 7 42q-41 -4 -74.5 -18t-58.5 -36.5t-38.5 -52t-13.5 -65.5q0 -31 13 -57.5t36 -48.5q14 41 51 67t88 26q31 0 57.5 -10.5t46 -29t30.5 -43.5t11 -53q0 -29 -11 -53.5t-30.5 -43.5t-46 -29.5t-57.5 -10.5q-52 0 -89.5 27.5t-50.5 70.5q-51 35 -81.5 82.5
t-30.5 105.5q0 54 20 98t56.5 75t88 48t113.5 17q30 0 71 -9q-18 -24 -30.5 -48t-12.5 -43t12.5 -35t39.5 -16q26 0 45.5 17t33 40t21 48t9.5 41h63v-514h-64v363q-18 -26 -45 -42t-64 -16q-53 0 -84 30.5t-31 75.5zM-258 -382q0 -31 23 -52t59 -21q35 0 58 21t23 52
q0 30 -23 51t-58 21q-36 0 -59 -21t-23 -51z" />
    <glyph glyph-name="ori_ga_phalaa" 
d="M37 0h64v-514h-64v296q-2 35 -19 64.5t-43 50.5t-59 32.5t-66 11.5q-47 0 -86 -12.5t-68 -35.5t-45 -55t-16 -71q0 -31 13 -57.5t36 -48.5q14 41 51 67t88 26q31 0 57.5 -10.5t46 -29t30.5 -43.5t11 -53q0 -29 -11 -53.5t-30.5 -43.5t-46 -29.5t-57.5 -10.5
q-52 0 -90 27.5t-51 70.5q-51 35 -81 82.5t-30 105.5q0 54 20 98t56.5 75t88 48t113.5 17q54 0 103 -21t85 -58v74zM-259 -382q0 -31 23 -52t59 -21q35 0 58 21t23 52q0 30 -23 51t-58 21q-36 0 -59 -21t-23 -51z" />
    <glyph glyph-name="ori_gha_phalaa" 
d="M55 0h64v-514h-64v57q-18 -27 -44 -44.5t-57 -17.5q-57 0 -84 40q-16 -23 -39 -31.5t-45 -8.5q-51 0 -83 35.5t-34 89.5q-36 34 -57 75.5t-21 89.5q0 51 18.5 94t52 74t81.5 48.5t107 17.5q63 0 115.5 -26t89.5 -70v91zM55 -246q0 33 -16.5 66.5t-44.5 60.5t-65.5 43.5
t-78.5 16.5q-44 0 -80 -13t-61.5 -35.5t-39.5 -54t-14 -67.5q0 -27 8.5 -49.5t22.5 -41.5q17 31 42 53t48 33l31 -47q-10 -6 -23.5 -15t-26 -22.5t-21 -31.5t-8.5 -40q0 -26 15.5 -45.5t40.5 -19.5q20 0 38 16.5t18 39.5v55h64v-55q0 -27 14.5 -41.5t35.5 -14.5q19 0 37 13
t32.5 33t23 44.5t8.5 47.5v71z" />
    <glyph glyph-name="ori_nga_phalaa" 
d="M-55 -155q0 37 19 64q-26 15 -55.5 23.5t-57.5 8.5q-48 0 -88 -12.5t-69 -35.5t-45 -55t-16 -71q0 -38 22 -73q14 38 47 65t81 43l26 -53q-41 -14 -69 -39t-28 -63q0 -28 10.5 -47.5t26 -31.5t34.5 -17.5t36 -5.5q18 0 36.5 5t33.5 15t24.5 25.5t9.5 37.5q0 23 -16 40.5
t-38 27.5l-63 -57l-42 47l146 128l41 -44l-33 -29q31 -19 50 -50.5t19 -66.5q0 -30 -12 -56.5t-34 -45.5t-53 -30t-70 -11q-56 0 -102 31.5t-62 86.5q-39 33 -62 75.5t-23 92.5q0 54 20.5 98t57.5 75t88.5 48t114.5 17q46 0 89.5 -15t80.5 -42q7 2 13.5 3t14.5 1
q44 0 74 -29.5t30 -77.5q0 -49 -30 -78t-74 -29q-42 0 -72.5 29t-30.5 78zM9 -155q0 -18 11 -31t28 -13t28.5 13t11.5 31q0 17 -11.5 30t-28.5 13t-28 -13t-11 -30z" />
    <glyph glyph-name="ori_ca_phalaa" 
d="M-150 5q49 0 94.5 -17t79.5 -46.5t54.5 -69t20.5 -85.5q0 -36 -16 -73t-65 -77l-37 58q54 42 54 97q0 31 -15.5 58t-41.5 47t-59.5 32t-70.5 12q-47 0 -85 -12.5t-65 -35.5t-42 -55t-15 -71q0 -31 13 -57.5t36 -48.5q14 41 51 67t88 26q31 0 57.5 -10.5t46 -29
t30.5 -43.5t11 -53q0 -29 -11 -53.5t-30.5 -43.5t-46 -29.5t-57.5 -10.5q-52 0 -90 27.5t-51 70.5q-51 35 -81 82.5t-30 105.5q0 54 19.5 98t55 75t86 48t112.5 17zM-253 -382q0 -31 23 -52t59 -21q35 0 58 21t23 52q0 30 -23 51t-58 21q-36 0 -59 -21t-23 -51z" />
    <glyph glyph-name="ori_cha_phalaa" 
d="M-428 -337v62q32 0 68.5 -10.5t75.5 -28.5q-2 5 -2 9.5v9.5q-33 26 -52 58.5t-19 69.5q0 36 16 67t44 54.5t66 37t81 13.5t81 -13.5t66 -37t44 -54.5t16 -67q0 -29 -12.5 -56t-35.5 -52l-44 42q14 16 21 32t7 34q0 22 -11 42t-30.5 34.5t-45.5 23t-56 8.5t-56 -8.5
t-45.5 -23t-30.5 -34.5t-11 -42q0 -34 29 -63q17 23 45 36t61 13q26 0 49 -9t40.5 -24t27.5 -36t10 -45q0 -6 -1 -12t-3 -12q6 1 11.5 1h10.5q57 0 90.5 -29t33.5 -71q0 -21 -8.5 -39t-24.5 -32t-38 -22t-49 -8q-39 0 -75 16t-74 47q-40 -32 -76 -47.5t-74 -15.5
q-27 0 -49 8t-38 22t-24.5 32t-8.5 39q0 24 11.5 44.5t32.5 34.5q-11 2 -22 2h-22zM-91 -304q0 25 -19 42t-48 17t-48.5 -17t-19.5 -42q0 -24 25 -46q11 -6 21.5 -14t21.5 -16q19 18 42 30q25 22 25 46zM-6 -381q-23 0 -50 -9t-62 -29q35 -23 62 -29.5t50 -6.5
q24 0 38.5 10.5t14.5 26.5t-13.5 26.5t-39.5 10.5zM-311 -455q22 0 49.5 6.5t61.5 29.5q-33 20 -61 29t-50 9q-26 0 -39.5 -10.5t-13.5 -26.5t14.5 -26.5t38.5 -10.5z" />
    <glyph glyph-name="ori_ja_phalaa" 
d="M-445 -163q0 39 14 68t34 49t42.5 32t39.5 17l22 -52q-15 -4 -31 -14t-28.5 -24.5t-20.5 -33t-8 -39.5q0 -54 28.5 -82.5t71.5 -28.5q15 0 31 3.5t29.5 12t22.5 22.5t9 35q0 30 -15 43t-35 16v51q6 15 19.5 30.5t33.5 28.5t46 21t58 8q43 0 82 -23v-307h-64v262
q-6 2 -16 3t-16 1q-25 0 -46 -10.5t-34 -33.5q29 -14 40 -37.5t11 -55.5q0 -33 -15 -58t-38 -42t-50.5 -25.5t-51.5 -8.5q-33 0 -63 12t-52.5 34.5t-36 54.5t-13.5 71z" />
    <glyph glyph-name="ori_jha_phalaa" 
d="M-296 -375q0 10 1 19.5t4 17.5q-46 26 -73 67t-27 94q0 45 16.5 79t43.5 57.5t62.5 35.5t73.5 12q40 0 83 -17t76 -42q-22 -24 -22 -43q0 -20 16.5 -34.5t48.5 -14.5q27 0 47 12.5t20 37.5q0 24 -20 35.5t-45 11.5v59q54 -2 91.5 -29t37.5 -77q0 -30 -13 -51.5t-33.5 -35
t-44 -20t-44.5 -6.5q-54 0 -89.5 27.5t-35.5 74.5q0 6 0.5 13t4.5 15q-17 12 -40 16t-40 4q-26 0 -49.5 -7t-41.5 -21.5t-28.5 -37t-10.5 -53.5q0 -36 19.5 -62.5t51.5 -42.5q20 20 47 31t59 11q31 0 57.5 -10.5t46 -29t30.5 -43.5t11 -53q0 -14 -2.5 -26.5t-7.5 -24.5
l116 -97l-39 -51l-118 94q-19 -15 -42.5 -23.5t-51.5 -8.5q-31 0 -58 10.5t-46.5 29.5t-30.5 43.5t-11 53.5zM-232 -375q0 -31 23.5 -52t58.5 -21t58 21t23 52q0 30 -23 51t-58 21t-58.5 -21t-23.5 -51z" />
    <glyph glyph-name="ori_tta_phalaa" 
d="M38 0h64v-310h-64v91q-2 35 -19 64.5t-43 50.5t-59 33t-66 12q-47 0 -86 -12.5t-68 -35.5t-45 -55t-16 -71q0 -31 13 -57.5t36 -48.5q14 41 51 67t88 26q31 0 57.5 -10.5t46 -29t30.5 -43.5t11 -53q0 -29 -11 -53.5t-30.5 -43.5t-46 -29.5t-57.5 -10.5q-52 0 -90 27.5
t-51 70.5q-51 34 -81 81.5t-30 106.5q0 54 20 98t56.5 75t88 48t113.5 17q54 0 103 -21t85 -58v74zM-258 -382q0 -31 23 -52t59 -21q35 0 58 21t23 52q0 30 -23 51t-58 21q-36 0 -59 -21t-23 -51z" />
    <glyph glyph-name="ori_ttha_phalaa" 
d="M-418 -258q0 54 19 102t54 83.5t84.5 56.5t110.5 21t110.5 -21t85 -56.5t54.5 -83.5t19 -102t-19 -101.5t-54.5 -83t-85 -56t-110.5 -20.5t-110.5 20.5t-84.5 56t-54 83t-19 101.5zM-354 -258q0 -39 15 -75t42 -63t64.5 -43t82.5 -16q46 0 83.5 16t64.5 43t42 63t15 75
q0 40 -15 76t-42 63.5t-64.5 43.5t-83.5 16q-45 0 -82.5 -16t-64.5 -43.5t-42 -63.5t-15 -76z" />
    <glyph glyph-name="ori_dda_phalaa" 
d="M-9 -299q32 24 39.5 46t7.5 45q0 35 -16.5 62.5t-43 47t-60 29.5t-67.5 10q-48 0 -88 -12.5t-69 -35.5t-45 -55t-16 -71t22 -74q14 38 47 65.5t80 43.5l27 -53q-41 -14 -69 -39t-28 -63q0 -28 10 -47.5t26 -31.5t35 -17.5t36 -5.5q18 0 36.5 5t33.5 15t24.5 25.5
t9.5 37.5q0 23 -15.5 40t-38.5 28l-63 -57l-42 47l146 128l40 -44l-32 -29q31 -19 50 -50.5t19 -66.5q0 -30 -12 -56.5t-34 -45.5t-53 -30t-70 -11q-56 0 -102 31t-62 87q-39 33 -62 75t-23 93q0 54 20.5 98t57.5 75t88.5 48t114.5 17q49 0 95 -15.5t80.5 -44t55.5 -68
t21 -88.5q0 -37 -17 -75.5t-68 -75.5z" />
    <glyph glyph-name="ori_ddha_phalaa" 
d="M-373 -224q0 46 16.5 88t46.5 74.5t71 52t89 19.5q40 0 76 -12.5t63.5 -36t44 -58t16.5 -79.5q0 -32 -12.5 -62t-35.5 -54t-57 -38.5t-77 -14.5q-38 0 -74.5 14.5t-61.5 37.5q15 -41 43 -65t60 -36t65.5 -15.5t60.5 -3.5h144v-100h-144q-72 0 -133 18.5t-105.5 55
t-70 90.5t-25.5 125zM-260 -167q0 -16 8 -30.5t22.5 -25t33.5 -16.5t41 -6t41 6t33 16.5t22.5 25t8.5 30.5t-8.5 30t-22.5 24.5t-33 16.5t-41 6t-41 -6t-33.5 -16.5t-22.5 -24.5t-8 -30z" />
    <glyph glyph-name="ori_nna_phalaa" 
d="M16 0h64v-514h-64v348q-36 50 -81 78.5t-93 28.5q-21 0 -41 -10.5t-20 -35.5q0 -10 6.5 -22.5t21.5 -25.5q17 -2 34.5 -6.5t34.5 -12.5l-32 -58q-14 7 -30.5 10.5t-30.5 3.5q-27 0 -51 -8t-42 -22.5t-28.5 -35.5t-10.5 -47q0 -35 18 -59q23 45 65 73t93 28
q68 0 107 -31.5t39 -79.5q0 -31 -13.5 -53.5t-36.5 -37.5t-53 -22.5t-63 -7.5q-38 0 -77 12t-71 36t-52 59.5t-20 82.5q0 37 11.5 65.5t31 50t46 35t55.5 20.5q-16 28 -16 57q0 47 36 76.5t97 29.5q43 0 86.5 -24t79.5 -59v78zM-163 -351q-41 0 -70 -23.5t-45 -57.5
q20 -11 43.5 -17t45.5 -6q15 0 32.5 3t32.5 9.5t25 17.5t10 27q0 14 -18 30.5t-56 16.5z" />
    <glyph glyph-name="ori_ta_phalaa" 
d="M-751 -291q51 -36 98.5 -64.5t95.5 -48.5t99 -30.5t108 -10.5q25 0 55 3.5t58.5 8.5t52 12t34.5 13q-52 0 -93 16.5t-69 43.5t-43 63t-15 75q0 49 17.5 90t47.5 69.5t70 44.5t85 16q49 0 90 -17.5t71 -47.5t46.5 -70.5t16.5 -85.5q0 -76 -33.5 -136.5t-91.5 -102.5
t-135 -64.5t-164 -22.5q-56 0 -115 10.5t-117.5 31.5t-115 51.5t-108.5 70.5zM-270 -209q0 -25 9.5 -46.5t26 -38t39 -26t47.5 -9.5t47.5 9.5t39 26t26 38t9.5 46.5t-9.5 46.5t-26 37.5t-39 25.5t-47.5 9.5t-47.5 -9.5t-39 -25.5t-26 -37.5t-9.5 -46.5z" />
    <glyph glyph-name="ori_tha_phalaa" 
d="M-366 -283q-57 -68 -108.5 -100t-116.5 -32q-39 0 -77 16t-68.5 44.5t-49.5 67.5t-19 85q0 38 14 72t39 63l-118 78l58 66l132 -89q23 11 47.5 17t50.5 6q33 0 65 -13t60.5 -33.5t51.5 -44t39 -44.5q19 25 42.5 49.5t51 43.5t58.5 30.5t64 11.5q46 0 86.5 -17.5t71 -47
t48 -68t17.5 -80.5q0 -46 -19.5 -85t-50 -67.5t-69 -44.5t-77.5 -16q-36 0 -65.5 10.5t-56 28.5t-51 42t-50.5 51zM-418 -202q-14 17 -32 36.5t-39.5 36.5t-46.5 28.5t-53 11.5q-22 0 -42.5 -8.5t-37 -24t-26.5 -36t-10 -44.5t10.5 -45t27 -36t37 -23.5t41.5 -8.5
q28 0 52 10t45 26.5t39.5 36.5t34.5 40zM-314 -202q16 -20 36.5 -40t43 -36.5t45.5 -26.5t46 -10q18 0 38 8.5t37.5 23.5t29 36t11.5 45t-10.5 44.5t-27 36t-37.5 24t-41 8.5q-27 0 -52 -11.5t-46.5 -28.5t-40 -36.5t-32.5 -36.5z" />
    <glyph glyph-name="ori_da_phalaa" 
d="M-90 -290h64v-256h-64v61q-19 -16 -42 -25t-49 -9q-53 0 -88.5 27.5t-44.5 72.5q-50 34 -79.5 81t-29.5 105q0 54 19.5 98t55 75t86 48t112.5 17q49 0 94.5 -17t79.5 -46.5t54.5 -69t20.5 -85.5q0 -36 -16 -73t-65 -77l-37 58q54 42 54 97q0 31 -15.5 58t-41.5 47
t-59.5 32t-70.5 12q-47 0 -85 -12.5t-65 -35.5t-42 -55t-15 -71q0 -32 14 -59t37 -49q23 54 97 82l33 -56q-36 -11 -55.5 -31t-19.5 -43q0 -30 20.5 -48t50.5 -18q17 0 32.5 7t27.5 18t20.5 24.5t11.5 27.5v88z" />
    <glyph glyph-name="ori_dha_phalaa" 
d="M-432 -36l46 50l280 -276l-47 -48q-24 20 -45 31.5t-37.5 17t-27.5 7t-15 1.5q-31 0 -55.5 -19t-24.5 -58q0 -27 12 -49.5t32 -38t45 -24t51 -8.5q21 0 43 5t44.5 17.5t46 33.5t49.5 54v345h64v-514h-64v77q-35 -37 -80 -59.5t-103 -22.5q-39 0 -76 13t-65.5 37.5
t-45.5 59t-17 77.5q0 26 8.5 50t25.5 42t42 29t58 11h19z" />
    <glyph glyph-name="ori_na_phalaa" 
d="M-538 -344q0 68 21.5 131t73 111.5t136.5 77.5t213 29h100v-518h-100v418q-90 0 -151.5 -14t-99.5 -40t-54.5 -63t-16.5 -82q26 0 48.5 -10t39.5 -26.5t27 -38t10 -43.5q0 -46 -31 -78.5t-84 -32.5q-26 0 -50 11.5t-42 34.5t-29 56t-11 77z" />
    <glyph glyph-name="ori_pa_phalaa" 
d="M-233 -381q0 18 6.5 35t14.5 31h-11q-33 0 -58 12t-41 32t-24 44.5t-8 50.5q0 43 16.5 77t44.5 57t65 35t78 12q56 0 105.5 -23t90.5 -64v82h64v-514h-64v60q-24 -27 -58 -46t-72 -19q-36 0 -64 10.5t-46.5 29t-28.5 43.5t-10 55zM-150 -59q-28 0 -53 -7.5t-44.5 -22
t-31 -36.5t-11.5 -51q0 -41 22 -61t54 -20q4 0 12.5 0.5t22 3.5t31 10t39.5 20l30 -64q-17 -8 -33 -16.5t-29 -20.5t-20.5 -27t-7.5 -34q0 -18 7.5 -31.5t19 -22t25.5 -12.5t28 -4q22 0 43 7.5t38.5 19.5t31.5 27.5t22 30.5v208q-55 57 -101 80t-95 23z" />
    <glyph glyph-name="ori_pha_phalaa" 
d="M-234 -381q0 18 6.5 35t15.5 31h-12q-33 0 -57.5 12t-41 32t-24.5 44.5t-8 50.5q0 43 16.5 77t45 57t65.5 35t78 12q55 0 104.5 -23t90.5 -63v81h64v-58q20 10 40 10q21 0 40 -8t33 -22t22.5 -33.5t8.5 -43.5q0 -49 -30.5 -78t-74.5 -29q-23 0 -39 9v-261h-64v59
q-24 -27 -58 -45.5t-71 -18.5q-73 0 -111.5 39t-38.5 99zM-150 -59q-28 0 -53.5 -7.5t-45 -22t-31 -36.5t-11.5 -51q0 -41 22.5 -61t54.5 -20q4 0 12.5 0.5t22 3.5t31 10t39.5 20l30 -64q-17 -8 -33.5 -16.5t-29.5 -20.5t-20.5 -27t-7.5 -34q0 -18 7.5 -31.5t19 -22
t26 -12.5t28.5 -4q22 0 42.5 7.5t38 19.5t31.5 27.5t22 30.5v209q-55 56 -101 79t-94 23zM109 -155v-4q1 -17 12.5 -28.5t26.5 -11.5q17 0 29 13t12 31q0 17 -12 30t-29 13q-16 0 -27.5 -13t-11.5 -30z" />
    <glyph glyph-name="ori_ba_phalaa" 
d="M-150 5q49 0 94.5 -17t79.5 -46.5t54.5 -69t20.5 -85.5q0 -36 -16 -73t-65 -77l-37 58q54 42 54 97q0 31 -15.5 58t-41.5 47t-59.5 32t-70.5 12q-47 0 -85 -12.5t-65 -35.5t-42 -55t-15 -71q0 -31 13 -57.5t36 -48.5q14 41 51 67t88 26q30 0 55.5 -10t44.5 -27t31 -40
t14 -50v-173h-64v49q-36 -22 -81 -22q-52 0 -90 27.5t-51 70.5q-51 34 -81 81.5t-30 106.5q0 54 19.5 98t55 75t86 48t112.5 17zM-253 -382q0 -31 23 -52t59 -21q35 0 58 21.5t23 54.5q-2 29 -24 49t-57 20q-36 0 -59 -21t-23 -51z" />
    <glyph glyph-name="ori_bha_phalaa" 
d="M-174 -455q26 0 51.5 13t38.5 41q-11 -4 -22 -4q-39 0 -64 23.5t-25 61.5q0 17 6.5 32t16 27t21 21.5t22.5 17.5l37 -44q-14 -9 -26.5 -22.5t-12.5 -27.5t8.5 -19.5t16.5 -5.5q18 0 30.5 10.5t23.5 23.5l14 16q9 -17 18 -39.5t9 -41.5q0 -30 -11.5 -57t-33 -47t-52 -31.5
t-68.5 -11.5q-56 0 -103 31t-64 86q-40 33 -63 75.5t-23 93.5q0 54 20 98t57 75t88 48t114 17t115.5 -21t91 -56.5t60 -83.5t21.5 -102q0 -45 -14.5 -85.5t-41.5 -73.5l69 -98l-53 -36l-96 147q34 30 53 68t19 78t-17 76t-47 63.5t-71 43.5t-89 16q-46 0 -85.5 -12.5
t-68 -35.5t-45 -55t-16.5 -71q0 -38 22 -73q14 41 47 71t81 46l26 -53q-41 -14 -69 -43.5t-28 -67.5q0 -28 11 -47.5t28 -31.5t36.5 -17.5t36.5 -5.5z" />
    <glyph glyph-name="ori_ma_phalaa" 
d="M0 -426h-100v361q-54 -5 -107 -20.5t-100 -39.5q36 -27 57 -53.5t32.5 -50.5t15 -45.5t3.5 -39.5q0 -39 -13.5 -71.5t-37.5 -56t-57 -36.5t-72 -13q-37 0 -69.5 13t-56.5 36t-38 54.5t-14 68.5q0 54 20 99t55 83q-29 12 -62 24.5t-74 24.5l43 88q54 -17 98 -34t79 -35
q83 52 188.5 78t209.5 26v-461zM-457 -310q0 -38 24 -59.5t54 -21.5q31 0 55.5 21.5t24.5 59.5q0 26 -19.5 58t-75.5 68q-29 -27 -46 -59t-17 -67z" />
    <glyph glyph-name="ori_ya_phalaa" 
d="M45 0h64v-514h-64v60q-24 -27 -58 -46t-72 -19q-72 0 -110.5 38.5t-38.5 98.5l-59 -41q10 -17 10 -32q0 -25 -17 -42t-45 -17q-27 0 -44.5 17t-17.5 42q0 23 15 38l148 103q-28 3 -49 16t-34.5 32t-20.5 42.5t-7 47.5q0 43 16.5 77t44.5 57t65.5 35t78.5 12
q55 0 104.5 -23t90.5 -63v81zM-80 -287q-17 -8 -33 -16.5t-29 -20.5t-20.5 -27t-7.5 -34q0 -18 7.5 -31.5t19 -22t25.5 -12.5t28 -4q23 0 44.5 9t39 22.5t30.5 30.5t21 34v198q-55 56 -101 79t-94 23q-28 0 -53.5 -7.5t-45 -22t-31 -36.5t-11.5 -51q0 -41 22.5 -61t54.5 -20
q3 0 12 0.5t22.5 3.5t31 10t39.5 20z" />
    <glyph glyph-name="ori_ra_phalaa" 
d="M-867 -276h667v276h100v-376h-767v100z" />
    <glyph glyph-name="ori_la_phalaa" 
d="M-580 -215q0 49 15 90t41.5 69.5t63.5 44.5t81 16q48 0 85 -19.5t66 -54.5q29 35 66 54.5t86 19.5q44 0 81 -16t64 -44.5t42 -69.5t15 -90v-131h134v-88h-234v219q0 25 -7 46.5t-20.5 38t-32.5 26t-42 9.5t-41.5 -9t-32 -25t-20.5 -36.5t-7 -44.5v-224h-100v219
q0 25 -7 46.5t-20.5 38t-32.5 26t-42 9.5t-42 -9.5t-32 -26t-20 -38t-7 -46.5v-219h-100v219z" />
    <glyph glyph-name="ori_lla_phalaa" 
d="M-580 -215q0 49 15 90t41.5 69.5t63.5 44.5t81 16q48 0 85 -19.5t66 -54.5q29 35 66 54.5t86 19.5q44 0 81 -16t64 -44.5t42 -69.5t15 -90v-219h-100v219q0 25 -7 46.5t-20.5 38t-32.5 26t-42 9.5t-41.5 -9t-32 -25t-20.5 -36.5t-7 -44.5v-224h-100v219q0 25 -7 46.5
t-20.5 38t-32.5 26t-42 9.5t-42 -9.5t-32 -26t-20 -38t-7 -46.5v-219h-100v219z" />
    <glyph glyph-name="ori_va_phalaa" 
d="M-472 -59q-35 -27 -53.5 -62t-18.5 -81q0 -39 14.5 -69.5t38.5 -52t55 -33t64 -11.5q44 0 74.5 17t51 44t31 60t15.5 65v187h100v-536h-100v138q-31 -35 -73.5 -55t-98.5 -20q-53 0 -102 20t-87 56t-60.5 85.5t-22.5 108.5q0 143 118 224z" />
    <glyph glyph-name="ori_sha_phalaa" 
d="M-150 -212q-17 14 -39 22.5t-43 8.5q-43 0 -73.5 -24t-30.5 -59q0 -17 8.5 -33t23.5 -28q17 35 51.5 57t80.5 22q31 0 57.5 -10.5t46 -29t30.5 -43.5t11 -53q0 -29 -11 -53.5t-30.5 -43.5t-46 -29.5t-57.5 -10.5q-30 0 -56 9.5t-45 27t-30.5 40.5t-13.5 50
q-38 21 -60.5 55t-22.5 73q0 51 35.5 90t90.5 52q-5 15 -5 27q0 44 34 72t95 28q28 0 54.5 -8t50.5 -20.5t44.5 -29t36.5 -32.5v85h64v-514h-64v340q-44 54 -92.5 84.5t-93.5 30.5q-33 0 -49 -11t-16 -25q0 -5 1 -10.5t5 -13.5q61 -9 108 -53zM-254 -382q0 -31 23.5 -52
t58.5 -21t58 21t23 52q0 30 -23 51t-58 21t-58.5 -21t-23.5 -51z" />
    <glyph glyph-name="ori_ssa_phalaa" 
d="M-233 -381q0 18 6.5 35t14.5 31h-11q-33 0 -58 12t-41 32t-24 44.5t-8 50.5q0 43 16.5 77t44.5 57t65 35t78 12q56 0 105.5 -23t90.5 -64v82h64v-514h-64v60q-24 -27 -58 -46t-72 -19q-36 0 -64 10.5t-46.5 29t-28.5 43.5t-10 55zM-150 -59q-41 0 -72 -15l268 -269v181
q-55 57 -101 80t-95 23zM-169 -385q0 -18 7.5 -31.5t19 -22t25.5 -12.5t28 -4q31 0 59 14t48 34l-112 113q-30 -14 -52.5 -35t-22.5 -56zM-290 -176q0 -41 22 -61t54 -20q5 0 22.5 2t45.5 13l-127 127q-17 -25 -17 -61z" />
    <glyph glyph-name="ori_sa_phalaa" 
d="M-240 -391q72 -14 142 -28.5t144 -28.5v287q-55 56 -101.5 79t-94.5 23q-28 0 -53 -7.5t-44.5 -22t-31 -36.5t-11.5 -51q0 -41 25.5 -61t59.5 -20q40 0 71.5 18t60.5 40l35 -60zM110 -514h-56l-408 80v45l119 75q-29 4 -51 17t-37 32t-23 42t-8 47q0 43 16.5 77t44.5 57
t65 35t78 12q56 0 105.5 -23.5t90.5 -64.5v83h64v-514z" />
    <glyph glyph-name="ori_ha_phalaa" 
d="M-75 -290h64v-185h-64v82q-40 -42 -92 -57l-38 -33q25 -3 53.5 -7t58 -8t57.5 -8.5t52 -7.5l-13 -59l-314 43v41l52 43q-19 8 -32.5 23t-18.5 38q-40 26 -69 68.5t-29 103.5q0 50 19 90t53 68.5t81.5 44t104.5 15.5q56 0 104.5 -17t84 -46.5t55.5 -69t20 -85.5
q0 -36 -16 -73t-65 -77l-37 58q54 42 54 97q0 31 -16.5 58t-44.5 47t-64 32t-75 12q-42 0 -78 -12t-61.5 -33t-40 -49t-14.5 -60q0 -35 13.5 -60.5t35.5 -42.5q14 20 38 34.5t53 23.5l20 -55q-31 -9 -47 -23t-16 -26q0 -14 12 -22.5t26 -8.5h4q26 3 46.5 13.5t36.5 24
t27.5 29t19.5 28.5v8z" />
    <glyph glyph-name="ori_yya_phalaa" horiz-adv-x="707" 
d="M507 635q-12 -18 -32 -36t-46 -32t-55.5 -23t-59.5 -9q-50 0 -93 19.5t-74.5 53t-49 78t-17.5 93.5v339h100v-339q0 -24 8.5 -49.5t26 -46.5t43 -34.5t58.5 -13.5q55 0 104 34t87 118v331h100v-1118h-100v635z" />
    <glyph glyph-name="ori_ka.virama" horiz-adv-x="1400" 
d="M1166 218l-82 73q45 52 74.5 121t29.5 144q0 96 -38.5 181.5t-106 150t-160 102.5t-200.5 38t-200.5 -31t-159.5 -84t-105 -125.5t-38 -154.5q0 -121 62 -201q23 63 75.5 100t121.5 37q48 0 90 -19.5t71 -54.5q29 35 71 54.5t91 19.5q44 0 82.5 -16t67.5 -44.5
t45.5 -69.5t16.5 -90v-349h-100v349q0 25 -9 46.5t-24 38t-35.5 26t-43.5 9.5t-43.5 -9.5t-35.5 -26t-23.5 -38t-8.5 -46.5v-349h-100v160q-25 -14 -53 -22t-59 -8q-74 0 -129.5 42t-74.5 114q-75 63 -115 147t-40 191q0 108 44.5 200t124 159.5t190.5 106t244 38.5
q89 0 168 -21.5t146.5 -60t121 -92t91.5 -117t58 -135t20 -146.5q0 -84 -30.5 -172t-91.5 -166zM551 349v5q-1 24 -10.5 44.5t-24.5 36.5t-35 25t-42 9q-23 0 -43.5 -9.5t-35.5 -26t-23.5 -38t-8.5 -46.5t8.5 -46.5t23.5 -37.5t35.5 -25.5t43.5 -9.5q22 0 42 9t35 24
t24.5 36t10.5 45v5zM1248 -339h-112l-303 249l91 59z" />
    <glyph glyph-name="ori_kha.virama" horiz-adv-x="1335" 
d="M656 1027q-104 -5 -191.5 -36.5t-150.5 -85.5t-98.5 -128t-35.5 -164q0 -88 40.5 -158t104.5 -124q10 49 37 91.5t66.5 74t90 49t108.5 17.5q66 0 122 -22.5t97 -61.5t64.5 -91.5t23.5 -111.5t-23.5 -111t-64.5 -91t-97 -61.5t-122 -22.5q-54 0 -102.5 15.5t-87 43.5
t-66 66t-40.5 83q-56 33 -102 76.5t-79 95.5t-51.5 113t-18.5 130q0 118 44 213t124 162t191.5 103.5t247.5 36.5q60 0 119 -12q-33 -44 -56 -94t-23 -95q0 -26 8.5 -50.5t25.5 -44t43.5 -31t61.5 -11.5q43 0 79 17.5t65 45.5t51.5 64t37.5 72t24 70t11 59h100v-1118h-100
v885q-16 -38 -41 -73.5t-59 -62.5t-76 -43t-93 -16q-54 0 -98 17t-75 46.5t-48 69t-17 84.5q0 62 29 120zM420 276q0 -39 15.5 -72.5t43 -59t65.5 -40t83 -14.5t83 14.5t65.5 40t43 59t15.5 72.5t-15.5 73t-43 59.5t-65.5 40t-83 14.5t-83 -14.5t-65.5 -40t-43 -59.5
t-15.5 -73zM1508 -339h-112l-303 249l91 59z" />
    <glyph glyph-name="ori_ga.virama" horiz-adv-x="1335" 
d="M1134 1118h100v-1118h-100v648q0 85 -39 155t-102 120t-142.5 77.5t-161.5 27.5q-110 0 -203.5 -30t-161.5 -84.5t-106 -131t-38 -169.5q0 -88 40.5 -158t104.5 -124q10 49 37 91.5t66.5 74t90 49t108.5 17.5q66 0 122 -22.5t97 -61.5t64.5 -91.5t23.5 -111.5t-23.5 -111
t-64.5 -91t-97 -61.5t-122 -22.5q-54 0 -102.5 15.5t-87 43.5t-66 66t-40.5 83q-56 33 -102 76.5t-79 95.5t-51.5 113t-18.5 130q0 118 44 213t124 162t191.5 103.5t247.5 36.5q67 0 130.5 -14t121.5 -40.5t107.5 -64.5t87.5 -86v195zM420 276q0 -39 15.5 -72.5t43 -59
t65.5 -40t83 -14.5t83 14.5t65.5 40t43 59t15.5 72.5t-15.5 73t-43 59.5t-65.5 40t-83 14.5t-83 -14.5t-65.5 -40t-43 -59.5t-15.5 -73zM1508 -339h-112l-303 249l91 59z" />
    <glyph glyph-name="ori_gha.virama" horiz-adv-x="1329" 
d="M1129 1118h100v-1118h-100v190q-17 -42 -42.5 -78.5t-57.5 -63.5t-70.5 -42.5t-81.5 -15.5q-129 0 -187 114q-15 -33 -37 -55t-47.5 -35t-53 -18.5t-54.5 -5.5q-52 0 -96 20t-76 55t-51 83t-20 105q-81 69 -127.5 164t-46.5 206t40 204t113.5 159.5t177 104t231.5 37.5
q78 0 149 -18t133 -50.5t113.5 -78.5t90.5 -101v238zM1129 609q0 75 -39.5 149.5t-106.5 134.5t-155 97.5t-185 37.5q-105 0 -190.5 -30.5t-146 -85t-93.5 -129t-33 -161.5q0 -78 26 -137.5t71 -107.5q14 38 36 70t47.5 58.5t53 46t53.5 31.5l46 -69q-21 -12 -50 -32.5
t-55 -52t-44.5 -74t-18.5 -97.5q0 -33 11 -63.5t30.5 -54t46.5 -37t60 -13.5q27 0 54 11.5t48.5 31.5t34.5 47t13 57v104h100v-104q0 -36 11 -63.5t29 -46t42.5 -28t51.5 -9.5q48 0 93 30.5t80.5 78t57 105t21.5 112.5v193zM1508 -339h-112l-303 249l91 59z" />
    <glyph glyph-name="ori_nga.virama" horiz-adv-x="1453" 
d="M970 748q0 53 20 98q-30 33 -69.5 66t-87 58.5t-102 41.5t-115.5 16q-97 0 -177.5 -32t-138 -86.5t-89 -125.5t-31.5 -149q0 -81 21.5 -142t59.5 -106q14 104 86 173t181 107l40 -82q-44 -15 -82 -37.5t-66.5 -52.5t-45 -68t-16.5 -85q0 -68 26 -116t65 -78t85.5 -44
t88.5 -14q43 0 89 12t83 37.5t61 65t24 95.5q0 35 -12 64.5t-32 53t-45.5 40t-53.5 25.5l-141 -127l-66 72l336 297l64 -68l-120 -108q37 -17 68.5 -44.5t54 -62t35 -74t12.5 -79.5q0 -64 -25.5 -118.5t-72.5 -94.5t-113.5 -63t-148.5 -23q-59 0 -115 17t-103 50t-81.5 80
t-50.5 107q-42 31 -77 73t-60 91.5t-39 105t-14 114.5q0 114 42.5 206.5t116 157.5t172.5 100.5t212 35.5q75 0 139 -20t117 -50t95.5 -66t75.5 -69q56 45 131 45q44 0 82.5 -16t67.5 -44.5t45.5 -69.5t16.5 -90q0 -50 -16.5 -90t-45.5 -69t-67.5 -44.5t-82.5 -15.5
t-82.5 15.5t-67 44.5t-45 69t-16.5 90zM1070 748q0 -25 8.5 -46.5t23.5 -37.5t35.5 -25.5t43.5 -9.5t43.5 9.5t35.5 25.5t24 37.5t9 46.5t-9 46.5t-24 38t-35.5 26t-43.5 9.5t-43.5 -9.5t-35.5 -26t-23.5 -38t-8.5 -46.5zM1128 -339h-112l-303 249l91 59z" />
    <glyph glyph-name="ori_ca.virama" horiz-adv-x="1335" 
d="M675 1128q108 0 205.5 -36.5t172 -100t118.5 -149.5t44 -185q0 -38 -6.5 -76t-24 -76.5t-47.5 -76.5t-77 -77l-60 94q57 43 86 101.5t29 122.5q0 74 -36.5 139.5t-98 114t-141.5 77t-167 28.5q-110 0 -201 -30t-155.5 -84.5t-100 -131t-35.5 -169.5q0 -88 40.5 -158
t104.5 -124q10 49 37 91.5t66.5 74t90 49t108.5 17.5q66 0 122 -22.5t97 -61.5t64.5 -91.5t23.5 -111.5t-23.5 -111t-64.5 -91t-97 -61.5t-122 -22.5q-54 0 -102.5 15.5t-87 43.5t-66 66t-40.5 83q-56 33 -102 76.5t-79 95.5t-51.5 113t-18.5 130q0 118 42 213t119.5 162
t187.5 103.5t246 36.5zM420 276q0 -39 15.5 -72.5t43 -59t65.5 -40t83 -14.5t83 14.5t65.5 40t43 59t15.5 72.5t-15.5 73t-43 59.5t-65.5 40t-83 14.5t-83 -14.5t-65.5 -40t-43 -59.5t-15.5 -73zM1208 -339h-112l-303 249l91 59z" />
    <glyph glyph-name="ori_cha.virama" horiz-adv-x="1356" 
d="M933 320q39 0 75.5 -10t65 -30.5t46 -51t17.5 -71.5q0 -42 -16.5 -73.5t-44 -52.5t-64.5 -31t-79 -10q-44 0 -81 9t-69 24t-60.5 34t-55.5 40q-29 -21 -58.5 -40t-62 -34t-68 -24t-75.5 -9q-42 0 -79 10t-64.5 31t-44 52.5t-16.5 73.5q0 51 26 86t68 54q-65 14 -133 14
v96q59 0 126 -19.5t139 -53.5q-11 23 -16.5 51.5t-5.5 64.5q-75 52 -118.5 129.5t-43.5 175.5q0 78 33.5 146t93.5 118.5t142.5 79.5t180.5 29q101 0 183 -30.5t140.5 -82t90.5 -119.5t32 -144q0 -30 -6 -62t-17 -63t-27 -59t-36 -50l-72 67q28 32 43 78.5t15 88.5
q0 55 -26 105t-72.5 88t-109.5 60.5t-138 22.5q-78 0 -142 -21t-110.5 -59t-72 -90t-25.5 -113q0 -66 22.5 -111t62.5 -78q15 34 39.5 62t56 48.5t68.5 31.5t78 11q55 0 103 -20t84 -55t57 -82.5t21 -101.5q0 -43 -8 -74.5t-22 -57.5q8 1 15 1.5t15 0.5zM668 609
q-38 0 -70.5 -13.5t-55.5 -36.5t-36 -54t-13 -65q0 -18 3 -39.5t11 -44.5t21 -45.5t33 -41.5q27 -15 54 -32.5t55 -35.5q26 17 52 34.5t52 32.5q20 19 33 42t21 45.5t11.5 44.5t3.5 40q0 34 -13 65t-36.5 54t-55.5 36.5t-70 13.5zM408 220q-13 0 -31.5 -2.5t-36 -9.5
t-29.5 -19.5t-12 -31.5q0 -21 12 -34t29 -20.5t35.5 -10t32.5 -2.5q49 0 95 18t91 44q-41 29 -85 48.5t-101 19.5zM928 90q13 0 32 2.5t36 10t29 20.5t12 34q0 19 -12.5 31.5t-29.5 19.5t-35.5 9.5t-31.5 2.5q-51 0 -95.5 -19.5t-86.5 -48.5q45 -26 90 -44t92 -18z
M1348 -339h-112l-303 249l91 59z" />
    <glyph glyph-name="ori_ja.virama" horiz-adv-x="1341" 
d="M209 287v7q-61 63 -95 142.5t-34 176.5q0 118 44.5 213t125.5 162t193.5 103.5t249.5 36.5q108 0 207 -33t174.5 -94t121 -147t45.5 -192q0 -38 -7 -77.5t-25.5 -78.5t-50 -77t-79.5 -73l-42 101q34 26 55 52.5t31.5 53t14 53t3.5 52.5q0 85 -39 151.5t-102 113t-143 71
t-162 24.5q-113 0 -207.5 -30t-163 -84.5t-106.5 -131t-38 -169.5q0 -53 15.5 -99t42.5 -87q19 42 47.5 73t60 53.5t63 36t57.5 21.5l38 -87q-99 -36 -147 -91.5t-48 -149.5q0 -35 11 -69.5t33.5 -62t56.5 -44.5t81 -17q30 0 59 9t51.5 26.5t36.5 43t14 59.5q0 24 -9 45
t-24.5 36.5t-36.5 24.5t-44 9v85q10 36 30.5 69t52.5 58.5t77.5 40.5t106.5 15q15 0 35.5 -3t43 -8.5t44.5 -13t39 -16.5v-570h-100v494q-20 10 -39.5 13.5t-37.5 3.5q-32 0 -57 -9.5t-43 -25.5t-27.5 -37.5t-10.5 -45.5q21 -12 39 -28t31.5 -37.5t21.5 -48.5t8 -61
q0 -57 -21.5 -99.5t-57.5 -71t-83 -43t-98 -14.5q-70 0 -123 24.5t-88.5 65.5t-53.5 94.5t-18 112.5zM1248 -339h-112l-303 249l91 59z" />
    <glyph glyph-name="ori_jha.virama" horiz-adv-x="1332" 
d="M296 276q0 47 15 91q-52 25 -94.5 61t-73 81.5t-47 99.5t-16.5 115q0 96 35 169.5t93.5 123.5t134 75.5t156.5 25.5q44 0 88.5 -8.5t87 -24t81 -36.5t70.5 -45q-17 -20 -27 -43.5t-10 -52.5q0 -25 11 -48.5t32 -42t52.5 -29.5t72.5 -11q36 0 68 9t56 26t37.5 42t13.5 58
t-12.5 56.5t-32.5 39.5t-47 23.5t-55 7.5v89q52 -2 97 -17t78.5 -42t52.5 -66t19 -91q0 -63 -27.5 -107.5t-69.5 -73t-92 -41.5t-94 -13q-55 0 -102.5 15t-82.5 42t-55 65.5t-20 86.5q0 14 3 33t14 38q-21 18 -48 29.5t-55.5 18.5t-56.5 10t-50 3q-62 0 -119 -17
t-100.5 -52.5t-70 -91t-26.5 -131.5q0 -50 13.5 -92t38 -76t58.5 -59t74 -41q42 48 103 76.5t136 28.5q66 0 122 -22.5t97 -61.5t64.5 -91.5t23.5 -111.5q0 -66 -29 -122l260 -217l-64 -79l-261 210q-42 -36 -96 -57t-117 -21q-66 0 -122 22.5t-97 61.5t-64.5 91t-23.5 111z
M396 276q0 -39 15.5 -72.5t43 -59t65.5 -40t83 -14.5t83 14.5t65.5 40t43 59t15.5 72.5t-15.5 73t-43 59.5t-65.5 40t-83 14.5t-83 -14.5t-65.5 -40t-43 -59.5t-15.5 -73zM1011 -339h-112l-303 249l91 59z" />
    <glyph glyph-name="ori_nya.virama" horiz-adv-x="1256" 
d="M1156 366q0 -66 -28.5 -133t-93.5 -121t-170.5 -88t-260.5 -34q-144 0 -243.5 31.5t-162 83.5t-90 119t-27.5 137q0 43 11 80t28 69.5t39 59.5t44 50q-65 54 -93.5 123t-28.5 141t31 134.5t78 109.5l84 -55q-15 -13 -31 -32.5t-30 -43.5t-23 -52t-9 -59
q0 -67 31.5 -119.5t88 -89t134.5 -55.5t172 -19t176 12t143 41t96 76t35 118q0 81 -42.5 129.5t-114.5 48.5q-59 0 -95.5 -37t-36.5 -112v-127h-100v136q0 63 -30.5 101.5t-81.5 38.5q-26 0 -49.5 -10t-41.5 -27.5t-28.5 -41.5t-10.5 -52q0 -29 8.5 -53t20.5 -42.5t24 -31
t20 -18.5l-73 -59q-16 16 -33.5 39t-32.5 50t-24.5 56.5t-9.5 59.5q0 52 17 94.5t48 72.5t73 46.5t93 16.5q62 0 98 -26t68 -74q12 20 29.5 38.5t40 32t51 21.5t63.5 8q55 0 101 -21.5t79 -58.5t51.5 -88t18.5 -109q0 -74 -31.5 -139.5t-103.5 -114.5q31 -16 56 -40.5
t42.5 -54.5t27 -64.5t9.5 -71.5zM382 529q-53 15 -97 36q-14 -13 -32 -33t-34.5 -46t-27.5 -57t-11 -66q0 -66 31 -116.5t87 -85.5t133.5 -53t171.5 -18t176.5 16t144 50t97 85.5t35.5 123.5q0 36 -10.5 66.5t-31 53t-49.5 35.5t-66 13q-20 0 -43 -6t-43 -20.5t-33 -38.5
t-13 -59v-180h-100v180q0 18 -8 35t-23 30t-35.5 21t-45.5 8q-26 0 -49.5 -9.5t-41.5 -27t-28.5 -41t-10.5 -51.5q0 -29 8.5 -53t20.5 -42.5t24 -31t20 -18.5l-73 -59q-16 16 -33.5 39t-32.5 50t-24.5 56.5t-9.5 59.5q0 48 15 87t42 67zM1268 -339h-112l-303 249l91 59z" />
    <glyph glyph-name="ori_tta.virama" horiz-adv-x="1334" 
d="M1134 1118h100v-505h-100v35q0 85 -39 155t-102 120t-142.5 77.5t-161.5 27.5q-110 0 -203.5 -30t-161.5 -84.5t-106 -131t-38 -169.5q0 -88 40.5 -158t104.5 -124q10 49 37 91.5t66.5 74t90 49t108.5 17.5q66 0 122 -22.5t97 -61.5t64.5 -91.5t23.5 -111.5t-23.5 -111
t-64.5 -91t-97 -61.5t-122 -22.5q-54 0 -102.5 15.5t-87 43.5t-66 66t-40.5 83q-56 33 -102 76.5t-79 95.5t-51.5 113t-18.5 130q0 118 44 213t124 162t191.5 103.5t247.5 36.5q67 0 130.5 -14t121.5 -40.5t107.5 -64.5t87.5 -86v195zM420 276q0 -39 15.5 -72.5t43 -59
t65.5 -40t83 -14.5t83 14.5t65.5 40t43 59t15.5 72.5t-15.5 73t-43 59.5t-65.5 40t-83 14.5t-83 -14.5t-65.5 -40t-43 -59.5t-15.5 -73zM1208 -339h-112l-303 249l91 59z" />
    <glyph glyph-name="ori_ttha.virama" horiz-adv-x="1348" 
d="M80 558q0 118 41.5 221.5t117.5 181t184 122.5t241 45t241 -45t184 -122.5t117.5 -181t41.5 -221.5t-41.5 -221.5t-117.5 -180.5t-184 -121.5t-241 -44.5t-241 44.5t-184 121.5t-117.5 180.5t-41.5 221.5zM180 558q0 -93 35 -178t98.5 -149.5t153 -102.5t197.5 -38
t197.5 38t153 102.5t98.5 149.5t35 178t-35 178t-98.5 150t-153 103.5t-197.5 38.5t-197.5 -38.5t-153 -103.5t-98.5 -150t-35 -178zM1468 -339h-112l-303 249l91 59z" />
    <glyph glyph-name="ori_dda.virama" horiz-adv-x="1341" 
d="M880 300q0 35 -12 64.5t-32 53t-46 40t-54 25.5l-140 -127l-66 72l350 311l64 -68l-135 -122q38 -17 69.5 -44.5t54 -62t35 -74t12.5 -79.5q0 -64 -25.5 -118.5t-72.5 -94.5t-113.5 -63t-148.5 -23q-59 0 -114 17t-101.5 48.5t-81 77.5t-51.5 105q-88 67 -140 161.5
t-52 213.5q0 118 44.5 213t125.5 162t193.5 103.5t249.5 36.5q108 0 207 -33t174.5 -94t121 -147t45.5 -192q0 -38 -7 -77.5t-25.5 -78.5t-50 -77t-79.5 -73l-42 101q34 26 55 52.5t31.5 53t14 53t3.5 52.5q0 85 -39 151.5t-102 113t-143 71t-162 24.5q-113 0 -207.5 -30
t-163 -84.5t-106.5 -131t-38 -169.5q0 -64 22 -118t60 -100q16 100 87.5 167t178.5 105l40 -82q-44 -15 -82 -37.5t-66.5 -52.5t-45 -68t-16.5 -85q0 -68 26 -116t65 -78t85.5 -44t88.5 -14q43 0 89 12t83 37.5t61 65t24 95.5zM1208 -339h-112l-303 249l91 59z" />
    <glyph glyph-name="ori_ddha.virama" horiz-adv-x="1341" 
d="M890 -115q-71 23 -124.5 50t-93.5 56q-6 -1 -12 -1h-11q-71 0 -132 17t-110 48.5t-83.5 77.5t-51.5 105q-88 67 -140 161.5t-52 213.5q0 118 44.5 213t125.5 162t193.5 103.5t249.5 36.5q108 0 207 -33t174.5 -94t121 -147t45.5 -192q0 -38 -7 -77.5t-25.5 -78.5t-50 -77
t-79.5 -73l-42 101q34 26 55 52.5t31.5 53t14 53t3.5 52.5q0 85 -39 151.5t-102 113t-143 71t-162 24.5q-113 0 -207.5 -30t-163 -84.5t-106.5 -131t-38 -169.5q0 -64 22 -118t60 -100q16 100 87.5 167t178.5 105l40 -82q-44 -15 -82 -37.5t-66.5 -52.5t-45 -68t-16.5 -85
q0 -56 18 -99.5t48.5 -75t69.5 -52t81 -29.5q-30 44 -41.5 87.5t-11.5 84.5q0 53 19.5 95.5t52.5 72.5t76.5 46t91.5 16t90 -18t72.5 -49.5t48 -73t17.5 -89.5q0 -49 -15 -88t-41 -69.5t-61 -52.5t-75 -35q30 -15 62 -25.5t64 -17.5zM890 253q0 29 -10 54t-27.5 43t-40.5 28
t-50 10q-61 0 -100.5 -36.5t-39.5 -104.5q0 -50 21 -91.5t56 -75.5q57 6 93.5 24t58.5 43t30.5 52.5t8.5 53.5zM1328 -339h-112l-303 249l91 59z" />
    <glyph glyph-name="ori_nna.virama" horiz-adv-x="1247" 
d="M1047 1118h100v-1118h-100v771q-43 59 -91.5 106.5t-101.5 81t-109.5 51.5t-115.5 18q-28 0 -56.5 -7t-52 -22t-38 -39t-14.5 -58q0 -31 16 -65.5t51 -64.5q38 -2 75 -9.5t71 -21.5l-51 -91q-27 11 -62 17t-67 6q-65 0 -123.5 -19t-102.5 -55t-69.5 -87.5t-25.5 -116.5
q0 -52 18 -95.5t49 -78.5q22 54 58 99t81.5 78t100 51.5t114.5 18.5q71 0 128.5 -17.5t97.5 -48.5t61.5 -72.5t21.5 -89.5q0 -63 -29.5 -110t-78.5 -78t-113 -46.5t-133 -15.5q-82 0 -166.5 26t-153.5 77.5t-112.5 127t-43.5 174.5q0 83 28 147t75 109.5t108.5 74
t128.5 39.5q-27 35 -39.5 73t-12.5 73q0 47 20 87t56.5 69t88 45t115.5 16q54 0 108 -17t105.5 -47t98.5 -70.5t87 -86.5v211zM560 90q39 0 82.5 7.5t81 25t62 46t24.5 71.5q0 19 -11.5 41.5t-35.5 42t-60.5 32t-85.5 12.5q-56 0 -102.5 -17t-83 -46.5t-62.5 -68t-42 -81.5
q53 -32 113.5 -48.5t119.5 -16.5zM1428 -339h-112l-303 249l91 59z" />
    <glyph glyph-name="ori_ta.virama" horiz-adv-x="1341" 
d="M1037 457q34 26 55 52.5t31.5 53t14 53t3.5 52.5q0 85 -39 151.5t-102 113t-143 71t-162 24.5q-113 0 -207.5 -30t-163 -84.5t-106.5 -131t-38 -169.5q0 -64 22 -118t60 -100q16 100 87.5 167t178.5 105l40 -82q-44 -15 -82 -37.5t-66.5 -52.5t-45 -68t-16.5 -85
q0 -68 26 -116t65 -78t85.5 -44t88.5 -14q43 0 89 12t83 37.5t61 65t24 95.5q0 25 -6.5 47t-17.5 42q-17 -22 -44.5 -35t-59.5 -13q-26 0 -49.5 9t-40.5 24t-27 35t-10 43t10 43t27.5 35t42 24t53.5 9q53 0 94.5 -27t70 -67.5t43 -89t14.5 -90.5q0 -64 -25.5 -118.5
t-72.5 -94.5t-113.5 -63t-148.5 -23q-59 0 -114 17t-101.5 48.5t-81 77.5t-51.5 105q-88 67 -140 161.5t-52 213.5q0 118 44.5 213t125.5 162t193.5 103.5t249.5 36.5q108 0 207 -33t174.5 -94t121 -147t45.5 -192q0 -38 -7 -77.5t-25.5 -78.5t-50 -77t-79.5 -73zM1218 -339
h-112l-303 249l91 59z" />
    <glyph glyph-name="ori_tha.virama" horiz-adv-x="1173" 
d="M356 764l-56 -81q-22 17 -43.5 37t-38.5 45.5t-27.5 57t-10.5 71.5q0 55 22.5 98.5t61 73.5t89.5 46t108 16q72 0 128.5 -22t95.5 -59t59.5 -84.5t20.5 -98.5q0 -79 -24.5 -136t-65 -99t-92.5 -72t-105.5 -54.5t-105.5 -46.5t-92.5 -48t-65 -58.5t-24.5 -78.5
q0 -39 19 -72t50.5 -57t72.5 -38t86 -14q158 0 296.5 108t258.5 314v606h100v-1118h-100v338q-16 -24 -42 -59t-63 -74t-84 -77t-103.5 -69t-122.5 -50t-141 -19q-76 0 -138 21.5t-106.5 59.5t-68.5 90t-24 114q0 67 25 114t66.5 81t94 58.5t107 46.5t107 45.5t94 56.5
t66.5 78t25 110q0 33 -13.5 63t-38.5 52t-61 35t-80 13q-89 0 -140.5 -36.5t-51.5 -96.5q0 -28 8.5 -50t20.5 -38t25 -26.5t22 -16.5zM1349 -339h-112l-303 249l91 59z" />
    <glyph glyph-name="ori_da.virama" horiz-adv-x="1315" 
d="M1209 -399h-112l-303 249l91 59zM834 463h100v-536h-100v165q-43 -47 -101.5 -74.5t-128.5 -27.5q-55 0 -102 15.5t-83 43t-60.5 66.5t-33.5 87q-55 33 -100 76t-77.5 95t-50 112t-17.5 128q0 118 42 213t119.5 162t187.5 103.5t246 36.5q108 0 205.5 -36.5t172 -100
t118.5 -149.5t44 -185q0 -38 -6.5 -76t-24 -76.5t-47.5 -76.5t-77 -77l-60 94q57 43 86 101.5t29 122.5q0 74 -36.5 139.5t-98 114t-141.5 77t-167 28.5q-110 0 -201 -30t-155.5 -84.5t-100 -131t-35.5 -169.5q0 -88 41 -159t107 -125q31 135 198 200l51 -86
q-76 -26 -116.5 -73.5t-40.5 -109.5q0 -39 14.5 -70t39 -53.5t58 -34.5t71.5 -12q45 0 84.5 16.5t70 43.5t50.5 60t26 66v187z" />
    <glyph glyph-name="ori_dha.virama" horiz-adv-x="1155" 
d="M687 591l-71 51q-48 28 -85 34.5t-71 6.5q-51 0 -101 -19t-90 -55t-64.5 -87t-24.5 -115q0 -76 30 -135t78 -99.5t109 -61.5t124 -21q51 0 102.5 12t105 42t110 81t116.5 128v765h100v-1118h-100v210q-38 -45 -85 -85t-102 -70t-117 -47.5t-130 -17.5q-85 0 -164.5 27
t-141 80t-98.5 130.5t-37 178.5q0 70 23.5 134t68 114.5t109.5 83.5t148 42l-368 271l68 77l613 -463zM1334 -339h-112l-303 249l91 59z" />
    <glyph glyph-name="ori_na.virama" horiz-adv-x="1255" 
d="M956 454q48 48 73.5 107t25.5 125q0 73 -32 135.5t-90 108.5t-138.5 72t-177.5 26t-177.5 -26t-138.5 -72t-90 -108.5t-32 -135.5q0 -57 19.5 -108.5t55.5 -96.5q79 81 201 130t282 49h100v-660h-100v560q-105 0 -193.5 -26.5t-153.5 -73t-103 -108.5t-42 -133
q26 0 48.5 -10t39.5 -26.5t27 -38t10 -43.5q0 -46 -31 -78.5t-84 -32.5q-26 0 -50 11.5t-42 34.5t-29 56t-11 77q0 126 68 233q-54 60 -82.5 132t-28.5 152q0 93 39.5 174t111 140.5t170 93.5t216.5 34t216.5 -34t170 -93.5t111.5 -140.5t40 -174q0 -89 -35.5 -168
t-100.5 -142zM1115 -339h-112l-303 249l91 59z" />
    <glyph glyph-name="ori_pa.virama" horiz-adv-x="1185" 
d="M985 1118h100v-1118h-100v180q-23 -37 -56.5 -71.5t-75 -60.5t-88.5 -42t-96 -16q-77 0 -136 22t-99 60.5t-60.5 91t-20.5 113.5q0 29 6.5 55t17 48.5t23 41t24.5 33.5q-20 -3 -38.5 -3.5t-32.5 -0.5q-69 0 -120.5 25.5t-85.5 66.5t-50.5 93.5t-16.5 106.5q0 93 35.5 165
t96 120.5t140 74t168.5 25.5q68 0 132 -16.5t123 -46.5t112 -72.5t98 -94.5v220zM520 1028q-67 0 -128.5 -17.5t-108.5 -53t-75 -89t-28 -125.5q0 -52 15.5 -90.5t42 -64t62 -38t75.5 -12.5q9 0 29.5 1t50.5 7t68 19.5t82 38.5l46 -102q-36 -16 -71.5 -36t-63.5 -47.5
t-45.5 -64.5t-17.5 -86q0 -47 19 -80.5t49 -55.5t66.5 -32t70.5 -10q54 0 104.5 18.5t93.5 48t76 66.5t53 75v486q-61 68 -118 114.5t-113.5 75.5t-114 41.5t-119.5 12.5zM1361 -339h-112l-303 249l91 59z" />
    <glyph glyph-name="ori_pha.virama" horiz-adv-x="1508" 
d="M985 1118h100v-149q23 18 51 28.5t61 10.5q44 0 82.5 -16t67 -44.5t45 -69.5t16.5 -90q0 -50 -16.5 -90t-45.5 -69t-67.5 -44.5t-82.5 -15.5q-33 0 -60.5 10.5t-50.5 27.5v-607h-100v180q-23 -37 -56.5 -71.5t-75 -60.5t-88.5 -42t-96 -16q-77 0 -136 22t-99 60.5
t-60.5 91t-20.5 113.5q0 29 6.5 55t17 48.5t23 41t24.5 33.5q-20 -3 -38.5 -3.5t-32.5 -0.5q-69 0 -120.5 25.5t-85.5 66.5t-50.5 93.5t-16.5 106.5q0 93 35.5 165t96 120.5t140 74t168.5 25.5q68 0 132 -16.5t123 -46.5t112 -72.5t98 -94.5v220zM520 1028
q-67 0 -128.5 -17.5t-108.5 -53t-75 -89t-28 -125.5q0 -52 15.5 -90.5t42 -64t62 -38t75.5 -12.5q9 0 29.5 1t50.5 7t68 19.5t82 38.5l46 -102q-36 -16 -71.5 -36t-63.5 -47.5t-45.5 -64.5t-17.5 -86q0 -47 19 -80.5t49 -55.5t66.5 -32t70.5 -10q54 0 104.5 18.5t93.5 48
t76 66.5t53 75v486q-61 68 -118 114.5t-113.5 75.5t-114 41.5t-119.5 12.5zM1085 788q0 -25 8.5 -46.5t23.5 -37.5t35.5 -25.5t43.5 -9.5t43.5 9.5t35.5 25.5t24 37.5t9 46.5t-9 46.5t-24 38t-35.5 26t-43.5 9.5t-43.5 -9.5t-35.5 -26t-23.5 -38t-8.5 -46.5zM1364 -339h-112
l-303 249l91 59z" />
    <glyph glyph-name="ori_ba.virama" horiz-adv-x="1315" 
d="M675 1128q108 0 205.5 -36.5t172 -100t118.5 -149.5t44 -185q0 -38 -6.5 -76t-24 -76.5t-47.5 -76.5t-77 -77l-60 94q57 43 86 101.5t29 122.5q0 74 -36.5 139.5t-98 114t-141.5 77t-167 28.5q-110 0 -201 -30t-155.5 -84.5t-100 -131t-35.5 -169.5q0 -88 40.5 -158
t104.5 -124q10 49 37 91.5t66.5 74t90 49t108.5 17.5q66 0 122 -22.5t97 -61.5t64.5 -91.5t23.5 -111.5v-349h-100v136q-41 -35 -93.5 -54t-113.5 -19q-54 0 -102.5 15.5t-87 43.5t-66 66t-40.5 83q-56 33 -102 76.5t-79 95.5t-51.5 113t-18.5 130q0 118 42 213t119.5 162
t187.5 103.5t246 36.5zM420 276q0 -39 15.5 -72.5t43 -59t65.5 -40t83 -14.5q44 0 81 14t64.5 38t43.5 56.5t18 69.5v8q0 39 -15.5 73t-43 59.5t-65.5 40t-83 14.5t-83 -14.5t-65.5 -40t-43 -59.5t-15.5 -73zM1210 -339h-112l-303 249l91 59z" />
    <glyph glyph-name="ori_bha.virama" horiz-adv-x="1417" 
d="M689 1028q-110 0 -203.5 -30t-161.5 -84.5t-106 -131t-38 -169.5q0 -64 22 -118t60 -100q16 103 87 178.5t179 113.5l40 -82q-44 -15 -82 -40.5t-66.5 -59t-45 -75t-16.5 -88.5q0 -68 27.5 -116t68.5 -78t89 -44t90 -14q39 0 78.5 10t73.5 32t58 56t33 82
q-41 -23 -89 -23q-39 0 -72 12.5t-56 35t-36 53.5t-13 68q0 36 11.5 65.5t29 53.5t39 42t41.5 32l59 -67q-14 -9 -28.5 -21t-26 -27t-18.5 -32t-7 -36q0 -22 7 -37t18.5 -24.5t25 -13.5t26.5 -4q26 0 48 8.5t40.5 22.5t33.5 31.5t27 35.5q20 -33 32 -73t12 -72
q0 -64 -24 -120.5t-69.5 -98.5t-111 -66.5t-147.5 -24.5q-59 0 -115 17t-103 48.5t-83 77.5t-54 104q-88 68 -140.5 162t-52.5 214q0 118 44 213t124 162t192 103.5t249 36.5q89 0 168 -23t146 -64t121 -96.5t91.5 -121.5t57.5 -139t20 -148q0 -42 -9 -91t-25.5 -99
t-39 -98.5t-48.5 -89.5l174 -265l-82 -59l-211 335q65 92 103 184.5t38 189.5q0 95 -38 183t-105.5 155t-160 107t-200.5 40zM1257 -339h-112l-303 249l91 59z" />
    <glyph glyph-name="ori_ma.virama" horiz-adv-x="1185" 
d="M660 488q-73 -35 -146 -75.5t-134.5 -81t-105.5 -78t-58 -65.5q13 -1 30 -5t32 -14t25.5 -27.5t10.5 -44.5q0 -20 -8.5 -37.5t-24 -30.5t-37 -21t-47.5 -8t-47.5 10t-37 27t-24 38.5t-8.5 44.5q0 42 15.5 79.5t51.5 76.5t94 83t143 98q-20 -6 -38 -6q-66 0 -116 25.5
t-83.5 66.5t-50 93.5t-16.5 106.5q0 93 35.5 165t96 120.5t140 74t168.5 25.5q68 0 132 -16.5t123 -46.5t112 -72.5t98 -94.5v220h100v-1118h-100v784q-61 68 -118 114.5t-113.5 75.5t-114 41.5t-119.5 12.5q-67 0 -128.5 -17.5t-108.5 -53t-75 -89t-28 -125.5
q0 -52 15.5 -90.5t42 -64t62 -38t75.5 -12.5q9 0 29.5 1t50.5 7t68 19.5t82 38.5zM1362 -339h-112l-303 249l91 59z" />
    <glyph glyph-name="ori_ya.virama" horiz-adv-x="1292" 
d="M1093 1118h100v-1118h-100v180q-23 -37 -56.5 -71.5t-75 -60.5t-88.5 -42t-96 -16q-77 0 -136 22t-99 60.5t-60.5 91t-20.5 113.5q0 26 4 46l-192 -134q32 -32 32 -78t-32 -78.5t-85 -32.5t-85 29t-32 75q0 34 20.5 63.5t65.5 60.5l343 231q-26 -8 -46 -8
q-66 0 -116 25.5t-83.5 66.5t-50 93.5t-16.5 106.5q0 93 35.5 165t96 120.5t140 74t168.5 25.5q68 0 132 -16.5t123 -46.5t112 -72.5t98 -94.5v220zM628 1028q-67 0 -128.5 -17.5t-108.5 -53t-75 -89t-28 -125.5q0 -52 15.5 -90.5t42 -64t62 -38t75.5 -12.5q9 0 29.5 1
t50.5 7t68 19.5t82 38.5l46 -102q-36 -16 -71.5 -36t-63.5 -47.5t-45.5 -64.5t-17.5 -86q0 -47 19 -80.5t49 -55.5t66.5 -32t70.5 -10q58 0 111 22t96 56.5t74 76.5t46 82v457q-61 68 -118 114.5t-113.5 75.5t-114 41.5t-119.5 12.5zM1468 -339h-112l-303 249l91 59z" />
    <glyph glyph-name="ori_ra.virama" horiz-adv-x="1388" 
d="M681 1028q-110 0 -202 -30t-158.5 -84.5t-103.5 -131t-37 -169.5q0 -88 40.5 -158t104.5 -124q10 49 37 91.5t66.5 74t90 49t108.5 17.5q66 0 122 -22.5t97 -61.5t64.5 -91.5t23.5 -111.5t-23.5 -111t-64.5 -91t-97 -61.5t-122 -22.5q-54 0 -102.5 15.5t-87 43.5t-66 66
t-40.5 83q-56 33 -102 76.5t-79 95.5t-51.5 113t-18.5 130q0 118 43 213t121.5 162t189 103.5t246.5 36.5q89 0 168.5 -23t147 -64t121.5 -96.5t92 -121.5t58.5 -139t20.5 -148q0 -42 -9 -91t-25.5 -99t-39 -98.5t-48.5 -89.5l174 -265l-82 -59l-211 335q65 92 103 184.5
t38 189.5q0 95 -38.5 183t-106.5 155t-161 107t-201 40zM420 276q0 -39 15.5 -72.5t43 -59t65.5 -40t83 -14.5t83 14.5t65.5 40t43 59t15.5 72.5t-15.5 73t-43 59.5t-65.5 40t-83 14.5t-83 -14.5t-65.5 -40t-43 -59.5t-15.5 -73zM1214 -339h-112l-303 249l91 59z" />
    <glyph glyph-name="ori_la.virama" horiz-adv-x="1388" 
d="M684 1128q89 0 168 -23t146 -64t121 -96.5t91.5 -121.5t57.5 -139t20 -148q0 -42 -9 -91t-25.5 -99t-39 -98.5t-48.5 -89.5l174 -265l-82 -59l-211 335q65 92 103 184.5t38 189.5q0 95 -38 183t-105.5 155t-160 107t-200.5 40t-200.5 -31t-159.5 -84t-105 -125.5
t-38 -154.5q0 -119 61 -200q23 63 76 99.5t121 36.5q48 0 90 -19.5t71 -54.5q29 35 71 54.5t91 19.5q44 0 82.5 -16t67.5 -44.5t45.5 -69.5t16.5 -90v-349h-100v349q0 25 -9 46.5t-24 38t-35.5 26t-43.5 9.5t-43 -9.5t-35 -25t-24 -36.5t-9 -44v-354h-100v349q0 25 -9 46.5
t-24 38t-35.5 26t-43.5 9.5t-43.5 -9.5t-35.5 -26t-23.5 -38t-8.5 -46.5v-349h-100v294q-71 62 -109 144t-38 186q0 108 44.5 200t124 159.5t190.5 106t244 38.5zM1251 -339h-112l-303 249l91 59z" />
    <glyph glyph-name="ori_lla.virama" horiz-adv-x="1400" 
d="M1166 218l-82 73q45 52 74.5 121t29.5 144q0 96 -38.5 181.5t-106 150t-160 102.5t-200.5 38t-200.5 -31t-159.5 -84t-105 -125.5t-38 -154.5q0 -121 62 -201q23 63 76 100t121 37q48 0 90 -19.5t71 -54.5q29 35 71 54.5t91 19.5q44 0 82.5 -16t67.5 -44.5t45.5 -69.5
t16.5 -90v-349h-100v349q0 25 -9 46.5t-24 38t-35.5 26t-43.5 9.5t-43 -9.5t-35 -25t-24 -36.5t-9 -44v-354h-100v349q0 25 -9 46.5t-24 38t-35.5 26t-43.5 9.5t-43.5 -9.5t-35.5 -26t-23.5 -38t-8.5 -46.5v-349h-100v293q-72 62 -110 144.5t-38 186.5q0 108 44.5 200
t124 159.5t190.5 106t244 38.5q89 0 168 -21.5t146.5 -60t121 -92t91.5 -117t58 -135t20 -146.5q0 -84 -30.5 -172t-91.5 -166zM1252 -339h-112l-303 249l91 59z" />
    <glyph glyph-name="ori_va.virama" horiz-adv-x="1315" 
d="M1215 -399h-112l-303 249l91 59zM675 1128q108 0 205.5 -36.5t172 -100t118.5 -149.5t44 -185q0 -38 -6.5 -76t-24 -76.5t-47.5 -76.5t-77 -77l-60 94q57 43 86 101.5t29 122.5q0 74 -36.5 139.5t-98 114t-141.5 77t-167 28.5q-110 0 -201 -30t-155.5 -84.5t-100 -131
t-35.5 -169.5q0 -88 40.5 -158t104.5 -124q10 49 37 91.5t66.5 74t90 49t108.5 17.5q66 0 122 -22.5t97 -61.5t64.5 -91.5t23.5 -111.5v-349h-100v136q-41 -35 -93.5 -54t-113.5 -19q-54 0 -102.5 15.5t-87 43.5t-66 66t-40.5 83q-56 33 -102 76.5t-79 95.5t-51.5 113
t-18.5 130q0 118 42 213t119.5 162t187.5 103.5t246 36.5zM420 276q0 -39 15.5 -72.5t43 -59t65.5 -40t83 -14.5t83 14.5t65.5 40t43 59t15.5 72.5t-15.5 73t-43 59.5t-65.5 40t-83 14.5t-83 -14.5t-65.5 -40t-43 -59.5t-15.5 -73zM572 278q0 23 16 39.5t39 16.5t39.5 -16.5
t16.5 -39.5t-16.5 -39.5t-39.5 -16.5t-39 16.5t-16 39.5z" />
    <glyph glyph-name="ori_sha.virama" horiz-adv-x="1266" 
d="M624 688q-35 31 -83.5 48.5t-103.5 17.5q-53 0 -100 -16.5t-82 -45.5t-55 -67.5t-20 -82.5q0 -53 27.5 -97t75.5 -73q15 42 43 77t65.5 60.5t83.5 39.5t98 14q66 0 122 -22.5t97 -61.5t64.5 -91.5t23.5 -111.5t-23.5 -111t-64.5 -91t-97 -61.5t-122 -22.5
q-65 0 -120 21.5t-96.5 59t-65.5 88.5t-25 109q-42 19 -76 48t-58.5 64t-38 76t-13.5 86q0 57 22 108.5t61 92t92.5 68.5t116.5 38q-8 19 -13 39.5t-5 37.5q0 45 18 82t52.5 63.5t84.5 41.5t113 15q72 0 139.5 -23t125 -58t103.5 -77t76 -80v228h100v-1118h-100v761
q-45 62 -97 111.5t-109 84t-117 53t-120 18.5q-85 0 -127 -30t-42 -73q0 -16 3.5 -34t16.5 -39q67 -6 125.5 -32t101.5 -67zM366 276q0 -39 15.5 -72.5t43 -59t65.5 -40t83 -14.5t83 14.5t65.5 40t43 59t15.5 72.5t-15.5 73t-43 59.5t-65.5 40t-83 14.5t-83 -14.5t-65.5 -40
t-43 -59.5t-15.5 -73zM1441 -339h-112l-303 249l91 59z" />
    <glyph glyph-name="ori_ssa.virama" horiz-adv-x="1185" 
d="M985 1118h100v-1118h-100v165l-6 5q-23 -36 -56.5 -68.5t-74 -57t-86 -39.5t-93.5 -15q-77 0 -136 22t-99 60.5t-60.5 91t-20.5 113.5q0 29 6.5 55t17 48.5t23 41t24.5 33.5q-20 -3 -38.5 -3.5t-32.5 -0.5q-69 0 -120.5 25.5t-85.5 66.5t-50.5 93.5t-16.5 106.5
q0 93 35.5 165t96 120.5t140 74t168.5 25.5q68 0 132 -16.5t123 -46.5t112 -72.5t98 -94.5v220zM520 1028q-55 0 -106 -12t-94 -35l665 -671v474q-61 68 -118 114.5t-113.5 75.5t-114 41.5t-119.5 12.5zM453 268q0 -47 19 -80.5t49 -55.5t66.5 -32t70.5 -10q40 0 78 10.5
t73 28t65.5 41t55.5 50.5l-280 282q-36 -16 -71.5 -36t-63.5 -47.5t-45 -64.5t-17 -86zM180 743q0 -52 15.5 -90.5t42 -64t62 -38t75.5 -12.5q52 0 100 12.5t93 33.5l-329 332q-28 -34 -43.5 -76.5t-15.5 -96.5zM1359 -339h-112l-303 249l91 59z" />
    <glyph glyph-name="ori_sa.virama" horiz-adv-x="1185" 
d="M1085 0h-100l-905 175v74l316 202h-22q-71 0 -125.5 25.5t-92 66.5t-57 93.5t-19.5 106.5q0 93 35.5 165t96 120.5t140 74t168.5 25.5q68 0 132 -16.5t123 -46.5t112 -72.5t98 -94.5v220h100v-1118zM520 1028q-67 0 -128.5 -17.5t-108.5 -53t-75 -89t-28 -125.5
q0 -52 17.5 -90.5t47.5 -64t69 -38t81 -12.5q48 0 88.5 10.5t75.5 27t66.5 38t61.5 44.5l57 -95l-486 -318l727 -144v683q-61 68 -118 114.5t-113.5 75.5t-114 41.5t-119.5 12.5zM1359 -339h-112l-303 249l91 59z" />
    <glyph glyph-name="ori_ha.virama" horiz-adv-x="1335" 
d="M1209 -449h-112l-303 249l91 59zM302 339q-45 23 -85 56t-70.5 76.5t-48.5 97.5t-18 119q0 92 39.5 172t112.5 139.5t175.5 94t227.5 34.5q121 0 227 -36.5t184.5 -100t123.5 -149.5t45 -185q0 -38 -6.5 -76t-24 -76.5t-47.5 -76.5t-77 -77l-60 94q57 43 86 101.5
t29 122.5q0 49 -18.5 95t-51.5 86t-78.5 72.5t-98.5 56t-112.5 36.5t-120.5 13q-102 0 -186 -25.5t-143.5 -72t-92.5 -111t-33 -142.5q0 -41 11 -75.5t29 -64t42 -52.5t50 -40q13 40 37 69.5t52 50t56 33.5t49 21l31 -82q-72 -29 -104.5 -72t-32.5 -92q0 -29 10.5 -49
t27 -32.5t37.5 -18t42 -5.5q52 0 101.5 32t92 77t74.5 94t49 82h100v-423h-100v264q-19 -32 -48.5 -67.5t-67 -67t-81 -54.5t-90.5 -29l-108 -106l541 -141l-30 -93l-650 175v59l122 122q-51 21 -82 60.5t-38 86.5z" />
    <glyph glyph-name="ori_rra.virama" horiz-adv-x="1341" 
d="M1199 -339h-112l-303 249l91 59zM544 -175q0 31 22 53t53 22t53 -22t22 -53t-22 -53t-53 -22t-53 22t-22 53zM880 300q0 35 -12 64.5t-32 53t-46 40t-54 25.5l-140 -127l-66 72l350 311l64 -68l-135 -122q38 -17 69.5 -44.5t54 -62t35 -74t12.5 -79.5q0 -64 -25.5 -118.5
t-72.5 -94.5t-113.5 -63t-148.5 -23q-59 0 -114 17t-101.5 48.5t-81 77.5t-51.5 105q-88 67 -140 161.5t-52 213.5q0 118 44.5 213t125.5 162t193.5 103.5t249.5 36.5q108 0 207 -33t174.5 -94t121 -147t45.5 -192q0 -38 -7 -77.5t-25.5 -78.5t-50 -77t-79.5 -73l-42 101
q34 26 55 52.5t31.5 53t14 53t3.5 52.5q0 85 -39 151.5t-102 113t-143 71t-162 24.5q-113 0 -207.5 -30t-163 -84.5t-106.5 -131t-38 -169.5q0 -64 22 -118t60 -100q16 100 87.5 167t178.5 105l40 -82q-44 -15 -82 -37.5t-66.5 -52.5t-45 -68t-16.5 -85q0 -68 26 -116
t65 -78t85.5 -44t88.5 -14q43 0 89 12t83 37.5t61 65t24 95.5z" />
    <glyph glyph-name="ori_rha.virama" horiz-adv-x="1341" 
d="M1349 -339h-112l-303 249l91 59zM544 -175q0 31 22 53t53 22t53 -22t22 -53t-22 -53t-53 -22t-53 22t-22 53zM890 -115q-71 23 -124.5 50t-93.5 56q-6 -1 -12 -1h-11q-71 0 -132 17t-110 48.5t-83.5 77.5t-51.5 105q-88 67 -140 161.5t-52 213.5q0 118 44.5 213
t125.5 162t193.5 103.5t249.5 36.5q108 0 207 -33t174.5 -94t121 -147t45.5 -192q0 -38 -7 -77.5t-25.5 -78.5t-50 -77t-79.5 -73l-42 101q34 26 55 52.5t31.5 53t14 53t3.5 52.5q0 85 -39 151.5t-102 113t-143 71t-162 24.5q-113 0 -207.5 -30t-163 -84.5t-106.5 -131
t-38 -169.5q0 -64 22 -118t60 -100q16 100 87.5 167t178.5 105l40 -82q-44 -15 -82 -37.5t-66.5 -52.5t-45 -68t-16.5 -85q0 -56 18 -99.5t48.5 -75t69.5 -52t81 -29.5q-30 44 -41.5 87.5t-11.5 84.5q0 53 19.5 95.5t52.5 72.5t76.5 46t91.5 16t90 -18t72.5 -49.5t48 -73
t17.5 -89.5q0 -49 -15 -88t-41 -69.5t-61 -52.5t-75 -35q30 -15 62 -25.5t64 -17.5zM890 253q0 29 -10 54t-27.5 43t-40.5 28t-50 10q-61 0 -100.5 -36.5t-39.5 -104.5q0 -50 21 -91.5t56 -75.5q57 6 93.5 24t58.5 43t30.5 52.5t8.5 53.5z" />
    <glyph glyph-name="ori_yya.virama" horiz-adv-x="1427" 
d="M724 90q45 0 78.5 19t61 49t52 66.5t50.5 71t56.5 63.5t70.5 44v381q-61 68 -118 114.5t-113.5 75.5t-114 41.5t-119.5 12.5q-67 0 -128.5 -17.5t-108.5 -53t-75 -89t-28 -125.5q0 -52 15.5 -90.5t42 -64t62 -38t75.5 -12.5q9 0 29.5 1t50.5 7t68 19.5t82 38.5l46 -102
q-36 -16 -71.5 -36t-63.5 -47.5t-45.5 -64.5t-17.5 -86q0 -47 15 -80.5t38.5 -55.5t52.5 -32t57 -10zM725 -10q-62 0 -111 22t-83 60.5t-52 91t-18 113.5q0 26 4 46l-192 -134q32 -32 32 -78t-32 -78.5t-85 -32.5t-85 29t-32 75q0 34 20.5 63.5t65.5 60.5l343 231
q-26 -8 -46 -8q-66 0 -116 25.5t-83.5 66.5t-50 93.5t-16.5 106.5q0 93 35.5 165t96 120.5t140 74t168.5 25.5q68 0 132 -16.5t123 -46.5t112 -72.5t98 -94.5v220h100v-705q37 -5 63 -21t42 -39t23 -51t7 -56q0 -54 -25 -97t-75 -84q3 -5 19 -23t34 -38q21 -24 47 -52
l-75 -62l-160 200q10 3 32.5 15t45 32t40 47.5t17.5 60.5q0 7 -3 19t-10.5 23t-21 19.5t-34.5 8.5q-41 0 -71 -24t-57 -60t-54 -78.5t-61.5 -78.5t-80.5 -60t-110 -24zM1239 -339h-112l-303 249l91 59z" />
    <glyph glyph-name="ori_wa.virama" horiz-adv-x="998" 
d="M268 1070q-16 -23 -31.5 -49.5t-28 -60t-20.5 -74t-8 -90.5q0 -73 21 -142.5t64 -123.5t109 -87t157 -33q37 0 83.5 8.5t87.5 27.5t68.5 49.5t27.5 74.5q0 63 -61 89t-186 26h-96l-37 100h63q45 0 91.5 8t84 25t61 43.5t23.5 63.5q0 21 -7.5 39.5t-23.5 32.5t-41 22.5
t-59 8.5q-42 0 -72 -13t-49.5 -34.5t-30.5 -49t-14 -56.5l-87 22q4 44 22 85.5t49.5 74t76.5 52t103 19.5q63 0 107 -16t72 -43t41 -61.5t13 -71.5q0 -62 -40 -111t-124 -75q53 -10 94.5 -23t69.5 -34t42.5 -51t14.5 -74q0 -63 -26.5 -110t-73.5 -79v-389h-100v135
q-43 -47 -101.5 -74.5t-128.5 -27.5q-63 0 -115.5 20t-90 56t-58 85.5t-20.5 108.5q0 77 34 135q-39 39 -65 85t-42.5 94.5t-23.5 97t-7 91.5q0 60 9.5 109.5t24.5 89.5t32.5 73t33.5 60zM531 310q-71 0 -128 14.5t-103 40.5q-16 -32 -16 -72q0 -39 14.5 -70t39 -53.5
t58 -34.5t71.5 -12q45 0 84.5 16.5t70 43.5t50.5 60t26 66v23q-38 -11 -79.5 -16.5t-87.5 -5.5zM1079 -339h-112l-303 249l91 59z" />
    <glyph glyph-name="ori_ka.ssa.virama" horiz-adv-x="1302" 
d="M1102 1118h100v-1118h-100v164l-6 6q-23 -36 -56.5 -68.5t-74 -57t-86 -39.5t-93.5 -15q-77 0 -136 22t-99 60.5t-60.5 91t-20.5 113.5q0 26 4 46l-192 -134q32 -32 32 -78t-32 -78.5t-85 -32.5t-85 29t-32 75q0 34 20.5 63.5t65.5 60.5l343 231q-26 -8 -46 -8
q-66 0 -116 25.5t-83.5 66.5t-50 93.5t-16.5 106.5q0 93 35.5 165t96 120.5t140 74t168.5 25.5q68 0 132 -16.5t123 -46.5t112 -72.5t98 -94.5v220zM637 1028q-55 0 -106 -12t-94 -35l660 -667l5 13v457q-61 68 -118 114.5t-113.5 75.5t-114 41.5t-119.5 12.5zM570 268
q0 -47 19 -80.5t49 -55.5t66.5 -32t70.5 -10q40 0 78 11t71.5 29.5t63 43t53.5 52.5l-274 276q-36 -16 -71.5 -36t-63.5 -47.5t-45 -64.5t-17 -86zM297 743q0 -52 15.5 -90.5t42 -64t62 -38t75.5 -12.5q52 0 100 12.5t93 33.5l-329 332q-28 -34 -43.5 -76.5t-15.5 -96.5z
M1479 -339h-112l-303 249l91 59z" />
    <glyph glyph-name="ori_ja.nya.virama" horiz-adv-x="1256" 
d="M1156 851q0 -75 -31.5 -140.5t-105.5 -114.5q23 -6 47.5 -19.5t44.5 -35t32.5 -51t12.5 -67.5v-423h-100v424q0 48 -27.5 72.5t-65.5 24.5q-39 0 -67.5 -22t-28.5 -76v-423h-100v263q-8 -15 -21.5 -30.5t-32.5 -28t-42.5 -20.5t-50.5 -8q-53 0 -96 29.5t-66 89.5
q-19 -53 -61 -86t-112 -33q-46 0 -84 21.5t-65 55.5t-41.5 76.5t-14.5 85.5q0 69 30 121t77 96q-57 54 -82 119t-25 133q0 72 31 134.5t78 109.5l84 -55q-15 -13 -31 -32.5t-30 -43.5t-23 -52t-9 -59q0 -67 31.5 -119.5t88 -89t134.5 -55.5t172 -19t176 12t143 41t96 76
t35 118q0 81 -42.5 129.5t-114.5 48.5q-59 0 -95.5 -37t-36.5 -112v-127h-100v136q0 63 -30.5 101.5t-81.5 38.5q-26 0 -49.5 -10t-41.5 -27.5t-28.5 -41.5t-10.5 -52q0 -29 8.5 -53t20.5 -42.5t24 -31t20 -18.5l-73 -59q-16 16 -33.5 39t-32.5 50t-24.5 56.5t-9.5 59.5
q0 52 17 94.5t48 72.5t73 46.5t93 16.5q62 0 98 -26t68 -74q12 20 29.5 38.5t40 32t51 21.5t63.5 8q55 0 101 -21.5t79 -58.5t51.5 -88t18.5 -109zM180 419q0 -38 8.5 -65.5t23.5 -44.5t34.5 -25t42.5 -8q50 0 83 33.5t33 95.5v118q-45 11 -81.5 25.5t-68.5 33.5
q-32 -30 -53.5 -73t-21.5 -90zM632 276q33 0 58 13t42.5 33t26 43.5t8.5 45.5v19q0 50 19 85q-81 -12 -183 -12q-26 0 -50.5 1t-47.5 3v-97q0 -24 7.5 -48t23 -43t39.5 -31t57 -12zM1429 -339h-112l-303 249l91 59z" />
    <glyph glyph-name="ori_rra.glyph" horiz-adv-x="1341" 
d="M544 -175q0 31 22 53t53 22t53 -22t22 -53t-22 -53t-53 -22t-53 22t-22 53zM880 300q0 35 -12 64.5t-32 53t-46 40t-54 25.5l-140 -127l-66 72l350 311l64 -68l-135 -122q38 -17 69.5 -44.5t54 -62t35 -74t12.5 -79.5q0 -64 -25.5 -118.5t-72.5 -94.5t-113.5 -63
t-148.5 -23q-59 0 -114 17t-101.5 48.5t-81 77.5t-51.5 105q-88 67 -140 161.5t-52 213.5q0 118 44.5 213t125.5 162t193.5 103.5t249.5 36.5q108 0 207 -33t174.5 -94t121 -147t45.5 -192q0 -38 -7 -77.5t-25.5 -78.5t-50 -77t-79.5 -73l-42 101q34 26 55 52.5t31.5 53
t14 53t3.5 52.5q0 85 -39 151.5t-102 113t-143 71t-162 24.5q-113 0 -207.5 -30t-163 -84.5t-106.5 -131t-38 -169.5q0 -64 22 -118t60 -100q16 100 87.5 167t178.5 105l40 -82q-44 -15 -82 -37.5t-66.5 -52.5t-45 -68t-16.5 -85q0 -68 26 -116t65 -78t85.5 -44t88.5 -14
q43 0 89 12t83 37.5t61 65t24 95.5z" />
    <glyph glyph-name="ori_rha.glyph" horiz-adv-x="1341" 
d="M544 -175q0 31 22 53t53 22t53 -22t22 -53t-22 -53t-53 -22t-53 22t-22 53zM890 -115q-71 23 -124.5 50t-93.5 56q-6 -1 -12 -1h-11q-71 0 -132 17t-110 48.5t-83.5 77.5t-51.5 105q-88 67 -140 161.5t-52 213.5q0 118 44.5 213t125.5 162t193.5 103.5t249.5 36.5
q108 0 207 -33t174.5 -94t121 -147t45.5 -192q0 -38 -7 -77.5t-25.5 -78.5t-50 -77t-79.5 -73l-42 101q34 26 55 52.5t31.5 53t14 53t3.5 52.5q0 85 -39 151.5t-102 113t-143 71t-162 24.5q-113 0 -207.5 -30t-163 -84.5t-106.5 -131t-38 -169.5q0 -64 22 -118t60 -100
q16 100 87.5 167t178.5 105l40 -82q-44 -15 -82 -37.5t-66.5 -52.5t-45 -68t-16.5 -85q0 -56 18 -99.5t48.5 -75t69.5 -52t81 -29.5q-30 44 -41.5 87.5t-11.5 84.5q0 53 19.5 95.5t52.5 72.5t76.5 46t91.5 16t90 -18t72.5 -49.5t48 -73t17.5 -89.5q0 -49 -15 -88t-41 -69.5
t-61 -52.5t-75 -35q30 -15 62 -25.5t64 -17.5zM890 253q0 29 -10 54t-27.5 43t-40.5 28t-50 10q-61 0 -100.5 -36.5t-39.5 -104.5q0 -50 21 -91.5t56 -75.5q57 6 93.5 24t58.5 43t30.5 52.5t8.5 53.5z" />
    <glyph glyph-name="ori_ka.ka" horiz-adv-x="1477" 
d="M702 -170q0 44 13 81t36 64.5t54.5 46t68.5 24.5v223q0 25 -9 46.5t-24 38t-35.5 26t-43.5 9.5t-43.5 -9.5t-35.5 -26t-23.5 -38t-8.5 -46.5v-269h-100v80q-25 -14 -53 -22t-59 -8q-39 0 -73.5 12.5t-62 35t-46.5 55t-26 72.5q-32 32 -59.5 72.5t-47.5 86.5t-32 96.5
t-12 103.5q0 118 44.5 217.5t124.5 172t191 113.5t244 41q89 0 168 -21.5t146 -60t121 -92t91.5 -117t57.5 -135t20 -146.5q0 -42 -9.5 -87.5t-26 -90.5t-39 -86t-47.5 -74l-74 68q39 56 67.5 125.5t28.5 144.5q0 91 -38 176t-105.5 151t-160 105.5t-200.5 39.5
t-200.5 -34.5t-160 -94.5t-105.5 -141t-38 -174q0 -57 17 -113t49 -107q25 58 76.5 91.5t116.5 33.5q48 0 90 -19.5t71 -54.5q29 35 71 54.5t91 19.5q44 0 82.5 -16t67.5 -44.5t45.5 -69.5t16.5 -90v-228q60 -17 100 -65q29 35 71 54.5t91 19.5q44 0 82.5 -16t67.5 -44.5
t45.5 -69.5t16.5 -90v-294h-100v294q0 25 -9 46.5t-24 38t-35.5 26t-43.5 9.5t-43.5 -9.5t-35.5 -26t-23.5 -38t-8.5 -46.5v-294h-100v105q-25 -14 -53 -22t-59 -8q-44 0 -82.5 15.5t-67 44.5t-45 69t-16.5 90zM328 269q0 -25 8.5 -46.5t23.5 -37.5t35.5 -25.5t43.5 -9.5
q22 0 42 9t35 24t24.5 36t10.5 45v5q0 25 -9 46.5t-24 38t-35.5 26t-43.5 9.5t-43.5 -9.5t-35.5 -26t-23.5 -38t-8.5 -46.5zM1025 -175v10q-1 24 -10.5 44.5t-24.5 36.5t-35 25t-42 9q-23 0 -43.5 -9.5t-35.5 -26t-23.5 -38t-8.5 -46.5t8.5 -46.5t23.5 -37.5t35.5 -25.5
t43.5 -9.5q22 0 42 9t35 24t24.5 36t10.5 45z" />
    <glyph glyph-name="ori_ka.ta" horiz-adv-x="1587" 
d="M872 -362q-70 0 -141 11t-138.5 28t-129 39t-112.5 43t-89.5 40t-58.5 31l49 80q39 -21 101.5 -50.5t144.5 -56.5t181.5 -46t212.5 -19q81 0 161 18.5t147 54.5t116.5 89.5t69.5 124.5q-19 -26 -39.5 -42t-42.5 -24t-44.5 -10.5t-44.5 -2.5q-43 0 -80 16.5t-64.5 44.5
t-43.5 65t-16 77q0 60 31 108t80 76q29 50 47.5 106.5t18.5 116.5q0 91 -38 176t-105.5 151t-160 105.5t-200.5 39.5t-200.5 -34.5t-160 -94.5t-105.5 -141t-38 -174q0 -57 17 -113t49 -107q25 58 76.5 91.5t116.5 33.5q48 0 90 -19.5t71 -54.5q29 35 61 54.5t81 19.5
q44 0 79.5 -16t60.5 -44.5t38.5 -69.5t13.5 -90v-269h-100v269q0 25 -5.5 46.5t-17 38t-29 26t-40.5 9.5t-40.5 -9.5t-28.5 -26t-16.5 -38t-5.5 -46.5v-269h-100v80q-25 -14 -53 -22t-59 -8q-39 0 -73.5 12.5t-62 35t-46.5 55t-26 72.5q-32 32 -59.5 72.5t-47.5 86.5
t-32 96.5t-12 103.5q0 118 44.5 217.5t124.5 172t191 113.5t244 41q89 0 168 -21.5t146 -60t121 -92t91.5 -117t57.5 -135t20 -146.5q0 -45 -11 -94.5t-30 -97.5q53 -2 97.5 -22.5t76 -54.5t49 -80.5t17.5 -100.5q0 -107 -48.5 -193.5t-132 -147.5t-195.5 -94t-239 -33z
M1237 264q-26 0 -48.5 -9t-39.5 -24.5t-26.5 -36.5t-9.5 -45q0 -25 9.5 -45t26 -34t38 -21.5t44.5 -7.5q26 0 48.5 8.5t39 24t26 36.5t9.5 45t-9.5 44.5t-25.5 34.5t-37 22t-45 8zM328 269q0 -25 8.5 -46.5t23.5 -37.5t35.5 -25.5t43.5 -9.5q22 0 42 9t35 24t24.5 36
t10.5 45v5q0 25 -9 46.5t-24 38t-35.5 26t-43.5 9.5t-43.5 -9.5t-35.5 -26t-23.5 -38t-8.5 -46.5z" />
    <glyph glyph-name="ori_ka.ta.ra" horiz-adv-x="1617" 
d="M902 -282q-70 0 -141 11t-138.5 28t-129 39t-112.5 43t-89.5 40t-58.5 31l49 80q39 -21 101.5 -50.5t144.5 -56.5t181.5 -46t212.5 -19q81 0 161 18.5t147 54.5t116.5 89.5t69.5 124.5q-19 -26 -39.5 -42t-42.5 -24t-44.5 -10.5t-44.5 -2.5q-43 0 -80 16.5t-64.5 44.5
t-43.5 65t-16 77q0 63 34 113t87 76q11 33 18.5 67.5t7.5 70.5q0 91 -38 176t-105.5 151t-160 105.5t-200.5 39.5t-200.5 -34.5t-160 -94.5t-105.5 -141t-38 -174q0 -57 17 -113t49 -107q25 58 76.5 91.5t116.5 33.5q48 0 90 -19.5t71 -54.5q29 35 71 54.5t91 19.5
q44 0 82.5 -16t67.5 -44.5t45.5 -69.5t16.5 -90v-269h-100v269q0 25 -9 46.5t-24 38t-35.5 26t-43.5 9.5t-43.5 -9.5t-35.5 -26t-23.5 -38t-8.5 -46.5v-269h-100v80q-25 -14 -53 -22t-59 -8q-39 0 -73.5 12.5t-62 35t-46.5 55t-26 72.5q-32 32 -59.5 72.5t-47.5 86.5
t-32 96.5t-12 103.5q0 118 44.5 217.5t124.5 172t191 113.5t244 41q89 0 168 -21.5t146 -60t121 -92t91.5 -117t57.5 -135t20 -146.5q0 -27 -4 -55t-11 -57q54 -2 99 -21.5t77 -54t50 -81t18 -101.5q0 -73 -22.5 -135.5t-63.5 -114.5v-415h-922v100h822v220
q-84 -60 -194 -91.5t-235 -31.5zM1267 344q-26 0 -48.5 -9t-39.5 -24.5t-26.5 -36.5t-9.5 -45q0 -25 9.5 -45t26 -34t38 -21.5t44.5 -7.5q26 0 48.5 8.5t39 24t26 36.5t9.5 45t-9.5 44.5t-25.5 34.5t-37 22t-45 8zM328 269q0 -25 8.5 -46.5t23.5 -37.5t35.5 -25.5t43.5 -9.5
q22 0 42 9t35 24t24.5 36t10.5 45v5q0 25 -9 46.5t-24 38t-35.5 26t-43.5 9.5t-43.5 -9.5t-35.5 -26t-23.5 -38t-8.5 -46.5z" />
    <glyph glyph-name="ori_ka.va" horiz-adv-x="1409" 
d="M937 0q-35 -27 -53.5 -62t-18.5 -81q0 -39 14.5 -68.5t38.5 -49.5t55 -30t64 -10q44 0 74.5 17t51 44t31 60t15.5 65v187h100v-536h-100v138q-31 -35 -73.5 -55t-98.5 -20q-53 0 -102 18.5t-87 53t-60.5 83t-22.5 107.5q0 138 109 217v191q0 25 -9 46.5t-24 38t-35.5 26
t-43.5 9.5t-43.5 -9.5t-35.5 -26t-23.5 -38t-8.5 -46.5v-269h-100v80q-25 -14 -53 -22t-59 -8q-39 0 -73.5 12.5t-62 35t-46.5 55t-26 72.5q-32 32 -59.5 72.5t-47.5 86.5t-32 96.5t-12 103.5q0 118 44.5 217.5t124.5 172t191 113.5t244 41q89 0 168 -21.5t146 -60t121 -92
t91.5 -117t57.5 -135t20 -146.5q0 -42 -9.5 -87.5t-26 -90.5t-39 -86t-47.5 -74l-74 68q39 56 67.5 125.5t28.5 144.5q0 91 -38 176t-105.5 151t-160 105.5t-200.5 39.5t-200.5 -34.5t-160 -94.5t-105.5 -141t-38 -174q0 -57 17 -113t49 -107q25 58 76.5 91.5t116.5 33.5
q48 0 90 -19.5t71 -54.5q29 35 71 54.5t91 19.5q44 0 82.5 -16t67.5 -44.5t45.5 -69.5t16.5 -90v-269h-37zM328 269q0 -25 8.5 -46.5t23.5 -37.5t35.5 -25.5t43.5 -9.5q22 0 42 9t35 24t24.5 36t10.5 45v5q0 25 -9 46.5t-24 38t-35.5 26t-43.5 9.5t-43.5 -9.5t-35.5 -26
t-23.5 -38t-8.5 -46.5z" />
    <glyph glyph-name="ori_ka.lla" horiz-adv-x="1388" 
d="M671 -190q0 49 15 90t41.5 69.5t63.5 44.5t81 16v239q0 25 -8.5 46.5t-23.5 38t-35 26t-43 9.5t-43.5 -9.5t-35.5 -26t-23.5 -38t-8.5 -46.5v-269h-100v80q-25 -14 -53 -22t-59 -8q-39 0 -73.5 12.5t-62 35t-46.5 55t-26 72.5q-32 32 -59.5 72.5t-47.5 86.5t-32 96.5
t-12 103.5q0 118 44.5 217.5t124.5 172t191 113.5t244 41q89 0 168 -21.5t146 -60t121 -92t91.5 -117t57.5 -135t20 -146.5q0 -42 -9.5 -87.5t-26 -90.5t-39 -86t-47.5 -74l-74 68q39 56 67.5 125.5t28.5 144.5q0 91 -38 176t-105.5 151t-160 105.5t-200.5 39.5
t-200.5 -34.5t-160 -94.5t-105.5 -141t-38 -174q0 -57 17 -113t49 -107q25 58 76.5 91.5t116.5 33.5q48 0 90 -19.5t71 -54.5q29 35 71 54.5t91 19.5q44 0 82.5 -16t67.5 -44.5t45.5 -69.5t16.5 -90v-269q25 -15 49 -44q29 35 66 54.5t86 19.5q44 0 81 -16t64 -44.5
t42 -69.5t15 -90v-274h-100v274q0 25 -7 46.5t-20.5 38t-32.5 26t-42 9.5t-41.5 -9t-32 -25t-20.5 -36.5t-7 -44.5v-279h-100v274q0 25 -7 46.5t-20.5 38t-32.5 26t-42 9.5t-42 -9.5t-32 -26t-20 -38t-7 -46.5v-274h-100v274zM328 269q0 -25 8.5 -46.5t23.5 -37.5
t35.5 -25.5t43.5 -9.5q22 0 42 9t35 24t24.5 36t10.5 45v5q0 25 -9 46.5t-24 38t-35.5 26t-43.5 9.5t-43.5 -9.5t-35.5 -26t-23.5 -38t-8.5 -46.5z" />
    <glyph glyph-name="ori_ka.ssa.nna" horiz-adv-x="1342" 
d="M885 1119h101v-766q6 0 12.5 0.5t14.5 0.5q55 0 98 -16.5t72 -44t44 -63t15 -72.5q0 -55 -23 -96t-77 -72q84 -20 120.5 -70.5t36.5 -123.5q0 -49 -19 -95.5t-58 -83t-97.5 -59t-137.5 -22.5q-89 0 -159 23.5t-123 63t-90.5 90.5t-61 105.5t-34.5 108.5t-11 99l81 77
q-65 3 -114.5 24t-83.5 56t-51 81.5t-17 99.5q0 47 18 86t37 65q-11 -1 -26 -1h-23q-63 0 -110 23t-78 60.5t-46 85t-15 97.5q0 84 32 149t87 109t127 67t152 23q118 0 222.5 -53t184.5 -142v186zM885 112v145q-22 -31 -52 -59t-65.5 -49t-75.5 -33.5t-82 -12.5h-16
q0 -107 27 -193.5t77.5 -147.5t123 -93.5t165.5 -32.5q38 0 76 10t68 30.5t49 50.5t19 69q0 55 -39.5 85t-105.5 30h-135l-37 100h72q38 0 72.5 9t60 26.5t40.5 43.5t15 60q0 44 -33 74t-90 30q-18 0 -33 -3v-139h-101zM478 1027q-46 0 -90 -9.5t-79 -26.5l576 -583v406
q-53 60 -103 100.5t-99.5 65.5t-100 36t-104.5 11zM424 356q0 -40 16.5 -68.5t42 -47t57 -27.5t60.5 -9q70 0 131 31.5t104 78.5l-242 244q-31 -14 -61.5 -31.5t-54.5 -41.5t-38.5 -55.5t-14.5 -73.5zM181 780q0 -45 13.5 -78.5t36 -55t53 -32.5t64.5 -11q45 0 84.5 10
t77.5 27l-282 284q-23 -29 -35 -64t-12 -80z" />
    <glyph glyph-name="ori_ka.ssa.ma" horiz-adv-x="1185" 
d="M985 1118h100v-1583h-100v361q-54 -5 -107 -20.5t-100 -39.5q36 -27 57 -53.5t32.5 -50.5t15 -45.5t3.5 -39.5q0 -39 -13.5 -71.5t-37.5 -56t-57 -36.5t-72 -13q-37 0 -69.5 13t-56.5 36t-38 54.5t-14 68.5q0 54 20 99t55 83q-29 12 -62 24.5t-74 24.5l43 88
q54 -17 98 -34t79 -35q63 40 140 64.5t158 33.5v175l-6 5q-23 -36 -56.5 -68.5t-74 -57t-86 -39.5t-93.5 -15q-77 0 -136 22t-99 60.5t-60.5 91t-20.5 113.5q0 29 6.5 55t17 48.5t23 41t24.5 33.5q-20 -3 -38.5 -3.5t-32.5 -0.5q-69 0 -120.5 25.5t-85.5 66.5t-50.5 93.5
t-16.5 106.5q0 93 35.5 165t96 120.5t140 74t168.5 25.5q68 0 132 -16.5t123 -46.5t112 -72.5t98 -94.5v220zM520 1028q-55 0 -106 -12t-94 -35l665 -671v474q-61 68 -118 114.5t-113.5 75.5t-114 41.5t-119.5 12.5zM453 268q0 -47 19 -80.5t49 -55.5t66.5 -32t70.5 -10
q40 0 78 10.5t73 28t65.5 41t55.5 50.5l-280 282q-36 -16 -71.5 -36t-63.5 -47.5t-45 -64.5t-17 -86zM180 743q0 -52 15.5 -90.5t42 -64t62 -38t75.5 -12.5q52 0 100 12.5t93 33.5l-329 332q-28 -34 -43.5 -76.5t-15.5 -96.5zM628 -349q0 -38 24 -59.5t54 -21.5
q31 0 55.5 21.5t24.5 59.5q0 26 -19.5 58t-75.5 68q-29 -27 -46 -59t-17 -67z" />
    <glyph glyph-name="ori_ka.sa" horiz-adv-x="1267" 
d="M1079 -452h-81l-540 104v70l144 92q-35 8 -62 26t-45 43t-27.5 54.5t-9.5 60.5q0 41 10.5 74.5t30.5 61.5v45q-22 -12 -45 -17t-49 -5q-36 0 -67.5 11.5t-56.5 32t-42.5 50t-24.5 65.5q-28 29 -52.5 65.5t-42.5 78t-28.5 86.5t-10.5 92q0 106 40 195.5t112 155t172 102.5
t220 37t219.5 -42.5t171.5 -114t112 -164.5t40 -194q0 -38 -9 -80t-24.5 -83t-36 -79t-44.5 -68l-74 68q35 51 61 113.5t26 128.5q0 79 -33.5 154t-92.5 132.5t-140 92.5t-176 35q-96 0 -177.5 -30t-140.5 -82.5t-92.5 -123.5t-33.5 -153q0 -96 52 -183q25 49 70.5 76.5
t102.5 27.5q43 0 80 -16.5t64 -45.5q26 29 63 45.5t81 16.5q40 0 75.5 -14.5t62 -41t42 -63.5t15.5 -83v-155q51 -27 94 -67v99h97v-686zM732 144q-35 0 -67 -9t-56.5 -27.5t-39 -46t-14.5 -63.5q0 -26 8.5 -44.5t23 -31t33.5 -18.5t40 -6q50 0 92.5 25t82.5 55l53 -91
l-255 -167q90 -17 173.5 -34.5t175.5 -36.5v365q-33 36 -63.5 61t-61 40.5t-61.5 22t-64 6.5zM787 357q0 21 -7.5 39.5t-20 32t-30 21.5t-36.5 8q-20 0 -36.5 -8t-29.5 -21.5t-20 -32t-7 -39.5v-143q60 26 132 26q14 0 27.5 -1.5t27.5 -3.5v122zM312 357q0 -21 7 -39
t20 -31.5t29.5 -21.5t36.5 -8q19 0 35.5 7.5t29.5 20.5t20.5 30.5t8.5 37.5v4q0 21 -7 39.5t-20 32t-30 21.5t-37 8t-36.5 -8t-29.5 -21.5t-20 -32t-7 -39.5z" />
    <glyph glyph-name="ori_ga.da" horiz-adv-x="1542" 
d="M1019 1118h101v-852q64 -2 122.5 -24.5t102.5 -61.5t70.5 -91t26.5 -112q0 -24 -4.5 -47.5t-16.5 -48.5t-33 -50t-53 -52l-49 76q35 28 53.5 61t18.5 68q0 41 -20.5 77t-54.5 63t-79 42.5t-93 15.5q-62 0 -113 -16.5t-87 -47t-56 -73t-20 -94.5q0 -44 17.5 -79.5
t48.5 -64.5q29 73 129 110l43 -72q-48 -17 -72.5 -43t-24.5 -58q0 -40 27.5 -63.5t66.5 -23.5q23 0 44 9t37 23t27 31.5t15 35.5v120h84v-340h-84v79q-25 -18 -57 -30t-65 -12q-69 0 -116 35t-59 94q-66 42 -105.5 104.5t-39.5 144.5q0 61 18.5 112.5t53.5 91t84.5 66
t112.5 37.5v436q0 74 -34 135.5t-89.5 105t-125.5 67.5t-142 24q-98 0 -180 -26t-141.5 -74t-93 -115t-33.5 -148q0 -75 33 -134t86 -106q12 42 38 78.5t61.5 63.5t79.5 43t94 16q60 0 111 -20.5t88.5 -56t59 -83.5t21.5 -102t-21.5 -101t-59 -82.5t-88.5 -56t-111 -20.5
q-48 0 -91 14.5t-78.5 40t-61 60t-38.5 73.5q-50 30 -91 69t-70.5 86t-46 101.5t-16.5 116.5q0 106 39.5 192t111.5 146.5t172.5 93t223.5 32.5q57 0 112.5 -12t106 -34t94.5 -53.5t79 -70.5v161zM395 362q0 -33 13 -62t37 -50.5t56.5 -34t71.5 -12.5t72 12.5t56.5 34
t37 50.5t13.5 62t-13.5 62.5t-37 51.5t-56.5 35t-72 13t-71.5 -13t-56.5 -35t-37 -51.5t-13 -62.5z" />
    <glyph glyph-name="ori_ga.dha" horiz-adv-x="1220" 
d="M1019 1118h101v-1582h-100v93q-45 -43 -102.5 -71t-126.5 -28q-53 0 -102.5 17.5t-88 50t-61.5 79t-23 104.5q0 35 12 67.5t35 57.5t57.5 40t79.5 15h7l-145 141q-46 1 -87.5 16.5t-75 41t-58 59t-37.5 71.5q-50 30 -91 69t-70.5 86t-46 101.5t-16.5 116.5
q0 106 39.5 192t111.5 146.5t172.5 93t223.5 32.5q57 0 112.5 -12t106 -34t94.5 -53.5t79 -70.5v161zM1020 694q0 74 -34 135.5t-89.5 105t-125.5 67.5t-142 24q-98 0 -180 -26t-141.5 -74t-93 -115t-33.5 -148q0 -75 33 -134t86 -106q12 42 38 78.5t61.5 63.5t79.5 43
t94 16q60 0 111 -20.5t88.5 -56t59 -83.5t21.5 -102q0 -40 -12 -77t-34.5 -68t-53.5 -55t-68 -39l261 -258l-71 -70q-33 27 -60.5 42.5t-48.5 23t-35 9.5t-19 2q-39 0 -69 -23.5t-30 -71.5q0 -35 15.5 -62.5t41 -47t57 -30t64.5 -10.5q27 0 54 6.5t55 22.5t58 43t62 68v927z
M395 362q0 -33 13 -62t37 -50.5t56.5 -34t71.5 -12.5t72 12.5t56.5 34t37 50.5t13.5 62t-13.5 62.5t-37 51.5t-56.5 35t-72 13t-71.5 -13t-56.5 -35t-37 -51.5t-13 -62.5z" />
    <glyph glyph-name="ori_ga.na" horiz-adv-x="1334" 
d="M690 -295q0 68 21.5 131t73 111.5t136.5 77.5t213 29v594q0 85 -39 155t-102 120t-142.5 77.5t-161.5 27.5q-110 0 -203.5 -30t-161.5 -84.5t-106 -131t-38 -169.5q0 -88 40.5 -158t104.5 -124q10 49 37 91.5t66.5 74t90 49t108.5 17.5q66 0 122 -22.5t97 -61.5
t64.5 -91.5t23.5 -111.5t-23.5 -111t-64.5 -91t-97 -61.5t-122 -22.5q-54 0 -102.5 15.5t-87 43.5t-66 66t-40.5 83q-56 33 -102 76.5t-79 95.5t-51.5 113t-18.5 130q0 118 44 213t124 162t191.5 103.5t247.5 36.5q67 0 130.5 -14t121.5 -40.5t107.5 -64.5t87.5 -86v195h100
v-1582h-100v418q-90 0 -151.5 -14t-99.5 -40t-54.5 -63t-16.5 -82q26 0 48.5 -10t39.5 -26.5t27 -38t10 -43.5q0 -46 -31 -78.5t-84 -32.5q-26 0 -50 11.5t-42 34.5t-29 56t-11 77zM420 276q0 -39 15.5 -72.5t43 -59t65.5 -40t83 -14.5t83 14.5t65.5 40t43 59t15.5 72.5
t-15.5 73t-43 59.5t-65.5 40t-83 14.5t-83 -14.5t-65.5 -40t-43 -59.5t-15.5 -73z" />
    <glyph glyph-name="ori_ga.lla" horiz-adv-x="1334" 
d="M1134 1118h100v-1166q64 -18 103.5 -74t39.5 -138v-204h-100v204q0 25 -7 46.5t-20.5 38t-32.5 26t-42 9.5t-41.5 -9t-32 -25t-20.5 -36.5t-7 -44.5v-209h-100v204q0 25 -7 46.5t-20.5 38t-32.5 26t-42 9.5t-42 -9.5t-32 -26t-20 -38t-7 -46.5v-204h-100v204q0 49 15 90
t41.5 69.5t63.5 44.5t81 16q48 0 85 -19.5t66 -54.5q46 57 111 70v692q0 85 -39 155t-102 120t-142.5 77.5t-161.5 27.5q-110 0 -203.5 -30t-161.5 -84.5t-106 -131t-38 -169.5q0 -88 40.5 -158t104.5 -124q10 49 37 91.5t66.5 74t90 49t108.5 17.5q66 0 122 -22.5t97 -61.5
t64.5 -91.5t23.5 -111.5t-23.5 -111t-64.5 -91t-97 -61.5t-122 -22.5q-54 0 -102.5 15.5t-87 43.5t-66 66t-40.5 83q-56 33 -102 76.5t-79 95.5t-51.5 113t-18.5 130q0 118 44 213t124 162t191.5 103.5t247.5 36.5q67 0 130.5 -14t121.5 -40.5t107.5 -64.5t87.5 -86v195z
M420 276q0 -39 15.5 -72.5t43 -59t65.5 -40t83 -14.5t83 14.5t65.5 40t43 59t15.5 72.5t-15.5 73t-43 59.5t-65.5 40t-83 14.5t-83 -14.5t-65.5 -40t-43 -59.5t-15.5 -73z" />
    <glyph glyph-name="ori_gha.na" horiz-adv-x="1328" 
d="M684 -313q0 52 21.5 100t73 85t136.5 59.5t213 22.5v236q-17 -42 -42.5 -78.5t-57.5 -63.5t-70.5 -42.5t-81.5 -15.5q-129 0 -187 114q-15 -33 -37 -55t-47.5 -35t-53 -18.5t-54.5 -5.5q-52 0 -96 20t-76 55t-51 83t-20 105q-81 69 -127.5 164t-46.5 206t40 204
t113.5 159.5t177 104t231.5 37.5q78 0 149 -18t133 -50.5t113.5 -78.5t90.5 -101v238h100v-1582h-100v328q-90 0 -149.5 -8t-96 -22.5t-53.5 -34.5t-23 -44q30 0 53 -10t39 -26.5t24.5 -38t8.5 -43.5q0 -46 -31 -78.5t-84 -32.5q-26 0 -50 9.5t-42 29.5t-29 50.5t-11 71.5z
M1128 609q0 75 -39.5 149.5t-106.5 134.5t-155 97.5t-185 37.5q-105 0 -190.5 -30.5t-146 -85t-93.5 -129t-33 -161.5q0 -78 26 -137.5t71 -107.5q14 38 36 70t47.5 58.5t53 46t53.5 31.5l46 -69q-21 -12 -50 -32.5t-55 -52t-44.5 -74t-18.5 -97.5q0 -33 11 -63.5t30.5 -54
t46.5 -37t60 -13.5q27 0 54 11.5t48.5 31.5t34.5 47t13 57v104h100v-104q0 -36 11 -63.5t29 -46t42.5 -28t51.5 -9.5q48 0 93 30.5t80.5 78t57 105t21.5 112.5v193z" />
    <glyph glyph-name="ori_nga.ka" horiz-adv-x="1453" 
d="M177 264q0 32 7 59q-49 60 -76.5 132.5t-27.5 157.5q0 118 44.5 213t125.5 162t193.5 103.5t249.5 36.5q109 0 208.5 -33.5t175.5 -95.5q30 9 64 9q44 0 82.5 -16t67.5 -44.5t45.5 -69.5t16.5 -90q0 -50 -16.5 -90t-45.5 -69t-67.5 -44.5t-82.5 -15.5t-82.5 15.5
t-67 44.5t-45 69t-16.5 90q0 48 15 86.5t41 67.5q-63 42 -138 64t-153 22q-113 0 -207.5 -30t-163 -84.5t-106.5 -131t-38 -169.5q0 -55 16.5 -102t45.5 -89q29 28 66 44.5t81 16.5q51 0 95 -23.5t73 -61.5q29 40 73.5 62.5t97.5 22.5q48 0 90 -19.5t71 -54.5q29 35 71 54.5
t91 19.5q44 0 82.5 -16t67.5 -44.5t45.5 -69.5t16.5 -90v-293h-100v293q0 25 -9 46.5t-24 38t-35.5 26t-43.5 9.5t-43.5 -9.5t-35.5 -26t-23.5 -38t-8.5 -46.5v-293h-100v104q-25 -14 -53 -22t-59 -8q-54 0 -98 22.5t-73 63.5q-29 -38 -73 -61t-95 -23q-44 0 -83 17
t-67.5 46.5t-45 69.5t-16.5 85zM1030 788q0 -25 8.5 -46.5t23.5 -37.5t35.5 -25.5t43.5 -9.5t43.5 9.5t35.5 25.5t24 37.5t9 46.5t-9 46.5t-24 38t-35.5 26t-43.5 9.5t-43.5 -9.5t-35.5 -26t-23.5 -38t-8.5 -46.5zM840 258v10q-1 24 -10.5 44.5t-24.5 36.5t-35 25t-42 9
q-23 0 -43.5 -9.5t-35.5 -26t-23.5 -38t-8.5 -46.5t8.5 -46.5t23.5 -37.5t35.5 -25.5t43.5 -9.5q22 0 42 9t35 24t24.5 36t10.5 45zM500 258v10q-1 24 -10.5 44.5t-24.5 36.5t-35 25t-42 9q-23 0 -43.5 -9.5t-35.5 -26t-23.5 -38t-8.5 -46.5t8.5 -46.5t23.5 -37.5
t35.5 -25.5t43.5 -9.5q22 0 42 9t35 24t24.5 36t10.5 45z" />
    <glyph glyph-name="ori_nga.ka.ta" horiz-adv-x="1453" 
d="M177 264q0 32 7 59q-49 60 -76.5 132.5t-27.5 157.5q0 118 44.5 213t125.5 162t193.5 103.5t249.5 36.5q109 0 208.5 -33.5t175.5 -95.5q30 9 64 9q44 0 82.5 -16t67.5 -44.5t45.5 -69.5t16.5 -90q0 -50 -16.5 -90t-45.5 -69t-67.5 -44.5t-82.5 -15.5t-82.5 15.5
t-67 44.5t-45 69t-16.5 90q0 48 15 86.5t41 67.5q-63 42 -138 64t-153 22q-113 0 -207.5 -30t-163 -84.5t-106.5 -131t-38 -169.5q0 -55 16.5 -102t45.5 -89q29 28 66 44.5t81 16.5q51 0 95 -23.5t73 -61.5q29 40 73.5 62.5t97.5 22.5q48 0 90 -19.5t71 -54.5q29 35 71 54.5
t91 19.5q44 0 82.5 -16t67.5 -44.5t45.5 -69.5t16.5 -90v-220q38 -9 69 -29t53.5 -48.5t35 -63.5t12.5 -74q0 -76 -33.5 -136.5t-91.5 -102.5t-135 -64.5t-164 -22.5q-56 0 -115 10.5t-117.5 31.5t-115 51.5t-108.5 70.5l55 82q51 -36 98.5 -64.5t95.5 -48.5t99 -30.5
t108 -10.5q25 0 55 3.5t58.5 8.5t52 12t34.5 13q-52 0 -93 16.5t-69 43.5t-43 63t-15 75q0 43 13.5 79.5t36.5 64t55 46t69 25.5v219q0 25 -9 46.5t-24 38t-35.5 26t-43.5 9.5t-43.5 -9.5t-35.5 -26t-23.5 -38t-8.5 -46.5v-293h-100v104q-25 -14 -53 -22t-59 -8
q-54 0 -98 22.5t-73 63.5q-29 -38 -73 -61t-95 -23q-44 0 -83 17t-67.5 46.5t-45 69.5t-16.5 85zM1089 -170q0 -25 9.5 -46.5t26 -38t39 -26t47.5 -9.5t47.5 9.5t39 26t26 38t9.5 46.5t-9.5 46.5t-26 37.5t-39 25.5t-47.5 9.5t-47.5 -9.5t-39 -25.5t-26 -37.5t-9.5 -46.5z
M1030 788q0 -25 8.5 -46.5t23.5 -37.5t35.5 -25.5t43.5 -9.5t43.5 9.5t35.5 25.5t24 37.5t9 46.5t-9 46.5t-24 38t-35.5 26t-43.5 9.5t-43.5 -9.5t-35.5 -26t-23.5 -38t-8.5 -46.5zM840 258v10q-1 24 -10.5 44.5t-24.5 36.5t-35 25t-42 9q-23 0 -43.5 -9.5t-35.5 -26
t-23.5 -38t-8.5 -46.5t8.5 -46.5t23.5 -37.5t35.5 -25.5t43.5 -9.5q22 0 42 9t35 24t24.5 36t10.5 45zM500 258v10q-1 24 -10.5 44.5t-24.5 36.5t-35 25t-42 9q-23 0 -43.5 -9.5t-35.5 -26t-23.5 -38t-8.5 -46.5t8.5 -46.5t23.5 -37.5t35.5 -25.5t43.5 -9.5q22 0 42 9t35 24
t24.5 36t10.5 45z" />
    <glyph glyph-name="ori_nga.ka.ssa" horiz-adv-x="1325" 
d="M837 819q0 85 46 137q-54 33 -119 52t-131 19q-99 0 -182 -26t-143 -74t-93.5 -115t-33.5 -148q0 -53 16.5 -98t47.5 -83q18 88 82 145.5t160 90.5l41 -85q-39 -13 -73.5 -32.5t-60 -46t-40.5 -59.5t-15 -73q0 -59 22.5 -101t56.5 -68t74.5 -38t76.5 -12q37 0 77 10
t72 32t53 56.5t21 82.5q0 29 -10 54t-26.5 45t-39 34.5t-46.5 22.5l-125 -114l-67 72l272 241l65 -68l-70 -63q32 -17 59 -42.5t47 -56.5t31 -65.5t11 -69.5q0 -45 -14 -84.5t-40 -72.5q47 -12 89 -36t80 -59v99h96v-686h-96v69q-32 -32 -74.5 -53.5t-90.5 -21.5
q-47 0 -83.5 13.5t-62 37t-39.5 55.5t-16 69q-15 -11 -29 -21t-33 -23q10 -20 10 -41q0 -35 -24 -59.5t-63 -24.5t-63 22.5t-24 57.5q0 23 15 45.5t43 42.5l145 98q-34 7 -59.5 25t-42.5 43t-25.5 55t-8.5 61q0 68 31 121q-45 6 -87 24t-76.5 46t-60 65.5t-38.5 83.5
q-76 60 -124 146t-48 192t40 192t112.5 146.5t174.5 93t225 32.5q97 0 185 -29t157 -85q13 3 28 5t29 2q40 0 75 -14.5t61.5 -41t42 -63.5t15.5 -83q0 -45 -15.5 -82t-42 -63.5t-61.5 -40.5t-75 -14t-75.5 14t-61.5 40.5t-41.5 63.5t-15.5 82zM758 132q-25 0 -45 -4l-37 -12
q82 -85 165 -176.5t167 -176.5v240q-66 72 -125 100.5t-125 28.5zM938 819q0 -21 7 -39t19.5 -31.5t29.5 -21.5t37 -8q19 0 36.5 8t30 21.5t20 31.5t7.5 39t-7.5 39.5t-20 32t-30 21.5t-36.5 8q-40 0 -66.5 -29t-26.5 -72zM738 -289q0 -22 9.5 -38t24 -26t32 -15t34.5 -5
q37 0 69.5 17t57.5 42l-137 138q-17 -8 -33 -18.5t-29 -24t-20.5 -31t-7.5 -39.5zM580 -14q0 -51 27.5 -75t66.5 -24t78 14l-155 155q-8 -14 -12.5 -32t-4.5 -38z" />
    <glyph glyph-name="ori_nga.kha" horiz-adv-x="1657" 
d="M1134 885q-16 -38 -41 -73.5t-59 -62.5t-76 -43t-93 -16q-54 0 -98 17t-75 46.5t-48 69t-17 84.5q0 62 29 120q-104 -5 -191.5 -36.5t-150.5 -85.5t-98.5 -128t-35.5 -164q0 -47 12 -88.5t34 -78.5q32 54 81.5 85.5t108.5 31.5q57 0 106 -30.5t81 -81.5q32 51 80.5 81.5
t106.5 30.5q49 0 92 -22.5t75.5 -61.5t51 -91.5t18.5 -111.5t-18.5 -111t-51 -91t-75.5 -61.5t-92 -22.5q-58 0 -106.5 30t-80.5 81q-32 -51 -81 -81t-106 -30q-49 0 -92 22.5t-75 61.5t-50.5 91t-18.5 111q0 24 3 47q-49 60 -76 132t-27 158q0 118 44 213t124 162
t191.5 103.5t247.5 36.5q60 0 119 -12q-33 -44 -56 -94t-23 -95q0 -26 8.5 -50.5t25.5 -44t43.5 -31t61.5 -11.5q43 0 79 17.5t65 45.5t51.5 64t37.5 72t24 70t11 59h100v-140q24 14 52 22t59 8q44 0 82.5 -16t67.5 -44.5t45.5 -69.5t16.5 -90q0 -50 -16.5 -90t-45.5 -69
t-67.5 -44.5t-82.5 -15.5q-62 0 -111 29v-598h-100v885zM279 276q0 -39 10.5 -72.5t29.5 -59t43.5 -40t53.5 -14.5q28 0 53.5 14.5t44 40t29.5 59t11 72.5t-11 73t-29.5 59.5t-44 40t-53.5 14.5q-29 0 -53.5 -14.5t-43.5 -40t-29.5 -59.5t-10.5 -73zM653 276v-8
q1 -37 12 -69.5t29.5 -56.5t43 -38t52.5 -14t53.5 14.5t44 40t29.5 59t11 72.5t-11 73t-29.5 59.5t-44 40t-53.5 14.5q-29 0 -53.5 -14.5t-43.5 -40t-29.5 -59.5t-10.5 -73zM1234 788q0 -25 8.5 -46.5t23.5 -37.5t35.5 -25.5t43.5 -9.5t43.5 9.5t35.5 25.5t24 37.5t9 46.5
t-9 46.5t-24 38t-35.5 26t-43.5 9.5t-43 -9t-35 -25t-23.5 -36.5t-9.5 -44.5v-5z" />
    </font>
</defs>
</svg>
